<svg xmlns="http://www.w3.org/2000/svg" xmlns:xlink="http://www.w3.org/1999/xlink" width="617" zoomAndPan="magnify" viewBox="0 0 462.75 399.74999" height="533" preserveAspectRatio="xMidYMid meet" version="1.0"><defs><clipPath id="19e407df39"><path d="M 58 13.460938 L 122 13.460938 L 122 85 L 58 85 Z M 58 13.460938 " clip-rule="nonzero"/></clipPath><clipPath id="8ef17b9e64"><path d="M 0.0195312 384 L 462.480469 384 L 462.480469 386.179688 L 0.0195312 386.179688 Z M 0.0195312 384 " clip-rule="nonzero"/></clipPath></defs><path fill="#e6e6e6" d="M 263.59375 343.199219 C 260.398438 338.722656 256.070312 335.445312 250.628906 334.222656 C 245.882812 333.152344 241.003906 333.335938 236.179688 333.371094 L 175.195312 333.839844 C 169.972656 333.882812 164.964844 338.40625 165.207031 343.828125 C 165.449219 349.203125 169.597656 353.855469 175.195312 353.8125 C 193.0625 353.675781 210.925781 353.539062 228.789062 353.402344 C 233 353.367188 237.214844 353.292969 241.425781 353.304688 C 242.371094 353.308594 243.3125 353.359375 244.257812 353.371094 C 244.488281 353.371094 244.652344 353.371094 244.769531 353.367188 C 244.800781 353.375 244.824219 353.382812 244.863281 353.394531 C 245.355469 353.527344 245.859375 353.621094 246.355469 353.75 C 246.183594 353.753906 246.679688 354.0625 246.925781 354.167969 C 246.960938 354.234375 247.035156 354.355469 247.15625 354.539062 C 247.324219 354.859375 247.828125 355.824219 247.847656 355.792969 C 248.605469 357.707031 249.226562 359.660156 249.714844 361.65625 C 250.875 366.054688 251.128906 366.976562 251.296875 371.101562 C 251.507812 376.3125 255.738281 381.335938 261.285156 381.085938 C 266.515625 380.851562 271.5 376.691406 271.273438 371.101562 C 270.890625 361.679688 269.238281 351.097656 263.59375 343.199219 Z M 263.59375 343.199219 " fill-opacity="1" fill-rule="nonzero"/><path fill="#e6e6e6" d="M 178.78125 365.734375 C 177.636719 358.792969 176.511719 351.847656 175.34375 344.910156 C 174.160156 337.875 171.738281 331.433594 166.261719 326.8125 C 164.800781 325.578125 163.28125 324.425781 161.757812 323.277344 C 161.222656 322.875 160.6875 322.472656 160.15625 322.058594 C 160.125 322.035156 160.105469 322.019531 160.078125 321.996094 C 160.019531 321.945312 159.949219 321.886719 159.855469 321.808594 C 157.574219 319.875 155.367188 317.859375 153.269531 315.714844 C 151.402344 313.808594 149.617188 311.824219 147.914062 309.757812 C 147.488281 309.242188 147.070312 308.71875 146.65625 308.195312 C 146.582031 308.105469 146.199219 307.609375 145.945312 307.285156 C 145.710938 306.960938 145.28125 306.375 145.207031 306.273438 C 144.722656 305.585938 144.25 304.898438 143.78125 304.199219 C 140.59375 299.425781 137.851562 294.40625 135.550781 289.148438 C 135.320312 288.628906 135.097656 288.101562 134.882812 287.578125 C 134.824219 287.414062 134.75 287.210938 134.648438 286.933594 C 134.1875 285.664062 133.722656 284.390625 133.300781 283.105469 C 132.402344 280.371094 131.628906 277.597656 130.984375 274.78125 C 130.664062 273.390625 130.375 271.992188 130.121094 270.589844 C 129.988281 269.867188 129.863281 269.144531 129.75 268.417969 C 129.730469 268.300781 129.617188 267.515625 129.550781 267.074219 C 129.503906 266.628906 129.414062 265.84375 129.398438 265.722656 C 129.328125 264.992188 129.261719 264.261719 129.207031 263.527344 C 129.078125 261.878906 128.992188 260.230469 128.945312 258.578125 C 128.871094 255.636719 128.921875 252.699219 129.105469 249.761719 C 129.207031 248.113281 129.355469 246.464844 129.539062 244.824219 C 129.546875 244.722656 129.558594 244.640625 129.566406 244.570312 C 129.574219 244.496094 129.589844 244.410156 129.605469 244.308594 C 129.738281 243.398438 129.878906 242.492188 130.039062 241.589844 C 130.636719 238.15625 131.414062 234.761719 132.371094 231.40625 C 132.824219 229.824219 133.316406 228.25 133.847656 226.691406 C 134.082031 226 134.328125 225.308594 134.578125 224.625 C 134.5625 224.667969 135.316406 222.742188 135.328125 222.675781 C 138.320312 215.605469 143.214844 209.160156 143.222656 201.128906 C 143.226562 195.6875 138.625 190.480469 133.234375 190.730469 C 132.570312 190.757812 131.910156 190.84375 131.261719 190.996094 C 130.613281 191.148438 129.984375 191.359375 129.378906 191.632812 C 128.769531 191.90625 128.195312 192.234375 127.648438 192.617188 C 127.105469 193 126.601562 193.433594 126.140625 193.910156 C 125.679688 194.390625 125.265625 194.914062 124.90625 195.472656 C 124.542969 196.03125 124.238281 196.621094 123.992188 197.238281 C 123.746094 197.855469 123.558594 198.492188 123.433594 199.148438 C 123.308594 199.800781 123.246094 200.460938 123.246094 201.128906 C 123.246094 201.25 123.246094 201.355469 123.246094 201.453125 C 123.195312 201.625 123.152344 201.765625 123.117188 201.890625 C 122.53125 203.160156 121.816406 204.363281 121.175781 205.601562 C 119.421875 208.984375 117.925781 212.480469 116.5 216.027344 C 114.167969 221.816406 112.394531 227.773438 111.175781 233.898438 C 108.519531 247.390625 108.316406 260.921875 110.574219 274.492188 C 114.445312 298.089844 127.214844 320.683594 144.972656 335.867188 C 146.511719 337.183594 148.089844 338.457031 149.683594 339.707031 C 150.34375 340.222656 151.007812 340.730469 151.675781 341.234375 C 151.992188 341.472656 153.300781 342.503906 152.722656 342.003906 C 153.960938 343.058594 154.484375 343.589844 154.800781 344.367188 C 154.847656 344.546875 154.910156 344.789062 154.996094 345.125 C 155.21875 346 155.429688 346.875 155.609375 347.765625 C 157.152344 355.535156 158.226562 363.4375 159.519531 371.261719 C 160.40625 376.632812 167.023438 380.132812 171.804688 378.523438 C 177.371094 376.648438 179.730469 371.492188 178.78125 365.734375 Z M 178.78125 365.734375 " fill-opacity="1" fill-rule="nonzero"/><path fill="#bd316b" d="M 264.605469 385.890625 C 263.566406 385.890625 262.535156 385.792969 261.519531 385.59375 C 260.5 385.394531 259.507812 385.097656 258.546875 384.703125 C 257.585938 384.308594 256.675781 383.824219 255.808594 383.25 C 254.941406 382.675781 254.140625 382.023438 253.40625 381.292969 C 252.667969 380.5625 252.007812 379.765625 251.429688 378.902344 C 250.847656 378.042969 250.355469 377.132812 249.957031 376.175781 C 249.554688 375.21875 249.25 374.230469 249.042969 373.214844 C 248.835938 372.195312 248.726562 371.167969 248.722656 370.128906 L 248.722656 358.738281 C 236.792969 360.074219 195.945312 359.765625 184.238281 357.882812 L 184.238281 369.675781 C 184.230469 370.710938 184.121094 371.738281 183.914062 372.753906 C 183.703125 373.773438 183.398438 374.757812 182.996094 375.714844 C 182.59375 376.671875 182.101562 377.578125 181.519531 378.4375 C 180.941406 379.300781 180.28125 380.09375 179.546875 380.824219 C 178.808594 381.558594 178.007812 382.210938 177.144531 382.785156 C 176.277344 383.355469 175.367188 383.84375 174.40625 384.238281 C 173.449219 384.632812 172.457031 384.929688 171.441406 385.132812 C 170.421875 385.335938 169.394531 385.433594 168.355469 385.433594 C 167.320312 385.433594 166.292969 385.335938 165.273438 385.132812 C 164.253906 384.929688 163.265625 384.632812 162.308594 384.238281 C 161.347656 383.84375 160.433594 383.355469 159.570312 382.785156 C 158.707031 382.210938 157.90625 381.558594 157.167969 380.824219 C 156.433594 380.09375 155.773438 379.300781 155.191406 378.4375 C 154.613281 377.578125 154.121094 376.671875 153.71875 375.714844 C 153.316406 374.757812 153.011719 373.773438 152.800781 372.753906 C 152.59375 371.738281 152.484375 370.710938 152.476562 369.675781 L 152.476562 346.523438 C 150.503906 345.429688 148.570312 344.269531 146.675781 343.046875 C 144.78125 341.824219 142.929688 340.539062 141.121094 339.191406 C 139.3125 337.847656 137.550781 336.441406 135.832031 334.980469 C 134.117188 333.515625 132.453125 331.996094 130.835938 330.421875 C 129.222656 328.851562 127.660156 327.226562 126.152344 325.546875 C 124.644531 323.871094 123.195312 322.144531 121.804688 320.371094 C 120.410156 318.597656 119.078125 316.78125 117.804688 314.917969 C 116.535156 313.058594 115.324219 311.15625 114.179688 309.214844 C 113.03125 307.269531 111.953125 305.292969 110.9375 303.28125 C 109.921875 301.265625 108.976562 299.222656 108.097656 297.144531 C 107.21875 295.066406 106.410156 292.964844 105.671875 290.835938 C 104.929688 288.703125 104.265625 286.550781 103.667969 284.378906 C 103.070312 282.203125 102.546875 280.011719 102.097656 277.800781 C 101.644531 275.59375 101.269531 273.371094 100.964844 271.136719 C 100.660156 268.902344 100.433594 266.660156 100.277344 264.410156 C 100.125 262.160156 100.042969 259.910156 100.039062 257.65625 C 100.039062 226.554688 114.136719 197.542969 138.714844 178.054688 C 142.691406 174.894531 146.875 172.046875 151.273438 169.507812 C 155.667969 166.96875 160.230469 164.769531 164.953125 162.910156 C 169.679688 161.050781 174.515625 159.550781 179.460938 158.410156 C 184.410156 157.269531 189.414062 156.5 194.476562 156.101562 C 197.238281 155.886719 200.019531 155.777344 202.742188 155.777344 C 212.324219 155.777344 255.5625 157.257812 266.414062 160.378906 L 291.152344 135.835938 C 291.523438 135.460938 291.96875 135.222656 292.484375 135.121094 C 293.003906 135.015625 293.503906 135.066406 293.992188 135.269531 C 294.480469 135.464844 294.875 135.78125 295.167969 136.21875 C 295.464844 136.660156 295.609375 137.140625 295.605469 137.671875 L 295.605469 141.574219 L 300.421875 136.804688 C 300.792969 136.429688 301.238281 136.191406 301.753906 136.085938 C 302.269531 135.984375 302.773438 136.03125 303.261719 136.234375 C 303.75 136.429688 304.144531 136.75 304.4375 137.1875 C 304.734375 137.625 304.878906 138.109375 304.875 138.636719 L 304.875 182.242188 C 306.417969 183.636719 307.917969 185.074219 309.375 186.558594 C 310.832031 188.039062 312.242188 189.566406 313.601562 191.140625 C 314.964844 192.710938 316.277344 194.320312 317.542969 195.972656 C 318.804688 197.621094 320.015625 199.3125 321.175781 201.035156 C 322.335938 202.761719 323.441406 204.519531 324.492188 206.3125 C 325.542969 208.109375 326.539062 209.933594 327.480469 211.785156 C 328.417969 213.640625 329.300781 215.523438 330.125 217.429688 C 330.949219 219.339844 331.714844 221.269531 332.417969 223.226562 C 333.125 225.183594 333.769531 227.15625 334.355469 229.152344 C 334.9375 231.148438 335.460938 233.160156 335.921875 235.1875 C 336.382812 237.214844 336.78125 239.253906 337.113281 241.304688 C 337.449219 243.355469 337.722656 245.417969 337.933594 247.484375 C 338.140625 249.554688 338.285156 251.625 338.367188 253.703125 C 338.449219 255.78125 338.46875 257.859375 338.421875 259.9375 C 338.375 262.015625 338.265625 264.089844 338.09375 266.160156 C 337.917969 268.234375 337.683594 270.296875 337.382812 272.355469 C 337.082031 274.410156 336.71875 276.457031 336.292969 278.492188 C 335.867188 280.527344 335.378906 282.546875 334.832031 284.550781 C 334.28125 286.554688 333.667969 288.542969 332.996094 290.511719 C 332.328125 292.476562 331.59375 294.421875 330.804688 296.34375 C 330.011719 298.265625 329.164062 300.164062 328.253906 302.035156 C 327.347656 303.902344 326.382812 305.746094 325.363281 307.554688 C 324.34375 309.367188 323.265625 311.144531 322.136719 312.890625 C 321.007812 314.636719 319.824219 316.34375 318.589844 318.015625 C 317.355469 319.691406 316.070312 321.324219 314.734375 322.917969 C 313.402344 324.511719 312.019531 326.0625 310.589844 327.570312 C 309.15625 329.078125 307.683594 330.542969 306.164062 331.960938 C 304.640625 333.378906 303.082031 334.75 301.476562 336.074219 C 299.871094 337.394531 298.226562 338.667969 296.546875 339.886719 C 294.863281 341.109375 293.144531 342.277344 291.390625 343.394531 C 289.636719 344.511719 287.851562 345.570312 286.03125 346.578125 C 284.210938 347.585938 282.363281 348.535156 280.484375 349.425781 L 280.484375 370.128906 C 280.480469 371.167969 280.375 372.195312 280.167969 373.214844 C 279.960938 374.230469 279.65625 375.21875 279.253906 376.175781 C 278.851562 377.132812 278.359375 378.042969 277.78125 378.902344 C 277.199219 379.765625 276.542969 380.5625 275.804688 381.292969 C 275.066406 382.023438 274.265625 382.675781 273.398438 383.25 C 272.535156 383.824219 271.621094 384.308594 270.660156 384.703125 C 269.699219 385.097656 268.710938 385.394531 267.691406 385.59375 C 266.671875 385.792969 265.644531 385.890625 264.605469 385.890625 Z M 249.972656 357.324219 L 249.972656 370.128906 C 249.980469 371.085938 250.082031 372.03125 250.273438 372.96875 C 250.464844 373.902344 250.75 374.8125 251.121094 375.691406 C 251.492188 376.574219 251.945312 377.410156 252.480469 378.199219 C 253.015625 378.992188 253.621094 379.726562 254.300781 380.398438 C 254.976562 381.070312 255.714844 381.671875 256.511719 382.199219 C 257.308594 382.726562 258.148438 383.175781 259.03125 383.539062 C 259.914062 383.902344 260.828125 384.175781 261.765625 384.363281 C 262.703125 384.546875 263.648438 384.640625 264.605469 384.640625 C 265.558594 384.640625 266.507812 384.546875 267.445312 384.363281 C 268.382812 384.175781 269.292969 383.902344 270.175781 383.539062 C 271.058594 383.175781 271.898438 382.726562 272.695312 382.199219 C 273.492188 381.671875 274.230469 381.070312 274.910156 380.398438 C 275.585938 379.726562 276.195312 378.992188 276.730469 378.199219 C 277.265625 377.410156 277.71875 376.574219 278.089844 375.691406 C 278.460938 374.8125 278.742188 373.902344 278.933594 372.96875 C 279.128906 372.03125 279.230469 371.085938 279.238281 370.128906 L 279.238281 348.640625 L 279.59375 348.46875 C 283.804688 346.472656 287.863281 344.191406 291.761719 341.632812 C 295.660156 339.074219 299.367188 336.261719 302.875 333.191406 C 306.386719 330.121094 309.671875 326.824219 312.726562 323.304688 C 315.78125 319.78125 318.582031 316.066406 321.125 312.15625 C 322.738281 309.675781 324.238281 307.128906 325.621094 304.515625 C 327.007812 301.898438 328.277344 299.230469 329.425781 296.503906 C 330.574219 293.777344 331.601562 291.003906 332.503906 288.1875 C 333.40625 285.371094 334.183594 282.519531 334.835938 279.632812 C 335.484375 276.746094 336.003906 273.835938 336.398438 270.902344 C 336.789062 267.96875 337.050781 265.027344 337.183594 262.070312 C 337.3125 259.113281 337.3125 256.160156 337.179688 253.203125 C 337.050781 250.246094 336.789062 247.304688 336.394531 244.371094 C 336.003906 241.4375 335.480469 238.527344 334.832031 235.644531 C 334.179688 232.757812 333.402344 229.90625 332.5 227.085938 C 331.59375 224.269531 330.570312 221.5 329.417969 218.773438 C 328.269531 216.046875 327 213.375 325.613281 210.761719 C 324.226562 208.148438 322.730469 205.601562 321.117188 203.121094 C 319.503906 200.640625 317.785156 198.234375 315.957031 195.90625 C 314.132812 193.578125 312.207031 191.335938 310.183594 189.175781 C 308.15625 187.019531 306.042969 184.957031 303.832031 182.984375 L 303.625 182.800781 L 303.625 138.636719 C 303.632812 138.363281 303.558594 138.113281 303.402344 137.882812 C 303.25 137.65625 303.046875 137.492188 302.789062 137.390625 C 302.535156 137.285156 302.269531 137.257812 302 137.308594 C 301.726562 137.363281 301.496094 137.488281 301.300781 137.6875 L 294.355469 144.566406 L 294.355469 137.671875 C 294.359375 137.394531 294.285156 137.144531 294.132812 136.917969 C 293.980469 136.6875 293.773438 136.523438 293.519531 136.425781 C 293.261719 136.316406 293 136.289062 292.726562 136.34375 C 292.457031 136.398438 292.222656 136.523438 292.03125 136.722656 L 266.761719 161.789062 L 266.402344 161.675781 C 256.316406 158.519531 212.398438 157.023438 202.742188 157.023438 C 200.050781 157.023438 197.304688 157.132812 194.574219 157.347656 C 189.574219 157.738281 184.628906 158.5 179.742188 159.625 C 174.855469 160.753906 170.078125 162.234375 165.410156 164.074219 C 160.746094 165.910156 156.238281 168.082031 151.894531 170.589844 C 147.550781 173.097656 143.417969 175.910156 139.492188 179.035156 C 115.210938 198.28125 101.285156 226.9375 101.285156 257.65625 C 101.292969 259.890625 101.371094 262.121094 101.523438 264.351562 C 101.679688 266.582031 101.90625 268.800781 102.207031 271.015625 C 102.511719 273.230469 102.886719 275.433594 103.335938 277.621094 C 103.78125 279.8125 104.304688 281.984375 104.894531 284.136719 C 105.488281 286.292969 106.152344 288.425781 106.890625 290.535156 C 107.625 292.644531 108.429688 294.730469 109.300781 296.785156 C 110.175781 298.84375 111.117188 300.867188 112.125 302.863281 C 113.136719 304.855469 114.210938 306.816406 115.347656 308.738281 C 116.488281 310.660156 117.6875 312.542969 118.953125 314.386719 C 120.21875 316.226562 121.542969 318.027344 122.925781 319.78125 C 124.3125 321.535156 125.753906 323.242188 127.25 324.902344 C 128.75 326.558594 130.300781 328.167969 131.90625 329.722656 C 133.511719 331.277344 135.164062 332.777344 136.871094 334.222656 C 138.574219 335.667969 140.328125 337.054688 142.125 338.382812 C 143.921875 339.710938 145.761719 340.976562 147.644531 342.183594 C 149.523438 343.390625 151.445312 344.53125 153.402344 345.609375 L 153.722656 345.789062 L 153.722656 369.675781 C 153.730469 370.628906 153.832031 371.574219 154.027344 372.511719 C 154.21875 373.445312 154.5 374.355469 154.871094 375.234375 C 155.242188 376.117188 155.695312 376.953125 156.230469 377.742188 C 156.765625 378.535156 157.375 379.269531 158.054688 379.941406 C 158.730469 380.613281 159.46875 381.214844 160.265625 381.742188 C 161.0625 382.269531 161.902344 382.71875 162.785156 383.082031 C 163.667969 383.445312 164.578125 383.71875 165.515625 383.90625 C 166.453125 384.089844 167.402344 384.183594 168.355469 384.183594 C 169.3125 384.183594 170.257812 384.089844 171.195312 383.90625 C 172.132812 383.71875 173.046875 383.445312 173.929688 383.082031 C 174.8125 382.71875 175.652344 382.269531 176.449219 381.742188 C 177.246094 381.214844 177.984375 380.613281 178.660156 379.941406 C 179.339844 379.269531 179.945312 378.535156 180.480469 377.742188 C 181.015625 376.953125 181.46875 376.117188 181.839844 375.234375 C 182.210938 374.355469 182.496094 373.445312 182.6875 372.511719 C 182.882812 371.574219 182.980469 370.628906 182.988281 369.675781 L 182.988281 356.390625 L 183.730469 356.527344 C 194.25 358.507812 238.558594 358.820312 249.265625 357.414062 Z M 249.972656 357.324219 " fill-opacity="1" fill-rule="nonzero"/><path fill="#ff95c1" d="M 179.972656 87.808594 L 110.84375 108.578125 C 110.300781 108.742188 109.777344 108.960938 109.273438 109.226562 C 108.773438 109.492188 108.300781 109.808594 107.863281 110.167969 C 107.421875 110.527344 107.019531 110.925781 106.660156 111.367188 C 106.296875 111.804688 105.984375 112.273438 105.714844 112.773438 C 105.445312 113.277344 105.226562 113.796875 105.0625 114.339844 C 104.894531 114.886719 104.785156 115.441406 104.726562 116.003906 C 104.667969 116.570312 104.667969 117.136719 104.722656 117.703125 C 104.777344 118.269531 104.886719 118.824219 105.050781 119.367188 C 105.210938 119.914062 105.429688 120.433594 105.695312 120.9375 C 105.960938 121.441406 106.273438 121.910156 106.632812 122.351562 C 106.992188 122.792969 107.390625 123.191406 107.832031 123.554688 C 108.269531 123.917969 108.738281 124.234375 109.238281 124.503906 C 109.738281 124.773438 110.261719 124.988281 110.804688 125.15625 C 111.347656 125.324219 111.902344 125.4375 112.46875 125.492188 C 113.035156 125.550781 113.601562 125.554688 114.167969 125.5 C 114.730469 125.445312 115.289062 125.339844 115.832031 125.175781 L 176.328125 106.996094 L 177.597656 106.613281 C 177.722656 103.347656 178.226562 100.140625 179.097656 96.996094 C 179.972656 93.847656 181.199219 90.839844 182.769531 87.976562 C 182.375 87.796875 181.957031 87.691406 181.523438 87.652344 C 180.996094 87.601562 180.480469 87.652344 179.972656 87.808594 Z M 179.972656 87.808594 " fill-opacity="1" fill-rule="nonzero"/><path fill="#bd316b" d="M 114.636719 129.605469 C 114.179688 129.601562 113.730469 129.53125 113.292969 129.390625 C 112.859375 129.246094 112.453125 129.042969 112.082031 128.773438 C 111.710938 128.503906 111.386719 128.183594 111.117188 127.816406 C 110.847656 127.445312 110.636719 127.042969 110.492188 126.605469 L 106.171875 113.566406 C 106.078125 113.292969 106.015625 113.015625 105.980469 112.730469 C 105.945312 112.445312 105.9375 112.160156 105.960938 111.875 C 105.980469 111.585938 106.03125 111.304688 106.105469 111.027344 C 106.183594 110.753906 106.285156 110.484375 106.414062 110.230469 C 106.542969 109.972656 106.695312 109.730469 106.871094 109.503906 C 107.046875 109.28125 107.242188 109.074219 107.460938 108.886719 C 107.679688 108.699219 107.910156 108.53125 108.160156 108.390625 C 108.410156 108.25 108.671875 108.132812 108.945312 108.042969 L 165.207031 89.402344 C 165.480469 89.308594 165.757812 89.246094 166.042969 89.210938 C 166.328125 89.175781 166.613281 89.167969 166.902344 89.191406 C 167.1875 89.210938 167.46875 89.257812 167.746094 89.335938 C 168.019531 89.410156 168.289062 89.515625 168.542969 89.644531 C 168.800781 89.773438 169.042969 89.925781 169.269531 90.101562 C 169.496094 90.277344 169.703125 90.472656 169.890625 90.691406 C 170.078125 90.90625 170.242188 91.140625 170.382812 91.390625 C 170.523438 91.640625 170.640625 91.902344 170.730469 92.171875 L 175.054688 105.214844 C 175.144531 105.480469 175.207031 105.753906 175.242188 106.03125 C 175.277344 106.308594 175.289062 106.585938 175.273438 106.867188 C 175.253906 107.144531 175.210938 107.421875 175.140625 107.691406 C 175.070312 107.964844 174.972656 108.226562 174.851562 108.476562 C 174.730469 108.730469 174.589844 108.96875 174.421875 109.195312 C 174.253906 109.417969 174.066406 109.625 173.859375 109.816406 C 173.652344 110.003906 173.429688 110.171875 173.191406 110.316406 C 172.949219 110.464844 172.699219 110.585938 172.4375 110.683594 C 172.382812 110.703125 172.332031 110.71875 172.277344 110.738281 L 116.015625 129.378906 C 115.566406 129.527344 115.109375 129.601562 114.636719 129.605469 Z M 114.636719 129.605469 " fill-opacity="1" fill-rule="nonzero"/><path fill="#bd316b" d="M 220.007812 64.648438 C 218.605469 64.648438 217.203125 64.714844 215.808594 64.851562 C 214.410156 64.984375 213.023438 65.1875 211.648438 65.457031 C 210.269531 65.726562 208.910156 66.058594 207.566406 66.460938 C 206.21875 66.859375 204.898438 67.324219 203.597656 67.847656 C 202.296875 68.375 201.027344 68.964844 199.78125 69.613281 C 198.539062 70.265625 197.328125 70.972656 196.152344 71.738281 C 194.980469 72.503906 193.84375 73.324219 192.746094 74.199219 C 191.648438 75.074219 190.597656 76 189.589844 76.976562 C 188.582031 77.953125 187.625 78.976562 186.71875 80.042969 C 185.808594 81.113281 184.953125 82.222656 184.152344 83.375 C 183.347656 84.527344 182.605469 85.710938 181.917969 86.933594 C 181.230469 88.15625 180.601562 89.410156 180.035156 90.695312 C 179.46875 91.976562 178.964844 93.285156 178.523438 94.617188 C 178.082031 95.949219 177.707031 97.296875 177.394531 98.664062 C 177.085938 100.03125 176.839844 101.414062 176.660156 102.804688 C 176.484375 104.195312 176.371094 105.59375 176.328125 106.996094 C 176.316406 107.4375 176.308594 107.886719 176.308594 108.335938 C 176.308594 109.765625 176.378906 111.195312 176.519531 112.617188 C 176.660156 114.042969 176.871094 115.457031 177.148438 116.859375 C 177.429688 118.261719 177.777344 119.648438 178.191406 121.019531 C 178.605469 122.386719 179.089844 123.734375 179.636719 125.054688 C 180.183594 126.378906 180.796875 127.667969 181.46875 128.929688 C 182.144531 130.191406 182.878906 131.417969 183.675781 132.609375 C 184.46875 133.796875 185.320312 134.945312 186.230469 136.050781 C 187.136719 137.160156 188.097656 138.21875 189.109375 139.230469 C 190.121094 140.242188 191.179688 141.199219 192.285156 142.109375 C 193.390625 143.015625 194.539062 143.867188 195.730469 144.664062 C 196.921875 145.457031 198.144531 146.191406 199.410156 146.867188 C 200.671875 147.542969 201.964844 148.152344 203.285156 148.699219 C 204.609375 149.246094 205.953125 149.730469 207.324219 150.144531 C 208.691406 150.558594 210.078125 150.90625 211.484375 151.1875 C 212.886719 151.464844 214.300781 151.675781 215.722656 151.816406 C 217.148438 151.957031 218.578125 152.027344 220.007812 152.027344 C 221.4375 152.027344 222.867188 151.957031 224.289062 151.816406 C 225.714844 151.675781 227.128906 151.464844 228.53125 151.1875 C 229.9375 150.90625 231.324219 150.558594 232.691406 150.144531 C 234.0625 149.730469 235.40625 149.246094 236.730469 148.699219 C 238.050781 148.152344 239.34375 147.542969 240.605469 146.867188 C 241.867188 146.191406 243.09375 145.457031 244.285156 144.664062 C 245.476562 143.867188 246.621094 143.015625 247.730469 142.109375 C 248.835938 141.199219 249.894531 140.242188 250.90625 139.230469 C 251.917969 138.21875 252.878906 137.160156 253.785156 136.050781 C 254.695312 134.945312 255.546875 133.796875 256.339844 132.609375 C 257.136719 131.417969 257.871094 130.191406 258.546875 128.929688 C 259.21875 127.667969 259.832031 126.378906 260.378906 125.054688 C 260.925781 123.734375 261.410156 122.386719 261.824219 121.019531 C 262.238281 119.648438 262.585938 118.261719 262.867188 116.859375 C 263.144531 115.457031 263.355469 114.042969 263.496094 112.617188 C 263.636719 111.195312 263.707031 109.765625 263.707031 108.335938 C 263.707031 106.90625 263.636719 105.476562 263.496094 104.054688 C 263.355469 102.628906 263.144531 101.214844 262.867188 99.8125 C 262.585938 98.410156 262.238281 97.023438 261.824219 95.652344 C 261.410156 94.285156 260.925781 92.9375 260.378906 91.617188 C 259.832031 90.292969 259.21875 89.003906 258.546875 87.742188 C 257.871094 86.480469 257.136719 85.253906 256.339844 84.0625 C 255.546875 82.875 254.695312 81.726562 253.785156 80.621094 C 252.878906 79.511719 251.917969 78.453125 250.90625 77.441406 C 249.894531 76.429688 248.835938 75.472656 247.730469 74.5625 C 246.621094 73.65625 245.476562 72.804688 244.285156 72.007812 C 243.09375 71.214844 241.867188 70.480469 240.605469 69.804688 C 239.34375 69.128906 238.050781 68.519531 236.730469 67.972656 C 235.40625 67.425781 234.0625 66.941406 232.691406 66.527344 C 231.324219 66.113281 229.9375 65.765625 228.53125 65.484375 C 227.128906 65.207031 225.714844 64.996094 224.289062 64.855469 C 222.867188 64.714844 221.4375 64.648438 220.007812 64.648438 Z M 220.007812 150.777344 C 218.617188 150.777344 217.230469 150.707031 215.847656 150.570312 C 214.464844 150.429688 213.09375 150.226562 211.730469 149.953125 C 210.367188 149.683594 209.019531 149.34375 207.691406 148.941406 C 206.359375 148.535156 205.054688 148.066406 203.769531 147.535156 C 202.484375 147.003906 201.230469 146.410156 200.007812 145.753906 C 198.78125 145.097656 197.589844 144.382812 196.433594 143.609375 C 195.277344 142.839844 194.164062 142.011719 193.089844 141.128906 C 192.015625 140.25 190.988281 139.316406 190.003906 138.332031 C 189.023438 137.351562 188.089844 136.324219 187.207031 135.25 C 186.324219 134.175781 185.5 133.058594 184.726562 131.90625 C 183.953125 130.75 183.238281 129.558594 182.582031 128.332031 C 181.929688 127.109375 181.335938 125.855469 180.800781 124.570312 C 180.269531 123.289062 179.800781 121.980469 179.394531 120.652344 C 178.992188 119.320312 178.652344 117.976562 178.382812 116.613281 C 178.109375 115.25 177.90625 113.878906 177.765625 112.496094 C 177.628906 111.113281 177.558594 109.726562 177.558594 108.335938 C 177.558594 107.753906 177.570312 107.179688 177.597656 106.613281 C 177.652344 105.238281 177.773438 103.867188 177.964844 102.5 C 178.152344 101.136719 178.410156 99.785156 178.730469 98.445312 C 179.050781 97.105469 179.4375 95.78125 179.886719 94.480469 C 180.335938 93.175781 180.851562 91.898438 181.425781 90.648438 C 182 89.394531 182.632812 88.171875 183.324219 86.980469 C 184.019531 85.792969 184.769531 84.636719 185.574219 83.519531 C 186.382812 82.402344 187.238281 81.324219 188.152344 80.292969 C 189.0625 79.257812 190.019531 78.269531 191.027344 77.328125 C 192.035156 76.386719 193.085938 75.5 194.179688 74.660156 C 195.273438 73.820312 196.402344 73.039062 197.574219 72.308594 C 198.742188 71.582031 199.945312 70.910156 201.179688 70.300781 C 202.417969 69.6875 203.679688 69.140625 204.96875 68.652344 C 206.257812 68.164062 207.566406 67.738281 208.894531 67.378906 C 210.226562 67.015625 211.570312 66.722656 212.929688 66.492188 C 214.289062 66.261719 215.65625 66.097656 217.03125 66 C 218.40625 65.90625 219.78125 65.875 221.160156 65.914062 C 222.535156 65.949219 223.910156 66.054688 225.277344 66.226562 C 226.644531 66.394531 228 66.632812 229.34375 66.9375 C 230.691406 67.238281 232.015625 67.605469 233.324219 68.039062 C 234.632812 68.472656 235.917969 68.964844 237.179688 69.523438 C 238.4375 70.082031 239.667969 70.699219 240.871094 71.375 C 242.070312 72.054688 243.234375 72.785156 244.363281 73.578125 C 245.492188 74.367188 246.578125 75.210938 247.625 76.109375 C 248.671875 77.003906 249.671875 77.949219 250.628906 78.945312 C 251.582031 79.9375 252.488281 80.976562 253.339844 82.058594 C 254.195312 83.140625 254.992188 84.261719 255.738281 85.421875 C 256.480469 86.582031 257.167969 87.773438 257.792969 89 C 258.421875 90.226562 258.988281 91.480469 259.496094 92.761719 C 260 94.042969 260.445312 95.347656 260.820312 96.671875 C 261.199219 97.996094 261.515625 99.339844 261.761719 100.695312 C 262.011719 102.050781 262.191406 103.414062 262.308594 104.785156 C 262.421875 106.160156 262.472656 107.535156 262.453125 108.914062 C 262.433594 110.289062 262.347656 111.664062 262.195312 113.035156 C 262.042969 114.402344 261.824219 115.761719 261.539062 117.109375 C 261.253906 118.457031 260.90625 119.789062 260.492188 121.105469 C 260.078125 122.417969 259.597656 123.710938 259.058594 124.976562 C 258.519531 126.246094 257.917969 127.484375 257.257812 128.691406 C 256.59375 129.902344 255.878906 131.074219 255.101562 132.214844 C 254.328125 133.355469 253.496094 134.453125 252.613281 135.511719 C 251.734375 136.570312 250.800781 137.582031 249.820312 138.550781 C 248.839844 139.519531 247.8125 140.4375 246.742188 141.304688 C 245.671875 142.171875 244.5625 142.984375 243.410156 143.746094 C 242.261719 144.503906 241.078125 145.207031 239.859375 145.851562 C 238.640625 146.496094 237.394531 147.078125 236.117188 147.601562 C 234.84375 148.125 233.546875 148.585938 232.226562 148.980469 C 230.90625 149.378906 229.570312 149.710938 228.21875 149.976562 C 226.867188 150.242188 225.503906 150.441406 224.132812 150.578125 C 222.761719 150.710938 221.386719 150.777344 220.007812 150.777344 Z M 220.007812 150.777344 " fill-opacity="1" fill-rule="nonzero"/><path fill="#e6e6e6" d="M 256.839844 108.335938 C 256.839844 109.542969 256.78125 110.746094 256.660156 111.945312 C 256.542969 113.144531 256.367188 114.335938 256.132812 115.519531 C 255.894531 116.703125 255.601562 117.871094 255.253906 119.027344 C 254.902344 120.179688 254.496094 121.3125 254.035156 122.429688 C 253.574219 123.542969 253.058594 124.632812 252.488281 125.695312 C 251.921875 126.757812 251.300781 127.792969 250.632812 128.792969 C 249.960938 129.796875 249.242188 130.765625 248.476562 131.695312 C 247.714844 132.628906 246.902344 133.523438 246.050781 134.375 C 245.199219 135.226562 244.304688 136.035156 243.371094 136.800781 C 242.441406 137.566406 241.472656 138.285156 240.46875 138.953125 C 239.46875 139.625 238.433594 140.242188 237.371094 140.8125 C 236.304688 141.378906 235.214844 141.894531 234.101562 142.355469 C 232.988281 142.820312 231.851562 143.222656 230.699219 143.574219 C 229.542969 143.925781 228.375 144.21875 227.191406 144.453125 C 226.011719 144.6875 224.816406 144.863281 223.617188 144.984375 C 222.417969 145.101562 221.214844 145.160156 220.007812 145.160156 C 218.800781 145.160156 217.597656 145.101562 216.398438 144.984375 C 215.195312 144.863281 214.003906 144.6875 212.820312 144.453125 C 211.640625 144.21875 210.46875 143.925781 209.316406 143.574219 C 208.160156 143.222656 207.027344 142.820312 205.914062 142.355469 C 204.796875 141.894531 203.710938 141.378906 202.644531 140.8125 C 201.582031 140.242188 200.546875 139.625 199.546875 138.953125 C 198.542969 138.285156 197.574219 137.566406 196.640625 136.800781 C 195.710938 136.035156 194.816406 135.226562 193.964844 134.375 C 193.109375 133.523438 192.300781 132.628906 191.535156 131.695312 C 190.773438 130.765625 190.054688 129.796875 189.382812 128.792969 C 188.714844 127.792969 188.09375 126.757812 187.527344 125.695312 C 186.957031 124.632812 186.441406 123.542969 185.980469 122.429688 C 185.519531 121.3125 185.113281 120.179688 184.761719 119.027344 C 184.414062 117.871094 184.121094 116.703125 183.882812 115.519531 C 183.648438 114.335938 183.472656 113.144531 183.355469 111.945312 C 183.234375 110.746094 183.175781 109.542969 183.175781 108.335938 C 183.175781 107.167969 183.234375 106.019531 183.339844 104.882812 C 183.449219 103.71875 183.613281 102.5625 183.832031 101.414062 C 184.054688 100.265625 184.328125 99.128906 184.65625 98.003906 C 184.984375 96.882812 185.363281 95.777344 185.796875 94.691406 C 186.230469 93.605469 186.714844 92.542969 187.25 91.5 C 187.785156 90.460938 188.371094 89.445312 189 88.460938 C 189.632812 87.476562 190.308594 86.523438 191.03125 85.605469 C 191.753906 84.683594 192.519531 83.800781 193.324219 82.953125 C 194.132812 82.105469 194.976562 81.296875 195.859375 80.53125 C 196.746094 79.761719 197.664062 79.039062 198.613281 78.359375 C 199.566406 77.679688 200.550781 77.046875 201.5625 76.460938 C 202.574219 75.875 203.613281 75.339844 204.679688 74.851562 C 205.742188 74.367188 206.828125 73.929688 207.933594 73.546875 C 209.039062 73.164062 210.160156 72.832031 211.296875 72.558594 C 212.433594 72.28125 213.582031 72.058594 214.738281 71.890625 C 215.898438 71.722656 217.058594 71.613281 218.230469 71.554688 C 219.398438 71.5 220.566406 71.496094 221.734375 71.550781 C 222.90625 71.609375 224.066406 71.71875 225.226562 71.882812 C 226.386719 72.050781 227.53125 72.269531 228.671875 72.546875 C 229.808594 72.820312 230.929688 73.148438 232.035156 73.53125 C 233.140625 73.914062 234.226562 74.347656 235.292969 74.832031 C 236.355469 75.316406 237.394531 75.851562 238.410156 76.4375 C 239.421875 77.023438 240.40625 77.652344 241.359375 78.332031 C 242.3125 79.007812 243.230469 79.730469 244.117188 80.496094 C 245 81.261719 245.847656 82.070312 246.65625 82.914062 C 247.460938 83.761719 248.226562 84.644531 248.953125 85.566406 C 249.675781 86.484375 250.355469 87.4375 250.988281 88.417969 C 251.621094 89.402344 252.203125 90.414062 252.742188 91.457031 C 253.277344 92.496094 253.761719 93.558594 254.199219 94.644531 C 254.632812 95.730469 255.015625 96.835938 255.34375 97.957031 C 255.675781 99.078125 255.949219 100.214844 256.171875 101.363281 C 256.394531 102.511719 256.558594 103.667969 256.671875 104.835938 C 256.78125 106 256.839844 107.167969 256.839844 108.335938 Z M 256.839844 108.335938 " fill-opacity="1" fill-rule="nonzero"/><path fill="#ff95c1" d="M 230.976562 110.78125 C 230.070312 109.589844 228.929688 108.6875 227.5625 108.082031 C 225.898438 107.378906 224.1875 106.816406 222.429688 106.394531 L 222.429688 96.371094 C 225.179688 96.785156 227.613281 97.894531 229.726562 99.699219 L 231.761719 95.359375 C 230.582031 94.308594 229.257812 93.492188 227.792969 92.90625 C 226.171875 92.25 224.492188 91.820312 222.753906 91.617188 L 222.753906 86.535156 L 218.042969 86.535156 L 218.042969 91.664062 C 216.199219 91.871094 214.484375 92.449219 212.890625 93.394531 C 211.449219 94.25 210.285156 95.386719 209.402344 96.816406 C 208.554688 98.214844 208.140625 99.730469 208.160156 101.363281 C 208.074219 103.152344 208.550781 104.773438 209.589844 106.234375 C 210.53125 107.480469 211.71875 108.421875 213.148438 109.054688 C 214.839844 109.777344 216.578125 110.351562 218.367188 110.78125 L 218.367188 120.386719 C 216.777344 120.269531 215.238281 119.914062 213.757812 119.320312 C 212.277344 118.730469 210.917969 117.933594 209.683594 116.925781 L 207.648438 121.269531 C 209.039062 122.417969 210.589844 123.296875 212.292969 123.902344 C 214.152344 124.566406 216.070312 124.96875 218.042969 125.101562 L 218.042969 130.136719 L 222.753906 130.136719 L 222.753906 125.007812 C 224.0625 124.863281 225.316406 124.519531 226.511719 123.96875 C 227.710938 123.421875 228.789062 122.695312 229.753906 121.796875 C 230.609375 120.976562 231.265625 120.019531 231.71875 118.921875 C 232.171875 117.824219 232.386719 116.683594 232.363281 115.496094 C 232.441406 113.765625 231.980469 112.195312 230.976562 110.78125 Z M 218.367188 105.332031 C 217.207031 104.980469 216.160156 104.421875 215.226562 103.648438 C 214.855469 103.320312 214.570312 102.925781 214.378906 102.46875 C 214.183594 102.011719 214.09375 101.535156 214.113281 101.039062 C 214.078125 99.882812 214.457031 98.882812 215.25 98.039062 C 216.117188 97.164062 217.15625 96.628906 218.367188 96.421875 Z M 225.390625 118.617188 C 224.570312 119.453125 223.585938 119.96875 222.429688 120.15625 L 222.429688 111.894531 C 223.515625 112.183594 224.503906 112.679688 225.390625 113.371094 C 225.726562 113.660156 225.984375 114.007812 226.160156 114.410156 C 226.339844 114.816406 226.421875 115.238281 226.40625 115.683594 C 226.453125 116.792969 226.113281 117.769531 225.390625 118.617188 Z M 225.390625 118.617188 " fill-opacity="1" fill-rule="nonzero"/><path fill="#bd316b" d="M 116.644531 182.460938 C 116.160156 182.460938 115.691406 182.382812 115.234375 182.226562 C 114.777344 182.070312 114.359375 181.84375 113.976562 181.550781 C 113.59375 181.257812 113.269531 180.910156 113 180.507812 C 112.734375 180.105469 112.539062 179.671875 112.414062 179.207031 L 110.058594 170.300781 C 109.988281 170.023438 109.941406 169.742188 109.925781 169.453125 C 109.90625 169.167969 109.917969 168.882812 109.957031 168.597656 C 109.996094 168.316406 110.058594 168.039062 110.152344 167.765625 C 110.246094 167.496094 110.367188 167.238281 110.507812 166.988281 C 110.652344 166.742188 110.820312 166.507812 111.011719 166.292969 C 111.199219 166.078125 111.410156 165.886719 111.636719 165.710938 C 111.863281 165.539062 112.105469 165.386719 112.363281 165.261719 C 112.621094 165.136719 112.890625 165.035156 113.167969 164.960938 L 187.414062 145.34375 C 187.691406 145.273438 187.972656 145.230469 188.261719 145.210938 C 188.546875 145.195312 188.832031 145.207031 189.117188 145.246094 C 189.398438 145.285156 189.675781 145.351562 189.949219 145.441406 C 190.21875 145.535156 190.480469 145.65625 190.726562 145.800781 C 190.972656 145.945312 191.207031 146.109375 191.421875 146.300781 C 191.636719 146.492188 191.828125 146.699219 192.003906 146.925781 C 192.175781 147.15625 192.328125 147.398438 192.453125 147.65625 C 192.578125 147.914062 192.679688 148.179688 192.753906 148.457031 L 194.746094 156.003906 L 194.375 156.03125 C 189.636719 156.398438 184.949219 157.101562 180.3125 158.136719 C 175.679688 159.175781 171.136719 160.535156 166.695312 162.21875 C 162.253906 163.898438 157.953125 165.890625 153.792969 168.1875 C 149.636719 170.480469 145.660156 173.0625 141.867188 175.921875 L 141.761719 175.976562 L 117.75 182.316406 C 117.386719 182.414062 117.019531 182.460938 116.644531 182.460938 Z M 116.644531 182.460938 " fill-opacity="1" fill-rule="nonzero"/><path fill="#bd316b" d="M 104.347656 226.453125 C 99.992188 225.8125 95.753906 224.710938 91.636719 223.152344 C 87.519531 221.597656 83.613281 219.621094 79.925781 217.222656 C 76.253906 214.839844 72.890625 212.085938 69.828125 208.964844 C 66.8125 205.890625 63.929688 202.398438 62.4375 198.304688 C 61.71875 196.414062 61.378906 194.453125 61.414062 192.429688 C 61.449219 190.402344 61.859375 188.457031 62.644531 186.589844 C 63.417969 184.734375 64.515625 183.097656 65.941406 181.679688 C 67.367188 180.261719 69.007812 179.167969 70.863281 178.398438 C 74.605469 176.90625 79.121094 176.75 82.761719 178.382812 C 84.527344 179.15625 85.976562 180.320312 87.109375 181.878906 C 87.628906 182.59375 88.007812 183.375 88.238281 184.226562 C 88.453125 185.003906 88.472656 185.785156 88.292969 186.570312 C 88.078125 187.355469 87.710938 188.058594 87.191406 188.679688 C 86.671875 189.304688 86.046875 189.792969 85.3125 190.144531 C 83.710938 190.964844 82.015625 191.484375 80.226562 191.695312 C 78.441406 191.9375 75.875 192.160156 74.441406 190.726562 C 74.140625 190.441406 73.914062 190.105469 73.757812 189.722656 C 73.648438 189.425781 73.613281 189.125 73.648438 188.8125 C 73.628906 188.949219 73.738281 188.515625 73.730469 188.535156 C 73.707031 188.597656 73.609375 188.753906 73.75 188.515625 C 73.792969 188.4375 73.839844 188.359375 73.894531 188.289062 C 73.847656 188.351562 73.742188 188.453125 73.929688 188.277344 C 74.085938 188.105469 74.277344 187.988281 74.5 187.925781 C 74.585938 187.898438 74.675781 187.878906 74.761719 187.855469 C 74.980469 187.796875 74.542969 187.859375 74.765625 187.851562 C 74.851562 187.847656 74.941406 187.851562 75.027344 187.847656 C 75.25 187.835938 74.808594 187.785156 75.023438 187.839844 C 75.105469 187.859375 75.183594 187.878906 75.265625 187.90625 C 75.441406 187.960938 75.140625 187.777344 75.261719 187.914062 C 75.402344 188.078125 75.113281 187.757812 75.273438 187.914062 C 75.351562 187.992188 75.425781 188.074219 75.496094 188.160156 C 75.632812 188.296875 75.792969 188.402344 75.972656 188.476562 C 76.152344 188.546875 76.335938 188.585938 76.53125 188.585938 C 76.726562 188.585938 76.910156 188.546875 77.089844 188.476562 C 77.269531 188.402344 77.429688 188.296875 77.566406 188.160156 C 77.699219 188.019531 77.800781 187.863281 77.871094 187.683594 C 77.945312 187.503906 77.980469 187.320312 77.980469 187.125 C 77.980469 186.933594 77.945312 186.746094 77.871094 186.570312 C 77.800781 186.390625 77.699219 186.230469 77.566406 186.089844 C 76.121094 184.304688 73.273438 184.746094 71.8125 186.257812 C 69.953125 188.183594 70.6875 191.238281 72.5 192.921875 C 74.550781 194.824219 77.453125 194.957031 80.089844 194.636719 C 82.335938 194.421875 84.472656 193.820312 86.5 192.828125 C 87.5 192.335938 88.375 191.683594 89.132812 190.867188 C 89.886719 190.050781 90.472656 189.125 90.882812 188.089844 C 91.261719 186.976562 91.390625 185.832031 91.277344 184.660156 C 91.160156 183.488281 90.8125 182.390625 90.226562 181.371094 C 87.898438 176.992188 83.078125 174.75 78.3125 174.363281 C 77.085938 174.265625 75.859375 174.289062 74.640625 174.4375 C 73.417969 174.585938 72.222656 174.847656 71.054688 175.234375 C 69.882812 175.617188 68.765625 176.113281 67.695312 176.71875 C 66.625 177.324219 65.621094 178.027344 64.691406 178.832031 C 62.898438 180.449219 61.464844 182.335938 60.398438 184.503906 C 59.332031 186.667969 58.707031 188.957031 58.519531 191.363281 C 58.101562 196.351562 60.039062 201.199219 62.863281 205.226562 C 65.835938 209.339844 69.324219 212.949219 73.335938 216.058594 C 77.238281 219.171875 81.445312 221.792969 85.960938 223.921875 C 90.476562 226.050781 95.179688 227.628906 100.0625 228.660156 C 101.226562 228.898438 102.394531 229.105469 103.566406 229.277344 C 103.753906 229.320312 103.945312 229.332031 104.132812 229.304688 C 104.324219 229.277344 104.503906 229.214844 104.671875 229.121094 C 104.835938 229.027344 104.980469 228.902344 105.101562 228.753906 C 105.222656 228.605469 105.3125 228.4375 105.367188 228.253906 C 105.417969 228.066406 105.429688 227.878906 105.40625 227.683594 C 105.382812 227.492188 105.320312 227.3125 105.226562 227.144531 C 105.128906 226.976562 105.007812 226.832031 104.855469 226.710938 C 104.703125 226.59375 104.53125 226.507812 104.347656 226.453125 Z M 104.347656 226.453125 " fill-opacity="1" fill-rule="nonzero"/><path fill="#cccccc" d="M 243.796875 162.871094 C 231.035156 162.6875 218.3125 163.011719 205.632812 163.839844 C 201.296875 164.125 197.546875 165.65625 197.546875 168.230469 C 197.546875 170.382812 201.269531 172.902344 205.632812 172.617188 C 218.308594 171.792969 231.027344 171.46875 243.796875 171.648438 C 254.203125 171.792969 254.199219 163.015625 243.796875 162.871094 Z M 243.796875 162.871094 " fill-opacity="1" fill-rule="nonzero"/><path fill="#bd316b" d="M 224.933594 171.210938 C 223.554688 171.210938 191.160156 171.160156 191.160156 166.6875 C 191.160156 162.214844 223.554688 162.160156 224.933594 162.160156 C 226.3125 162.160156 258.710938 162.214844 258.710938 166.6875 C 258.710938 171.160156 226.3125 171.210938 224.933594 171.210938 Z M 192.425781 166.6875 C 193.3125 168.042969 205.21875 169.964844 224.933594 169.964844 C 244.648438 169.964844 256.554688 168.042969 257.441406 166.6875 C 256.554688 165.332031 244.648438 163.410156 224.933594 163.410156 C 205.21875 163.410156 193.3125 165.332031 192.425781 166.6875 Z M 192.425781 166.6875 " fill-opacity="1" fill-rule="nonzero"/><path fill="#bd316b" d="M 327.71875 288.832031 C 334.890625 288.632812 343.816406 288.382812 350.691406 283.359375 C 351.714844 282.582031 352.644531 281.703125 353.476562 280.722656 C 354.308594 279.742188 355.023438 278.679688 355.621094 277.542969 C 356.222656 276.40625 356.691406 275.21875 357.03125 273.976562 C 357.371094 272.738281 357.570312 271.472656 357.636719 270.191406 C 357.777344 266.222656 356.34375 262.761719 353.597656 260.445312 C 350.007812 257.410156 344.761719 256.699219 339.113281 258.359375 L 344.96875 215.574219 L 340.667969 214.988281 L 333.785156 265.285156 L 337.375 263.636719 C 341.535156 261.730469 347.25 260.757812 350.796875 263.757812 C 351.683594 264.550781 352.34375 265.5 352.78125 266.605469 C 353.222656 267.707031 353.394531 268.851562 353.300781 270.039062 C 353.246094 270.992188 353.09375 271.933594 352.839844 272.855469 C 352.582031 273.777344 352.234375 274.664062 351.785156 275.511719 C 351.339844 276.359375 350.808594 277.148438 350.195312 277.882812 C 349.578125 278.613281 348.890625 279.273438 348.132812 279.859375 C 342.78125 283.765625 335.667969 284.269531 327.597656 284.496094 Z M 327.71875 288.832031 " fill-opacity="1" fill-rule="nonzero"/><path fill="#bd316b" d="M 292.46875 219.265625 L 315.835938 219.265625 L 315.835938 223.601562 L 292.46875 223.601562 Z M 292.46875 219.265625 " fill-opacity="1" fill-rule="nonzero"/><path fill="#bd316b" d="M 127.21875 202.410156 C 126.695312 202.410156 126.191406 202.320312 125.707031 202.136719 C 125.21875 201.957031 124.777344 201.695312 124.382812 201.359375 C 123.988281 201.019531 123.664062 200.625 123.410156 200.171875 C 123.15625 199.714844 122.988281 199.230469 122.90625 198.71875 L 121.480469 189.617188 C 121.4375 189.335938 121.421875 189.050781 121.433594 188.761719 C 121.445312 188.476562 121.484375 188.195312 121.550781 187.914062 C 121.621094 187.636719 121.714844 187.367188 121.835938 187.105469 C 121.953125 186.847656 122.097656 186.601562 122.269531 186.367188 C 122.4375 186.136719 122.628906 185.925781 122.839844 185.730469 C 123.050781 185.535156 123.277344 185.363281 123.523438 185.214844 C 123.765625 185.0625 124.023438 184.941406 124.292969 184.839844 C 124.5625 184.742188 124.839844 184.667969 125.121094 184.625 L 200.988281 172.738281 C 201.273438 172.695312 201.554688 172.679688 201.84375 172.691406 C 202.128906 172.703125 202.414062 172.742188 202.691406 172.8125 C 202.96875 172.878906 203.238281 172.972656 203.5 173.09375 C 203.761719 173.214844 204.007812 173.359375 204.238281 173.527344 C 204.46875 173.695312 204.683594 173.886719 204.875 174.097656 C 205.070312 174.308594 205.242188 174.535156 205.394531 174.78125 C 205.542969 175.023438 205.667969 175.28125 205.765625 175.550781 C 205.863281 175.820312 205.9375 176.097656 205.980469 176.378906 L 207.40625 185.480469 C 207.453125 185.765625 207.46875 186.050781 207.457031 186.335938 C 207.445312 186.621094 207.40625 186.90625 207.335938 187.183594 C 207.269531 187.460938 207.175781 187.730469 207.054688 187.992188 C 206.933594 188.253906 206.789062 188.5 206.621094 188.730469 C 206.453125 188.960938 206.261719 189.175781 206.050781 189.371094 C 205.839844 189.5625 205.613281 189.734375 205.367188 189.886719 C 205.121094 190.035156 204.867188 190.160156 204.597656 190.257812 C 204.328125 190.355469 204.050781 190.429688 203.765625 190.472656 L 127.902344 202.359375 C 127.675781 202.394531 127.445312 202.410156 127.21875 202.410156 Z M 127.21875 202.410156 " fill-opacity="1" fill-rule="nonzero"/><path fill="#ff95c1" d="M 127.65625 63.925781 C 127.65625 64.96875 127.605469 66.007812 127.503906 67.046875 C 127.402344 68.085938 127.246094 69.113281 127.042969 70.136719 C 126.839844 71.160156 126.589844 72.167969 126.285156 73.167969 C 125.984375 74.164062 125.632812 75.144531 125.234375 76.109375 C 124.832031 77.070312 124.386719 78.011719 123.898438 78.933594 C 123.40625 79.851562 122.871094 80.746094 122.289062 81.609375 C 121.710938 82.476562 121.089844 83.3125 120.429688 84.121094 C 119.769531 84.925781 119.070312 85.699219 118.332031 86.433594 C 117.59375 87.171875 116.824219 87.871094 116.015625 88.53125 C 115.210938 89.195312 114.375 89.8125 113.507812 90.394531 C 112.640625 90.972656 111.746094 91.507812 110.828125 92 C 109.90625 92.492188 108.964844 92.9375 108.003906 93.335938 C 107.039062 93.734375 106.058594 94.085938 105.0625 94.386719 C 104.0625 94.691406 103.054688 94.941406 102.03125 95.144531 C 101.007812 95.347656 99.976562 95.503906 98.941406 95.605469 C 97.902344 95.707031 96.863281 95.757812 95.820312 95.757812 C 94.777344 95.757812 93.738281 95.707031 92.699219 95.605469 C 91.660156 95.503906 90.632812 95.347656 89.609375 95.144531 C 88.585938 94.941406 87.574219 94.691406 86.578125 94.386719 C 85.578125 94.085938 84.597656 93.734375 83.636719 93.335938 C 82.671875 92.9375 81.730469 92.492188 80.8125 92 C 79.890625 91.507812 79 90.972656 78.132812 90.394531 C 77.265625 89.8125 76.429688 89.195312 75.621094 88.53125 C 74.816406 87.871094 74.042969 87.171875 73.308594 86.433594 C 72.570312 85.699219 71.871094 84.925781 71.210938 84.121094 C 70.546875 83.3125 69.925781 82.476562 69.347656 81.609375 C 68.769531 80.746094 68.234375 79.851562 67.742188 78.933594 C 67.25 78.011719 66.804688 77.070312 66.40625 76.109375 C 66.007812 75.144531 65.65625 74.164062 65.351562 73.167969 C 65.050781 72.167969 64.796875 71.160156 64.59375 70.136719 C 64.390625 69.113281 64.238281 68.085938 64.136719 67.046875 C 64.035156 66.007812 63.980469 64.96875 63.980469 63.925781 C 63.980469 62.882812 64.035156 61.84375 64.136719 60.808594 C 64.238281 59.769531 64.390625 58.738281 64.59375 57.71875 C 64.796875 56.695312 65.050781 55.683594 65.351562 54.6875 C 65.65625 53.6875 66.007812 52.707031 66.40625 51.746094 C 66.804688 50.78125 67.25 49.839844 67.742188 48.921875 C 68.234375 48.003906 68.769531 47.109375 69.347656 46.242188 C 69.925781 45.375 70.546875 44.539062 71.210938 43.734375 C 71.871094 42.925781 72.570312 42.15625 73.308594 41.417969 C 74.042969 40.683594 74.816406 39.984375 75.621094 39.320312 C 76.429688 38.660156 77.265625 38.039062 78.132812 37.460938 C 79 36.882812 79.890625 36.347656 80.8125 35.855469 C 81.730469 35.363281 82.671875 34.917969 83.636719 34.519531 C 84.597656 34.121094 85.578125 33.769531 86.578125 33.464844 C 87.574219 33.164062 88.585938 32.910156 89.609375 32.707031 C 90.632812 32.503906 91.660156 32.351562 92.699219 32.25 C 93.738281 32.148438 94.777344 32.097656 95.820312 32.097656 C 96.863281 32.097656 97.902344 32.148438 98.941406 32.25 C 99.976562 32.351562 101.007812 32.503906 102.03125 32.707031 C 103.054688 32.910156 104.0625 33.164062 105.0625 33.464844 C 106.058594 33.769531 107.039062 34.121094 108.003906 34.519531 C 108.964844 34.917969 109.90625 35.363281 110.828125 35.855469 C 111.746094 36.347656 112.640625 36.882812 113.507812 37.460938 C 114.375 38.039062 115.210938 38.660156 116.015625 39.320312 C 116.824219 39.984375 117.59375 40.683594 118.332031 41.417969 C 119.070312 42.15625 119.769531 42.925781 120.429688 43.734375 C 121.089844 44.539062 121.710938 45.375 122.289062 46.242188 C 122.871094 47.109375 123.40625 48.003906 123.898438 48.921875 C 124.386719 49.839844 124.832031 50.78125 125.234375 51.746094 C 125.632812 52.707031 125.984375 53.6875 126.285156 54.6875 C 126.589844 55.683594 126.839844 56.695312 127.042969 57.71875 C 127.246094 58.738281 127.402344 59.769531 127.503906 60.808594 C 127.605469 61.84375 127.65625 62.882812 127.65625 63.925781 Z M 127.65625 63.925781 " fill-opacity="1" fill-rule="nonzero"/><path fill="#bd316b" d="M 113.84375 72.164062 C 114.875 71.804688 115.785156 71.246094 116.570312 70.492188 C 117.09375 69.957031 117.476562 69.332031 117.722656 68.625 C 117.96875 67.917969 118.054688 67.191406 117.980469 66.445312 C 117.933594 65.914062 117.773438 65.421875 117.5 64.964844 C 117.222656 64.507812 116.859375 64.132812 116.410156 63.847656 C 115.257812 63.140625 113.734375 63.164062 112.199219 63.878906 L 112.019531 51.453125 L 110.773438 51.472656 L 110.980469 66.078125 L 111.933594 65.453125 C 113.035156 64.734375 114.617188 64.210938 115.757812 64.910156 C 116.359375 65.308594 116.6875 65.867188 116.738281 66.589844 C 116.792969 67.144531 116.726562 67.683594 116.542969 68.210938 C 116.363281 68.738281 116.078125 69.203125 115.691406 69.605469 C 114.339844 70.949219 112.335938 71.398438 110.050781 71.808594 L 110.269531 73.039062 C 111.488281 72.855469 112.679688 72.5625 113.84375 72.164062 Z M 113.84375 72.164062 " fill-opacity="1" fill-rule="nonzero"/><path fill="#bd316b" d="M 118.222656 51.582031 L 124.871094 50.578125 L 125.058594 51.8125 L 118.410156 52.816406 Z M 118.222656 51.582031 " fill-opacity="1" fill-rule="nonzero"/><path fill="#bd316b" d="M 97.238281 54.761719 L 103.886719 53.753906 L 104.070312 54.988281 L 97.421875 55.996094 Z M 97.238281 54.761719 " fill-opacity="1" fill-rule="nonzero"/><path fill="#bd316b" d="M 116.859375 201.855469 C 116.285156 201.855469 115.726562 201.769531 115.179688 201.597656 C 114.636719 201.425781 114.125 201.175781 113.65625 200.847656 C 113.1875 200.523438 112.773438 200.132812 112.421875 199.683594 C 112.070312 199.230469 111.796875 198.738281 111.59375 198.203125 L 89.644531 139.425781 C 89.3125 138.535156 89.023438 137.632812 88.78125 136.714844 C 88.539062 135.796875 88.34375 134.867188 88.191406 133.929688 C 88.039062 132.992188 87.933594 132.050781 87.875 131.101562 C 87.816406 130.152344 87.804688 129.207031 87.835938 128.257812 C 87.871094 127.308594 87.953125 126.363281 88.078125 125.421875 C 88.207031 124.480469 88.378906 123.546875 88.597656 122.621094 C 88.816406 121.699219 89.078125 120.785156 89.386719 119.886719 C 89.695312 118.988281 90.046875 118.109375 90.441406 117.242188 C 90.835938 116.378906 91.269531 115.535156 91.746094 114.714844 C 92.222656 113.894531 92.738281 113.097656 93.296875 112.328125 C 93.851562 111.554688 94.441406 110.8125 95.070312 110.101562 C 95.699219 109.390625 96.359375 108.707031 97.054688 108.0625 C 97.75 107.414062 98.472656 106.800781 99.226562 106.222656 C 99.984375 105.648438 100.765625 105.109375 101.570312 104.609375 C 102.378906 104.109375 103.210938 103.648438 104.0625 103.230469 C 104.914062 102.8125 105.785156 102.4375 106.675781 102.101562 L 124.523438 95.4375 C 125.222656 95.175781 125.941406 95.058594 126.683594 95.085938 C 127.429688 95.109375 128.140625 95.277344 128.816406 95.589844 C 129.492188 95.890625 130.082031 96.308594 130.589844 96.851562 C 131.097656 97.390625 131.476562 98.007812 131.734375 98.699219 L 172.398438 175.457031 C 172.53125 175.804688 172.625 176.160156 172.6875 176.523438 C 172.75 176.890625 172.773438 177.257812 172.765625 177.628906 C 172.753906 178 172.707031 178.363281 172.621094 178.726562 C 172.539062 179.085938 172.421875 179.433594 172.269531 179.773438 C 172.117188 180.109375 171.933594 180.429688 171.714844 180.730469 C 171.5 181.03125 171.257812 181.308594 170.988281 181.5625 C 170.714844 181.816406 170.421875 182.039062 170.109375 182.234375 C 169.792969 182.429688 169.464844 182.59375 169.117188 182.722656 L 118.824219 201.5 C 118.191406 201.734375 117.535156 201.855469 116.859375 201.855469 Z M 116.859375 201.855469 " fill-opacity="1" fill-rule="nonzero"/><path fill="#e6e6e6" d="M 119.109375 97.460938 L 159.453125 151.402344 L 132.152344 98.027344 C 132.042969 97.714844 131.898438 97.417969 131.726562 97.132812 C 131.554688 96.851562 131.359375 96.585938 131.136719 96.34375 C 130.914062 96.097656 130.667969 95.878906 130.402344 95.679688 C 130.132812 95.484375 129.851562 95.316406 129.550781 95.175781 C 129.25 95.035156 128.941406 94.925781 128.617188 94.847656 C 128.296875 94.765625 127.96875 94.71875 127.640625 94.707031 C 127.308594 94.691406 126.980469 94.707031 126.652344 94.757812 C 126.324219 94.808594 126.003906 94.890625 125.695312 95.003906 Z M 119.109375 97.460938 " fill-opacity="1" fill-rule="nonzero"/><path fill="#ff95c1" d="M 182.988281 138.425781 L 110.953125 133.785156 C 110.386719 133.75 109.828125 133.660156 109.277344 133.511719 C 108.726562 133.363281 108.199219 133.167969 107.6875 132.914062 C 107.175781 132.664062 106.695312 132.367188 106.242188 132.019531 C 105.792969 131.675781 105.378906 131.289062 105.003906 130.859375 C 104.628906 130.433594 104.296875 129.972656 104.011719 129.480469 C 103.726562 128.988281 103.492188 128.472656 103.308594 127.933594 C 103.125 127.398438 102.996094 126.847656 102.921875 126.28125 C 102.847656 125.71875 102.828125 125.152344 102.863281 124.585938 C 102.902344 124.015625 102.992188 123.457031 103.140625 122.910156 C 103.285156 122.359375 103.484375 121.828125 103.734375 121.320312 C 103.988281 120.808594 104.285156 120.328125 104.632812 119.875 C 104.976562 119.425781 105.363281 119.011719 105.789062 118.636719 C 106.21875 118.257812 106.675781 117.929688 107.171875 117.644531 C 107.664062 117.359375 108.179688 117.125 108.714844 116.941406 C 109.253906 116.757812 109.804688 116.628906 110.371094 116.554688 C 110.933594 116.480469 111.5 116.460938 112.066406 116.496094 L 184.101562 121.136719 C 184.371094 121.152344 184.632812 121.195312 184.886719 121.265625 C 185.144531 121.332031 185.394531 121.425781 185.632812 121.542969 C 185.871094 121.660156 186.097656 121.800781 186.308594 121.960938 C 186.519531 122.125 186.714844 122.304688 186.890625 122.503906 C 187.066406 122.707031 187.222656 122.921875 187.355469 123.152344 C 187.488281 123.382812 187.597656 123.625 187.683594 123.875 C 187.769531 124.128906 187.828125 124.386719 187.863281 124.648438 C 187.898438 124.914062 187.910156 125.179688 187.890625 125.445312 L 187.300781 134.636719 C 187.28125 134.902344 187.238281 135.164062 187.171875 135.421875 C 187.101562 135.679688 187.007812 135.929688 186.890625 136.167969 C 186.773438 136.40625 186.632812 136.632812 186.472656 136.84375 C 186.308594 137.054688 186.128906 137.25 185.929688 137.425781 C 185.730469 137.601562 185.515625 137.753906 185.285156 137.886719 C 185.054688 138.023438 184.8125 138.132812 184.558594 138.21875 C 184.308594 138.304688 184.050781 138.363281 183.785156 138.398438 C 183.519531 138.433594 183.253906 138.441406 182.988281 138.425781 Z M 182.988281 138.425781 " fill-opacity="1" fill-rule="nonzero"/><path fill="#bd316b" d="M 163.742188 141.398438 C 163.644531 141.398438 163.550781 141.398438 163.453125 141.390625 L 104.300781 137.582031 C 104.015625 137.5625 103.734375 137.515625 103.457031 137.441406 C 103.179688 137.367188 102.914062 137.269531 102.65625 137.140625 C 102.398438 137.015625 102.15625 136.863281 101.925781 136.691406 C 101.699219 136.515625 101.492188 136.320312 101.300781 136.105469 C 101.113281 135.890625 100.945312 135.660156 100.800781 135.410156 C 100.65625 135.160156 100.539062 134.902344 100.445312 134.628906 C 100.355469 134.359375 100.289062 134.082031 100.25 133.796875 C 100.214844 133.511719 100.203125 133.226562 100.222656 132.941406 L 101.234375 117.238281 C 101.253906 116.953125 101.300781 116.671875 101.371094 116.394531 C 101.445312 116.117188 101.546875 115.847656 101.671875 115.589844 C 101.800781 115.332031 101.949219 115.089844 102.125 114.863281 C 102.300781 114.636719 102.496094 114.425781 102.710938 114.238281 C 102.925781 114.046875 103.15625 113.882812 103.40625 113.738281 C 103.652344 113.59375 103.914062 113.476562 104.1875 113.382812 C 104.457031 113.292969 104.734375 113.226562 105.019531 113.1875 C 105.304688 113.152344 105.589844 113.140625 105.875 113.160156 L 165.027344 116.96875 C 165.3125 116.988281 165.59375 117.035156 165.871094 117.109375 C 166.148438 117.183594 166.417969 117.28125 166.675781 117.410156 C 166.929688 117.535156 167.175781 117.6875 167.402344 117.859375 C 167.628906 118.035156 167.839844 118.230469 168.027344 118.445312 C 168.214844 118.660156 168.382812 118.894531 168.527344 119.140625 C 168.671875 119.390625 168.789062 119.648438 168.882812 119.921875 C 168.972656 120.191406 169.039062 120.46875 169.078125 120.753906 C 169.117188 121.039062 169.125 121.324219 169.109375 121.609375 L 168.097656 137.3125 C 168.070312 137.730469 167.980469 138.140625 167.835938 138.535156 C 167.691406 138.933594 167.492188 139.296875 167.238281 139.636719 C 166.988281 139.976562 166.695312 140.269531 166.355469 140.523438 C 166.019531 140.777344 165.652344 140.976562 165.257812 141.125 C 164.769531 141.308594 164.261719 141.398438 163.742188 141.398438 Z M 163.742188 141.398438 " fill-opacity="1" fill-rule="nonzero"/><g clip-path="url(#19e407df39)"><path fill="#bd316b" d="M 95.453125 42.761719 C 99.644531 39.160156 105.394531 42.378906 110.199219 41.816406 C 114.792969 41.277344 118.421875 37.15625 119.347656 32.777344 C 120.429688 27.667969 117.777344 22.550781 113.871094 19.367188 C 109.589844 15.878906 103.910156 14.878906 98.53125 15.523438 C 92.363281 16.261719 86.726562 19.136719 81.664062 22.613281 C 76.765625 25.875 72.304688 29.65625 68.28125 33.953125 C 64.691406 37.917969 61.648438 42.640625 60.675781 47.976562 C 59.792969 52.824219 60.46875 58.195312 63.335938 62.304688 C 64.882812 64.445312 66.851562 66.066406 69.25 67.175781 C 71.707031 68.382812 74.328125 69.246094 76.710938 70.609375 C 80.3125 72.671875 83.8125 76.949219 82.683594 81.402344 C 82.4375 82.386719 81.972656 83.261719 81.292969 84.015625 C 80.488281 84.910156 79.035156 83.730469 79.84375 82.832031 C 81.261719 81.257812 81.203125 79.15625 80.449219 77.277344 C 80 76.21875 79.386719 75.261719 78.613281 74.410156 C 77.839844 73.558594 76.945312 72.859375 75.933594 72.3125 C 73.441406 70.886719 70.6875 70.007812 68.132812 68.710938 C 65.652344 67.507812 63.589844 65.796875 61.945312 63.582031 C 58.890625 59.335938 57.972656 53.804688 58.667969 48.691406 C 59.417969 43.15625 62.261719 38.125 65.828125 33.910156 C 69.707031 29.324219 74.476562 25.441406 79.34375 21.953125 C 84.570312 18.210938 90.34375 15.046875 96.730469 13.902344 C 102.269531 12.910156 108.269531 13.519531 113.113281 16.539062 C 117.632812 19.355469 121.097656 24.199219 121.441406 29.609375 C 121.503906 30.84375 121.402344 32.0625 121.140625 33.265625 C 120.878906 34.46875 120.460938 35.621094 119.890625 36.714844 C 119.324219 37.808594 118.621094 38.808594 117.785156 39.714844 C 116.949219 40.621094 116.007812 41.402344 114.964844 42.058594 C 112.769531 43.371094 110.394531 43.921875 107.84375 43.707031 C 105.179688 43.539062 102.519531 42.722656 99.839844 42.949219 C 98.597656 43.023438 97.5 43.46875 96.554688 44.277344 C 95.636719 45.0625 94.546875 43.539062 95.453125 42.761719 Z M 95.453125 42.761719 " fill-opacity="1" fill-rule="nonzero"/></g><g clip-path="url(#8ef17b9e64)"><path fill="#bd316b" d="M 461.816406 386.179688 L 0.933594 386.179688 C 0.730469 386.179688 0.554688 386.109375 0.410156 385.964844 C 0.261719 385.816406 0.191406 385.644531 0.191406 385.4375 C 0.191406 385.234375 0.261719 385.058594 0.410156 384.914062 C 0.554688 384.765625 0.730469 384.695312 0.933594 384.695312 L 461.816406 384.695312 C 462.023438 384.695312 462.195312 384.765625 462.34375 384.914062 C 462.488281 385.058594 462.558594 385.234375 462.558594 385.4375 C 462.558594 385.644531 462.488281 385.816406 462.34375 385.964844 C 462.195312 386.109375 462.023438 386.179688 461.816406 386.179688 Z M 461.816406 386.179688 " fill-opacity="1" fill-rule="nonzero"/></g></svg>