<svg xmlns="http://www.w3.org/2000/svg" xmlns:xlink="http://www.w3.org/1999/xlink" width="617" zoomAndPan="magnify" viewBox="0 0 462.75 399.74999" height="533" preserveAspectRatio="xMidYMid meet" version="1.0"><path fill="#ffd2e5" d="M 130.046875 39.886719 C 202.53125 -0.00390625 316.265625 27.175781 361.683594 78.160156 C 387.546875 107.195312 399.75 133.25 408.027344 185.730469 C 418.308594 250.917969 388.867188 329.128906 311.683594 362.925781 C 227.671875 399.714844 129.519531 365.648438 85.554688 309.058594 C 44.4375 256.128906 52.667969 193.8125 55.609375 171.546875 C 59.058594 145.429688 69.316406 73.308594 130.046875 39.886719 " fill-opacity="1" fill-rule="nonzero"/><path fill="#000000" d="M 298.828125 50.390625 C 298.730469 50.390625 298.632812 50.367188 298.539062 50.320312 C 294.449219 48.261719 290.238281 46.285156 286.027344 44.453125 C 283.234375 43.234375 280.390625 42.0625 277.578125 40.964844 C 277.246094 40.835938 277.082031 40.457031 277.214844 40.125 C 277.34375 39.792969 277.71875 39.632812 278.050781 39.761719 C 280.875 40.867188 283.734375 42.046875 286.542969 43.269531 C 290.777344 45.109375 295.007812 47.097656 299.117188 49.171875 C 299.4375 49.328125 299.566406 49.71875 299.40625 50.039062 C 299.292969 50.261719 299.0625 50.390625 298.828125 50.390625 " fill-opacity="1" fill-rule="nonzero"/><path fill="#000000" d="M 378.257812 111.222656 C 378.0625 111.222656 377.871094 111.136719 377.742188 110.96875 C 355.007812 80.855469 323.230469 56.339844 285.851562 40.078125 C 283.035156 38.855469 280.167969 37.667969 277.332031 36.554688 C 277 36.425781 276.832031 36.050781 276.964844 35.71875 C 277.09375 35.386719 277.464844 35.222656 277.800781 35.355469 C 280.652344 36.46875 283.535156 37.664062 286.367188 38.894531 C 323.949219 55.246094 355.902344 79.898438 378.773438 110.1875 C 378.988281 110.472656 378.933594 110.878906 378.648438 111.09375 C 378.53125 111.179688 378.394531 111.222656 378.257812 111.222656 " fill-opacity="1" fill-rule="nonzero"/><path fill="#000000" d="M 268.121094 32.304688 C 267.21875 32.648438 266.5 33.324219 266.105469 34.210938 C 265.707031 35.097656 265.679688 36.089844 266.03125 37.003906 C 266.75 38.882812 268.855469 39.832031 270.726562 39.117188 C 271.632812 38.773438 272.347656 38.097656 272.742188 37.210938 C 273.140625 36.324219 273.167969 35.332031 272.820312 34.417969 C 272.097656 32.539062 269.988281 31.59375 268.121094 32.304688 Z M 269.441406 40.644531 C 267.457031 40.644531 265.574219 39.433594 264.824219 37.464844 C 264.347656 36.230469 264.386719 34.886719 264.921875 33.679688 C 265.464844 32.484375 266.433594 31.566406 267.660156 31.097656 C 270.195312 30.128906 273.050781 31.410156 274.023438 33.957031 C 274.5 35.191406 274.460938 36.535156 273.921875 37.742188 C 273.382812 38.9375 272.417969 39.855469 271.191406 40.324219 C 270.617188 40.542969 270.027344 40.644531 269.441406 40.644531 " fill-opacity="1" fill-rule="nonzero"/><path fill="#000000" d="M 363.046875 107.417969 C 362.890625 108.214844 362.671875 109.410156 362.480469 110.6875 L 365.855469 109.539062 Z M 361.695312 112.285156 C 361.550781 112.285156 361.402344 112.234375 361.289062 112.140625 C 361.117188 112 361.027344 111.777344 361.054688 111.558594 C 361.402344 108.859375 361.984375 106.175781 361.988281 106.148438 C 362.035156 105.933594 362.1875 105.757812 362.394531 105.679688 C 362.601562 105.605469 362.832031 105.640625 363.007812 105.769531 L 367.605469 109.238281 C 367.792969 109.382812 367.890625 109.621094 367.855469 109.859375 C 367.816406 110.09375 367.648438 110.289062 367.421875 110.367188 L 361.90625 112.25 C 361.835938 112.273438 361.765625 112.285156 361.695312 112.285156 " fill-opacity="1" fill-rule="nonzero"/><path fill="#000000" d="M 330.371094 77.699219 C 330.070312 77.699219 329.804688 77.488281 329.738281 77.179688 C 329.355469 75.273438 328.695312 74.097656 327.84375 73.785156 C 326.984375 73.46875 325.957031 74.046875 324.960938 74.613281 C 323.816406 75.257812 322.632812 75.925781 321.492188 75.335938 C 320.339844 74.738281 320.226562 73.332031 320.121094 72.089844 C 320.03125 71.023438 319.953125 70.015625 319.339844 69.648438 C 318.621094 69.222656 317.410156 69.785156 316.242188 70.324219 C 314.890625 70.957031 313.492188 71.605469 312.46875 70.789062 C 311.679688 70.164062 311.761719 69.171875 311.832031 68.296875 C 311.894531 67.527344 311.949219 66.796875 311.503906 66.328125 C 311.085938 65.882812 310.449219 65.90625 309.367188 65.992188 C 308.449219 66.0625 307.304688 66.152344 306.089844 65.769531 C 303.933594 65.089844 302.164062 63.109375 300.832031 59.890625 C 300.695312 59.558594 300.851562 59.179688 301.183594 59.042969 C 301.511719 58.910156 301.890625 59.066406 302.027344 59.394531 C 303.203125 62.246094 304.703125 63.976562 306.476562 64.539062 C 307.453125 64.84375 308.375 64.773438 309.265625 64.707031 C 310.402344 64.617188 311.582031 64.523438 312.441406 65.441406 C 313.285156 66.328125 313.191406 67.476562 313.117188 68.402344 C 313.058594 69.136719 313.039062 69.59375 313.273438 69.78125 C 313.671875 70.097656 314.75 69.597656 315.699219 69.15625 C 317.105469 68.503906 318.695312 67.761719 320 68.542969 C 321.183594 69.246094 321.300781 70.699219 321.40625 71.984375 C 321.492188 72.980469 321.570312 73.921875 322.089844 74.191406 C 322.605469 74.457031 323.441406 73.988281 324.328125 73.488281 C 325.519531 72.8125 326.867188 72.050781 328.289062 72.570312 C 329.625 73.0625 330.511719 74.488281 331.007812 76.925781 C 331.078125 77.277344 330.851562 77.617188 330.503906 77.6875 C 330.460938 77.695312 330.414062 77.699219 330.371094 77.699219 " fill-opacity="1" fill-rule="nonzero"/><path fill="#000000" d="M 244.773438 369.589844 C 243.867188 369.589844 243.074219 369.546875 242.410156 369.464844 C 242.054688 369.421875 241.800781 369.097656 241.847656 368.742188 C 241.894531 368.390625 242.21875 368.140625 242.566406 368.183594 C 251.523438 369.308594 286.144531 362.035156 300.941406 349.324219 C 301.210938 349.09375 301.621094 349.125 301.851562 349.394531 C 302.085938 349.664062 302.054688 350.070312 301.78125 350.304688 C 287.546875 362.53125 256.621094 369.589844 244.773438 369.589844 " fill-opacity="1" fill-rule="nonzero"/><path fill="#000000" d="M 257.441406 375.226562 C 257.109375 375.226562 256.828125 374.972656 256.796875 374.632812 C 256.769531 374.277344 257.03125 373.96875 257.386719 373.9375 C 269.019531 372.972656 280.210938 369.492188 290.648438 363.59375 C 290.957031 363.414062 291.351562 363.527344 291.527344 363.835938 C 291.703125 364.148438 291.59375 364.542969 291.285156 364.714844 C 280.683594 370.710938 269.3125 374.246094 257.496094 375.222656 C 257.476562 375.226562 257.457031 375.226562 257.441406 375.226562 " fill-opacity="1" fill-rule="nonzero"/><path fill="#ffffff" d="M 302.476562 317.699219 C 245.128906 295.589844 259.164062 161.726562 262.667969 96.058594 C 266.175781 30.390625 233.335938 22.171875 233.335938 22.171875 L 52.472656 22.171875 C 52.472656 22.171875 85.3125 30.390625 81.808594 96.058594 C 78.304688 161.726562 64.265625 295.589844 121.613281 317.699219 L 302.476562 317.699219 " fill-opacity="1" fill-rule="nonzero"/><path fill="#000000" d="M 121.734375 317.054688 L 299.328125 317.054688 C 288.304688 311.847656 279.40625 301.957031 272.851562 287.605469 C 266.746094 274.25 262.476562 256.558594 260.160156 235.027344 C 255.914062 195.542969 258.792969 149.042969 260.894531 115.089844 C 261.316406 108.296875 261.710938 101.878906 262.027344 96.023438 C 263.824219 62.296875 255.828125 44.160156 248.800781 34.882812 C 241.632812 25.414062 234.054688 23.050781 233.25 22.816406 L 55.859375 22.816406 C 59.023438 24.367188 64.066406 27.625 68.96875 34.101562 C 76.125 43.550781 84.273438 61.976562 82.453125 96.09375 C 82.140625 101.949219 81.742188 108.371094 81.324219 115.164062 C 79.222656 149.074219 76.347656 195.511719 80.585938 234.886719 C 82.886719 256.28125 87.117188 273.835938 93.164062 287.070312 C 100.121094 302.300781 109.734375 312.386719 121.734375 317.054688 Z M 302.476562 318.347656 L 121.613281 318.347656 C 121.535156 318.347656 121.457031 318.332031 121.382812 318.304688 C 109 313.53125 99.113281 303.203125 91.988281 287.605469 C 85.886719 274.25 81.617188 256.558594 79.300781 235.023438 C 75.050781 195.542969 77.929688 149.039062 80.035156 115.085938 C 80.453125 108.292969 80.851562 101.878906 81.164062 96.023438 C 82.964844 62.296875 74.964844 44.160156 67.941406 34.882812 C 60.394531 24.914062 52.398438 22.820312 52.316406 22.800781 C 52 22.71875 51.792969 22.417969 51.832031 22.09375 C 51.875 21.769531 52.148438 21.527344 52.476562 21.527344 L 233.335938 21.527344 C 233.390625 21.527344 233.441406 21.53125 233.492188 21.546875 C 233.835938 21.632812 242.011719 23.777344 249.832031 34.101562 C 256.988281 43.550781 265.132812 61.976562 263.3125 96.09375 C 263.003906 101.953125 262.605469 108.371094 262.183594 115.167969 C 260.082031 149.074219 257.207031 195.515625 261.445312 234.886719 C 263.75 256.28125 267.980469 273.839844 274.023438 287.070312 C 281.003906 302.347656 290.652344 312.449219 302.710938 317.097656 C 303 317.207031 303.167969 317.511719 303.113281 317.820312 C 303.054688 318.125 302.785156 318.347656 302.476562 318.347656 " fill-opacity="1" fill-rule="nonzero"/><path fill="#ffd2e5" d="M 105.15625 157.550781 L 228.988281 157.550781 C 229.449219 157.550781 229.820312 157.175781 229.820312 156.71875 L 229.820312 147.074219 C 229.820312 146.613281 229.449219 146.242188 228.988281 146.242188 L 105.15625 146.242188 C 104.695312 146.242188 104.324219 146.613281 104.324219 147.074219 L 104.324219 156.71875 C 104.324219 157.175781 104.695312 157.550781 105.15625 157.550781 " fill-opacity="1" fill-rule="nonzero"/><path fill="#ffd2e5" d="M 108.742188 122.726562 L 232.574219 122.726562 C 233.03125 122.726562 233.40625 122.351562 233.40625 121.894531 L 233.40625 112.25 C 233.40625 111.789062 233.03125 111.417969 232.574219 111.417969 L 108.742188 111.417969 C 108.28125 111.417969 107.910156 111.789062 107.910156 112.25 L 107.910156 121.894531 C 107.910156 122.351562 108.28125 122.726562 108.742188 122.726562 " fill-opacity="1" fill-rule="nonzero"/><path fill="#ffd2e5" d="M 118.730469 70.492188 L 226.140625 70.492188 C 226.597656 70.492188 226.972656 70.121094 226.972656 69.660156 L 226.972656 54.671875 C 226.972656 54.210938 226.597656 53.839844 226.140625 53.839844 L 118.730469 53.839844 C 118.269531 53.839844 117.898438 54.210938 117.898438 54.671875 L 117.898438 69.660156 C 117.898438 70.121094 118.269531 70.492188 118.730469 70.492188 " fill-opacity="1" fill-rule="nonzero"/><path fill="#ffd2e5" d="M 102.929688 193.109375 L 227.042969 193.109375 C 227.507812 193.109375 227.878906 192.734375 227.878906 192.273438 L 227.878906 182.632812 C 227.878906 182.171875 227.507812 181.800781 227.042969 181.800781 L 102.929688 181.800781 C 102.472656 181.800781 102.097656 182.171875 102.097656 182.632812 L 102.097656 192.273438 C 102.097656 192.734375 102.472656 193.109375 102.929688 193.109375 " fill-opacity="1" fill-rule="nonzero"/><path fill="#ffd2e5" d="M 104.917969 227.117188 L 228.242188 227.117188 C 228.699219 227.117188 229.070312 226.742188 229.070312 226.285156 L 229.070312 216.636719 C 229.070312 216.179688 228.699219 215.808594 228.242188 215.808594 L 104.917969 215.808594 C 104.457031 215.808594 104.085938 216.179688 104.085938 216.636719 L 104.085938 226.285156 C 104.085938 226.742188 104.457031 227.117188 104.917969 227.117188 " fill-opacity="1" fill-rule="nonzero"/><path fill="#ffd2e5" d="M 112.625 260.152344 L 242.496094 260.152344 C 242.964844 260.152344 243.347656 259.769531 243.347656 259.296875 L 243.347656 249.695312 C 243.347656 249.226562 242.964844 248.84375 242.496094 248.84375 L 112.625 248.84375 C 112.15625 248.84375 111.773438 249.226562 111.773438 249.695312 L 111.773438 259.296875 C 111.773438 259.769531 112.15625 260.152344 112.625 260.152344 " fill-opacity="1" fill-rule="nonzero"/><path fill="#ff95c1" d="M 388.152344 328.609375 L 166.003906 328.609375 C 164.808594 328.609375 163.839844 327.59375 163.839844 326.339844 L 163.839844 176.378906 C 163.839844 171.167969 167.890625 166.957031 172.859375 167 L 393.269531 169.054688 L 393.253906 322.816406 C 393.253906 326.015625 390.96875 328.609375 388.152344 328.609375 " fill-opacity="1" fill-rule="nonzero"/><path fill="#bd316b" d="M 282.804688 188.761719 L 155.023438 188.101562 C 153.234375 188.09375 152.058594 186.179688 152.8125 184.511719 L 190.363281 131.789062 C 191.191406 130.628906 192.511719 129.949219 193.910156 129.980469 C 208.957031 130.285156 302.976562 130.527344 302.976562 130.527344 L 282.804688 188.761719 " fill-opacity="1" fill-rule="nonzero"/><path fill="#ffd2e5" d="M 197.871094 260.761719 L 213.320312 260.761719 C 214.078125 260.761719 214.691406 260.144531 214.691406 259.390625 L 214.691406 235.675781 C 214.691406 234.917969 214.078125 234.300781 213.320312 234.300781 L 197.871094 234.300781 C 197.113281 234.300781 196.5 234.917969 196.5 235.675781 L 196.5 259.390625 C 196.5 260.144531 197.113281 260.761719 197.871094 260.761719 " fill-opacity="1" fill-rule="nonzero"/><path fill="#ffd2e5" d="M 176.667969 260.761719 L 191.839844 260.761719 C 192.671875 260.761719 193.351562 260.085938 193.351562 259.25 L 193.351562 235.8125 C 193.351562 234.980469 192.671875 234.300781 191.839844 234.300781 L 176.667969 234.300781 C 175.832031 234.300781 175.15625 234.980469 175.15625 235.8125 L 175.15625 259.25 C 175.15625 260.085938 175.832031 260.761719 176.667969 260.761719 " fill-opacity="1" fill-rule="nonzero"/><path fill="#ffd2e5" d="M 197.480469 290.15625 L 213.710938 290.15625 C 214.253906 290.15625 214.691406 289.71875 214.691406 289.175781 L 214.691406 264.679688 C 214.691406 264.136719 214.253906 263.699219 213.710938 263.699219 L 197.480469 263.699219 C 196.9375 263.699219 196.5 264.136719 196.5 264.679688 L 196.5 289.175781 C 196.5 289.71875 196.9375 290.15625 197.480469 290.15625 " fill-opacity="1" fill-rule="nonzero"/><path fill="#ffd2e5" d="M 176.707031 290.15625 L 191.800781 290.15625 C 192.65625 290.15625 193.351562 289.464844 193.351562 288.609375 L 193.351562 265.25 C 193.351562 264.394531 192.65625 263.699219 191.800781 263.699219 L 176.707031 263.699219 C 175.851562 263.699219 175.15625 264.394531 175.15625 265.25 L 175.15625 288.609375 C 175.15625 289.464844 175.851562 290.15625 176.707031 290.15625 " fill-opacity="1" fill-rule="nonzero"/><path fill="#ff95c1" d="M 229.925781 324.160156 L 229.011719 171.082031 L 317.511719 129.632812 L 402.0625 171.691406 L 400.382812 326.558594 C 400.332031 328.652344 398.605469 330.320312 396.511719 330.300781 L 234.617188 328.890625 C 232.019531 328.867188 229.925781 326.753906 229.925781 324.160156 " fill-opacity="1" fill-rule="nonzero"/><path fill="#000000" d="M 229.660156 171.492188 L 230.570312 324.15625 C 230.570312 324.15625 230.570312 324.160156 230.570312 324.160156 C 230.570312 326.390625 232.390625 328.226562 234.625 328.242188 L 396.519531 329.65625 C 398.246094 329.679688 399.695312 328.273438 399.738281 326.542969 L 401.414062 172.085938 L 317.507812 130.347656 Z M 396.546875 330.945312 C 396.53125 330.945312 396.519531 330.945312 396.503906 330.945312 L 234.613281 329.535156 C 231.671875 329.507812 229.28125 327.101562 229.28125 324.164062 L 228.367188 171.085938 C 228.363281 170.832031 228.507812 170.601562 228.738281 170.496094 L 317.242188 129.046875 C 317.417969 128.964844 317.625 128.964844 317.800781 129.054688 L 402.351562 171.109375 C 402.574219 171.21875 402.714844 171.449219 402.710938 171.695312 L 401.03125 326.566406 C 400.972656 328.992188 398.960938 330.945312 396.546875 330.945312 " fill-opacity="1" fill-rule="nonzero"/><path fill="#ffd2e5" d="M 371.617188 260.238281 L 387.0625 260.238281 C 387.820312 260.238281 388.433594 259.625 388.433594 258.867188 L 388.433594 235.191406 C 388.433594 234.433594 387.820312 233.820312 387.0625 233.820312 L 371.617188 233.820312 C 370.855469 233.820312 370.242188 234.433594 370.242188 235.191406 L 370.242188 258.867188 C 370.242188 259.625 370.855469 260.238281 371.617188 260.238281 " fill-opacity="1" fill-rule="nonzero"/><path fill="#ffd2e5" d="M 350.410156 260.238281 L 365.582031 260.238281 C 366.414062 260.238281 367.089844 259.5625 367.089844 258.726562 L 367.089844 235.332031 C 367.089844 234.496094 366.414062 233.820312 365.582031 233.820312 L 350.410156 233.820312 C 349.574219 233.820312 348.898438 234.496094 348.898438 235.332031 L 348.898438 258.726562 C 348.898438 259.5625 349.574219 260.238281 350.410156 260.238281 " fill-opacity="1" fill-rule="nonzero"/><path fill="#ffd2e5" d="M 371.222656 289.589844 L 387.453125 289.589844 C 387.996094 289.589844 388.433594 289.152344 388.433594 288.609375 L 388.433594 264.152344 C 388.433594 263.613281 387.996094 263.171875 387.453125 263.171875 L 371.222656 263.171875 C 370.679688 263.171875 370.242188 263.613281 370.242188 264.152344 L 370.242188 288.609375 C 370.242188 289.152344 370.679688 289.589844 371.222656 289.589844 " fill-opacity="1" fill-rule="nonzero"/><path fill="#ffd2e5" d="M 350.445312 289.589844 L 365.539062 289.589844 C 366.398438 289.589844 367.089844 288.898438 367.089844 288.042969 L 367.089844 264.722656 C 367.089844 263.867188 366.398438 263.171875 365.539062 263.171875 L 350.445312 263.171875 C 349.589844 263.171875 348.898438 263.867188 348.898438 264.722656 L 348.898438 288.042969 C 348.898438 288.898438 349.589844 289.589844 350.445312 289.589844 " fill-opacity="1" fill-rule="nonzero"/><path fill="#ffd2e5" d="M 317.996094 176.355469 L 333.441406 176.355469 C 334.203125 176.355469 334.8125 175.738281 334.8125 174.980469 L 334.8125 156.351562 C 334.8125 155.589844 334.203125 154.976562 333.441406 154.976562 L 317.996094 154.976562 C 317.238281 154.976562 316.621094 155.589844 316.621094 156.351562 L 316.621094 174.980469 C 316.621094 175.738281 317.238281 176.355469 317.996094 176.355469 " fill-opacity="1" fill-rule="nonzero"/><path fill="#ffd2e5" d="M 296.792969 176.351562 L 311.964844 176.351562 C 312.796875 176.351562 313.476562 175.675781 313.476562 174.84375 L 313.476562 156.484375 C 313.476562 155.652344 312.796875 154.972656 311.964844 154.972656 L 296.792969 154.972656 C 295.957031 154.972656 295.28125 155.652344 295.28125 156.484375 L 295.28125 174.84375 C 295.28125 175.675781 295.957031 176.351562 296.792969 176.351562 " fill-opacity="1" fill-rule="nonzero"/><path fill="#ffd2e5" d="M 317.601562 200.101562 L 333.832031 200.101562 C 334.375 200.101562 334.8125 199.667969 334.8125 199.125 L 334.8125 179.710938 C 334.8125 179.167969 334.375 178.730469 333.832031 178.730469 L 317.601562 178.730469 C 317.0625 178.730469 316.621094 179.167969 316.621094 179.710938 L 316.621094 199.125 C 316.621094 199.667969 317.0625 200.101562 317.601562 200.101562 " fill-opacity="1" fill-rule="nonzero"/><path fill="#ffd2e5" d="M 296.828125 200.101562 L 311.925781 200.101562 C 312.78125 200.101562 313.476562 199.410156 313.476562 198.554688 L 313.476562 180.277344 C 313.476562 179.421875 312.78125 178.726562 311.925781 178.726562 L 296.828125 178.726562 C 295.972656 178.726562 295.28125 179.421875 295.28125 180.277344 L 295.28125 198.554688 C 295.28125 199.410156 295.972656 200.101562 296.828125 200.101562 " fill-opacity="1" fill-rule="nonzero"/><path fill="#ffd2e5" d="M 263.035156 260.191406 L 278.484375 260.191406 C 279.242188 260.191406 279.855469 259.578125 279.855469 258.820312 L 279.855469 235.109375 C 279.855469 234.351562 279.242188 233.734375 278.484375 233.734375 L 263.035156 233.734375 C 262.277344 233.734375 261.664062 234.351562 261.664062 235.109375 L 261.664062 258.820312 C 261.664062 259.578125 262.277344 260.191406 263.035156 260.191406 " fill-opacity="1" fill-rule="nonzero"/><path fill="#ffd2e5" d="M 241.832031 260.191406 L 257.003906 260.191406 C 257.835938 260.191406 258.515625 259.515625 258.515625 258.683594 L 258.515625 235.246094 C 258.515625 234.414062 257.835938 233.734375 257.003906 233.734375 L 241.832031 233.734375 C 241 233.734375 240.320312 234.414062 240.320312 235.246094 L 240.320312 258.683594 C 240.320312 259.515625 241 260.191406 241.832031 260.191406 " fill-opacity="1" fill-rule="nonzero"/><path fill="#ffd2e5" d="M 262.644531 289.589844 L 278.875 289.589844 C 279.417969 289.589844 279.855469 289.152344 279.855469 288.609375 L 279.855469 264.113281 C 279.855469 263.570312 279.417969 263.132812 278.875 263.132812 L 262.644531 263.132812 C 262.101562 263.132812 261.664062 263.570312 261.664062 264.113281 L 261.664062 288.609375 C 261.664062 289.152344 262.101562 289.589844 262.644531 289.589844 " fill-opacity="1" fill-rule="nonzero"/><path fill="#ffd2e5" d="M 241.867188 289.589844 L 256.964844 289.589844 C 257.820312 289.589844 258.515625 288.898438 258.515625 288.042969 L 258.515625 264.683594 C 258.515625 263.828125 257.820312 263.132812 256.964844 263.132812 L 241.867188 263.132812 C 241.011719 263.132812 240.320312 263.828125 240.320312 264.683594 L 240.320312 288.042969 C 240.320312 288.898438 241.011719 289.589844 241.867188 289.589844 " fill-opacity="1" fill-rule="nonzero"/><path fill="#bd316b" d="M 316.753906 115.886719 L 408.71875 167.191406 C 410.667969 168.28125 411.039062 170.492188 409.515625 171.957031 L 406 176.5625 C 404.4375 178.609375 401.714844 179.222656 399.484375 178.03125 L 316.082031 133.425781 C 315.527344 133.128906 314.867188 133.125 314.308594 133.421875 L 228.851562 178.496094 C 227.722656 179.085938 226.355469 178.792969 225.546875 177.785156 L 221.925781 173.277344 C 219.871094 170.714844 220.714844 167.292969 223.832031 165.570312 L 313.636719 115.882812 C 314.609375 115.34375 315.78125 115.34375 316.753906 115.886719 " fill-opacity="1" fill-rule="nonzero"/><path fill="#000000" d="M 315.191406 116.125 C 314.761719 116.125 314.339844 116.230469 313.949219 116.449219 L 224.144531 166.132812 C 222.722656 166.921875 221.792969 168.097656 221.523438 169.453125 C 221.289062 170.636719 221.613281 171.855469 222.429688 172.875 L 226.046875 177.378906 C 226.667969 178.148438 227.695312 178.371094 228.550781 177.921875 L 314.003906 132.847656 C 314.753906 132.453125 315.644531 132.457031 316.390625 132.859375 L 399.789062 177.464844 C 401.730469 178.496094 404.125 177.957031 405.488281 176.171875 L 409 171.566406 C 409.019531 171.542969 409.042969 171.515625 409.066406 171.496094 C 409.621094 170.960938 409.882812 170.289062 409.792969 169.613281 C 409.695312 168.871094 409.191406 168.195312 408.402344 167.757812 L 316.441406 116.453125 C 316.046875 116.230469 315.617188 116.125 315.191406 116.125 Z M 227.621094 179.449219 C 226.648438 179.449219 225.699219 179.007812 225.039062 178.1875 L 221.421875 173.683594 C 220.359375 172.359375 219.949219 170.773438 220.257812 169.203125 C 220.59375 167.492188 221.78125 165.964844 223.519531 165.003906 L 313.320312 115.316406 C 314.496094 114.667969 315.894531 114.667969 317.070312 115.324219 L 409.03125 166.628906 C 410.179688 167.269531 410.921875 168.296875 411.070312 169.449219 C 411.210938 170.507812 410.820312 171.578125 410 172.390625 L 406.515625 176.953125 C 404.765625 179.246094 401.679688 179.9375 399.183594 178.601562 L 315.777344 133.996094 C 315.410156 133.796875 314.972656 133.796875 314.605469 133.992188 L 229.152344 179.0625 C 228.664062 179.324219 228.136719 179.449219 227.621094 179.449219 " fill-opacity="1" fill-rule="nonzero"/><path fill="#ffd2e5" d="M 336.355469 331.96875 L 293.054688 331.96875 C 291.625 331.96875 290.472656 330.8125 290.472656 329.386719 L 290.472656 234.605469 C 290.472656 233.175781 291.625 232.023438 293.054688 232.023438 L 336.355469 232.023438 C 337.785156 232.023438 338.941406 233.175781 338.941406 234.605469 L 338.941406 329.386719 C 338.941406 330.8125 337.785156 331.96875 336.355469 331.96875 " fill-opacity="1" fill-rule="nonzero"/><path fill="#bd316b" d="M 335.078125 328.289062 L 295.019531 328.4375 C 293.976562 328.4375 293.132812 327.59375 293.132812 326.554688 L 293.132812 236.691406 C 293.132812 235.652344 293.976562 234.808594 295.019531 234.808594 L 335.765625 234.855469 C 336.507812 234.855469 337.105469 235.46875 337.09375 236.210938 L 335.078125 328.289062 " fill-opacity="1" fill-rule="nonzero"/><path fill="#000000" d="M 295.015625 235.453125 C 294.332031 235.453125 293.777344 236.007812 293.777344 236.691406 L 293.777344 326.554688 C 293.777344 327.238281 294.332031 327.792969 295.015625 327.792969 L 334.445312 327.648438 L 336.441406 236.199219 C 336.449219 236.015625 336.378906 235.839844 336.25 235.707031 C 336.121094 235.578125 335.949219 235.503906 335.765625 235.503906 Z M 335.078125 328.289062 L 335.082031 328.289062 Z M 295.019531 329.082031 C 293.621094 329.082031 292.484375 327.949219 292.484375 326.554688 L 292.484375 236.691406 C 292.484375 235.296875 293.621094 234.164062 295.015625 234.164062 L 335.765625 234.210938 C 336.300781 234.210938 336.796875 234.421875 337.175781 234.804688 C 337.546875 235.1875 337.746094 235.691406 337.738281 236.226562 L 335.722656 328.304688 C 335.714844 328.652344 335.429688 328.933594 335.082031 328.933594 L 295.019531 329.082031 " fill-opacity="1" fill-rule="nonzero"/><path fill="#ff95c1" d="M 344.972656 331.785156 L 284.648438 331.785156 C 283.972656 331.785156 283.429688 331.242188 283.429688 330.566406 L 283.429688 324.289062 C 283.429688 323.617188 283.972656 323.070312 284.648438 323.070312 L 344.972656 323.070312 C 345.644531 323.070312 346.191406 323.617188 346.191406 324.289062 L 346.191406 330.566406 C 346.191406 331.242188 345.644531 331.785156 344.972656 331.785156 " fill-opacity="1" fill-rule="nonzero"/><path fill="#000000" d="M 284.648438 323.71875 C 284.332031 323.71875 284.074219 323.972656 284.074219 324.289062 L 284.074219 330.566406 C 284.074219 330.882812 284.332031 331.140625 284.648438 331.140625 L 344.972656 331.140625 C 345.289062 331.140625 345.542969 330.882812 345.542969 330.566406 L 345.542969 324.289062 C 345.542969 323.972656 345.289062 323.71875 344.972656 323.71875 Z M 344.972656 332.433594 L 284.648438 332.433594 C 283.621094 332.433594 282.785156 331.59375 282.785156 330.566406 L 282.785156 324.289062 C 282.785156 323.261719 283.621094 322.425781 284.648438 322.425781 L 344.972656 322.425781 C 346 322.425781 346.835938 323.261719 346.835938 324.289062 L 346.835938 330.566406 C 346.835938 331.59375 346 332.433594 344.972656 332.433594 " fill-opacity="1" fill-rule="nonzero"/><path fill="#ff95c1" d="M 300.433594 262.40625 C 300.21875 262.40625 300.011719 262.300781 299.890625 262.109375 C 299.695312 261.8125 299.785156 261.410156 300.082031 261.21875 L 329.859375 242.074219 C 330.160156 241.882812 330.558594 241.96875 330.75 242.269531 C 330.945312 242.570312 330.855469 242.96875 330.558594 243.160156 L 300.78125 262.304688 C 300.675781 262.375 300.550781 262.40625 300.433594 262.40625 " fill-opacity="1" fill-rule="nonzero"/><path fill="#ff95c1" d="M 299.222656 275.179688 C 299.007812 275.179688 298.800781 275.074219 298.679688 274.882812 C 298.488281 274.582031 298.574219 274.183594 298.871094 273.988281 L 326.570312 256.183594 C 326.871094 255.992188 327.269531 256.078125 327.464844 256.378906 C 327.65625 256.675781 327.570312 257.074219 327.269531 257.269531 L 299.570312 275.078125 C 299.464844 275.144531 299.34375 275.179688 299.222656 275.179688 " fill-opacity="1" fill-rule="nonzero"/><path fill="#ffd2e5" d="M 389.296875 217.492188 C 389.296875 217.492188 389.292969 217.492188 389.289062 217.492188 L 238.175781 216.203125 C 237.824219 216.199219 237.535156 215.90625 237.539062 215.550781 C 237.539062 215.195312 237.828125 214.90625 238.183594 214.90625 C 238.183594 214.90625 238.1875 214.90625 238.191406 214.90625 L 389.304688 216.203125 C 389.65625 216.203125 389.945312 216.496094 389.941406 216.851562 C 389.9375 217.207031 389.648438 217.492188 389.296875 217.492188 " fill-opacity="1" fill-rule="nonzero"/><path fill="#ff95c1" d="M 169.539062 101.03125 C 169.539062 118.386719 155.46875 132.457031 138.113281 132.457031 C 120.757812 132.457031 106.6875 118.386719 106.6875 101.03125 C 106.6875 83.675781 120.757812 69.601562 138.113281 69.601562 C 155.46875 69.601562 169.539062 83.675781 169.539062 101.03125 " fill-opacity="1" fill-rule="nonzero"/><path fill="#000000" d="M 138.113281 70.25 C 121.140625 70.25 107.332031 84.058594 107.332031 101.03125 C 107.332031 118.003906 121.140625 131.8125 138.113281 131.8125 C 155.085938 131.8125 168.894531 118.003906 168.894531 101.03125 C 168.894531 84.058594 155.085938 70.25 138.113281 70.25 Z M 138.113281 133.101562 C 120.429688 133.101562 106.042969 118.714844 106.042969 101.03125 C 106.042969 83.34375 120.429688 68.957031 138.113281 68.957031 C 155.796875 68.957031 170.1875 83.34375 170.1875 101.03125 C 170.1875 118.714844 155.796875 133.101562 138.113281 133.101562 " fill-opacity="1" fill-rule="nonzero"/><path fill="#ffffff" d="M 164.488281 101.027344 C 164.488281 115.597656 152.679688 127.40625 138.113281 127.40625 C 123.546875 127.40625 111.742188 115.597656 111.742188 101.027344 C 111.742188 86.464844 123.546875 74.65625 138.113281 74.65625 C 152.679688 74.65625 164.488281 86.464844 164.488281 101.027344 " fill-opacity="1" fill-rule="nonzero"/><path fill="#000000" d="M 160.285156 115.960938 C 160.167969 115.960938 160.046875 115.929688 159.9375 115.859375 C 159.636719 115.664062 159.550781 115.265625 159.746094 114.964844 C 161.078125 112.898438 162.105469 110.65625 162.796875 108.304688 C 162.898438 107.960938 163.261719 107.769531 163.601562 107.867188 C 163.941406 107.96875 164.140625 108.328125 164.039062 108.667969 C 163.3125 111.140625 162.230469 113.492188 160.828125 115.667969 C 160.707031 115.855469 160.496094 115.960938 160.285156 115.960938 " fill-opacity="1" fill-rule="nonzero"/><path fill="#000000" d="M 161.855469 90.171875 C 161.613281 90.171875 161.382812 90.039062 161.273438 89.808594 C 156.929688 80.859375 148.054688 75.300781 138.113281 75.300781 C 129.949219 75.300781 122.1875 79.238281 117.351562 85.835938 C 117.140625 86.121094 116.734375 86.183594 116.449219 85.972656 C 116.160156 85.761719 116.097656 85.355469 116.308594 85.070312 C 121.386719 78.144531 129.539062 74.011719 138.113281 74.011719 C 148.554688 74.011719 157.871094 79.847656 162.433594 89.246094 C 162.589844 89.566406 162.457031 89.949219 162.136719 90.105469 C 162.042969 90.148438 161.949219 90.171875 161.855469 90.171875 " fill-opacity="1" fill-rule="nonzero"/><path fill="#000000" d="M 138.113281 128.050781 C 123.214844 128.050781 111.09375 115.929688 111.09375 101.03125 C 111.09375 96.402344 112.285156 91.835938 114.539062 87.824219 C 114.710938 87.511719 115.105469 87.398438 115.417969 87.574219 C 115.726562 87.75 115.839844 88.144531 115.664062 88.457031 C 113.519531 92.273438 112.386719 96.621094 112.386719 101.03125 C 112.386719 115.214844 123.929688 126.757812 138.113281 126.757812 C 138.46875 126.757812 138.761719 127.046875 138.761719 127.402344 C 138.761719 127.761719 138.46875 128.050781 138.113281 128.050781 " fill-opacity="1" fill-rule="nonzero"/><path fill="#bd316b" d="M 135.695312 119.648438 L 135.695312 115.3125 C 132.636719 115.175781 129.671875 114.355469 127.9375 113.351562 L 129.304688 108.011719 C 131.222656 109.0625 133.914062 110.019531 136.882812 110.019531 C 139.484375 110.019531 141.261719 109.015625 141.261719 107.191406 C 141.261719 105.457031 139.800781 104.363281 136.425781 103.21875 C 131.542969 101.574219 128.210938 99.292969 128.210938 94.867188 C 128.210938 90.851562 131.039062 87.703125 135.925781 86.742188 L 135.925781 82.410156 L 140.398438 82.410156 L 140.398438 86.421875 C 143.453125 86.5625 145.507812 87.199219 147.011719 87.929688 L 145.691406 93.089844 C 144.503906 92.585938 142.40625 91.535156 139.117188 91.535156 C 136.152344 91.535156 135.195312 92.816406 135.195312 94.089844 C 135.195312 95.597656 136.789062 96.558594 140.671875 98.019531 C 146.101562 99.933594 148.292969 102.441406 148.292969 106.550781 C 148.292969 110.613281 145.417969 114.082031 140.167969 114.996094 L 140.167969 119.648438 L 135.695312 119.648438 " fill-opacity="1" fill-rule="nonzero"/><path fill="#ffffff" d="M 106.980469 351.234375 L 107.511719 361.792969 L 102.421875 361.738281 L 100.90625 351.542969 L 106.980469 351.234375 " fill-opacity="1" fill-rule="nonzero"/><path fill="#000000" d="M 102.980469 361.097656 L 106.832031 361.140625 L 106.367188 351.914062 L 101.648438 352.148438 Z M 107.511719 362.4375 C 107.507812 362.4375 107.507812 362.4375 107.503906 362.4375 L 102.414062 362.386719 C 102.097656 362.382812 101.832031 362.148438 101.785156 361.832031 L 100.269531 351.636719 C 100.242188 351.457031 100.292969 351.273438 100.40625 351.132812 C 100.523438 350.988281 100.691406 350.90625 100.875 350.894531 L 106.945312 350.589844 C 107.109375 350.582031 107.285156 350.640625 107.410156 350.753906 C 107.539062 350.871094 107.617188 351.03125 107.625 351.203125 L 108.15625 361.757812 C 108.164062 361.9375 108.101562 362.109375 107.976562 362.238281 C 107.855469 362.367188 107.6875 362.4375 107.511719 362.4375 " fill-opacity="1" fill-rule="nonzero"/><path fill="#ffffff" d="M 102.339844 375.25 C 104.417969 375.367188 110.125 375.253906 111.710938 374.464844 C 113.109375 373.765625 114.21875 370.773438 113.441406 369.71875 C 111.496094 367.070312 110.03125 362.382812 108.78125 358.726562 C 108.710938 358.519531 108.429688 358.492188 108.316406 358.679688 L 107.316406 360.371094 L 106.429688 358.488281 C 106.289062 358.28125 106.058594 358.152344 105.8125 358.140625 L 104.03125 358.199219 C 103.621094 358.179688 103.203125 358.597656 102.976562 358.980469 L 101.777344 360.648438 L 101 359.375 C 100.867188 359.164062 100.539062 359.242188 100.523438 359.492188 L 99.652344 371.878906 C 99.707031 373.855469 101.132812 375.179688 102.339844 375.25 " fill-opacity="1" fill-rule="nonzero"/><path fill="#000000" d="M 101.167969 359.535156 L 101.167969 359.539062 C 101.167969 359.539062 101.167969 359.539062 101.167969 359.535156 Z M 100.449219 359.714844 Z M 100.300781 371.890625 C 100.359375 373.566406 101.5625 374.558594 102.378906 374.605469 C 104.71875 374.738281 110.0625 374.5625 111.421875 373.882812 C 112.03125 373.582031 112.6875 372.542969 112.949219 371.46875 C 113.128906 370.730469 113.046875 370.269531 112.921875 370.097656 C 111.113281 367.640625 109.757812 363.625 108.558594 360.078125 L 108.441406 359.734375 L 107.871094 360.699219 C 107.75 360.902344 107.523438 361.027344 107.285156 361.015625 C 107.046875 361.003906 106.832031 360.859375 106.730469 360.644531 L 105.875 358.824219 C 105.851562 358.808594 105.824219 358.792969 105.796875 358.789062 L 104.050781 358.84375 C 104.03125 358.84375 104.015625 358.84375 104 358.84375 C 103.929688 358.851562 103.703125 359.019531 103.535156 359.308594 C 103.527344 359.324219 103.515625 359.34375 103.5 359.359375 L 102.300781 361.027344 C 102.175781 361.203125 101.980469 361.300781 101.753906 361.292969 C 101.539062 361.285156 101.339844 361.171875 101.226562 360.984375 L 101.082031 360.75 Z M 104.101562 375.9375 C 103.375 375.9375 102.75 375.917969 102.304688 375.894531 C 100.769531 375.808594 99.074219 374.253906 99.007812 371.894531 C 99.007812 371.875 99.007812 371.855469 99.007812 371.832031 L 99.878906 359.449219 C 99.90625 359.054688 100.183594 358.726562 100.566406 358.632812 C 100.949219 358.539062 101.34375 358.703125 101.550781 359.039062 L 101.820312 359.484375 L 102.4375 358.628906 C 102.757812 358.089844 103.34375 357.535156 104.027344 357.550781 L 105.789062 357.496094 C 105.804688 357.496094 105.820312 357.496094 105.835938 357.496094 C 106.292969 357.515625 106.710938 357.753906 106.964844 358.128906 C 106.984375 358.15625 107 358.183594 107.011719 358.214844 L 107.378906 358.992188 L 107.761719 358.347656 C 107.941406 358.042969 108.269531 357.875 108.632812 357.910156 C 108.984375 357.949219 109.277344 358.179688 109.390625 358.515625 L 109.78125 359.664062 C 110.949219 363.121094 112.273438 367.039062 113.960938 369.335938 C 114.363281 369.882812 114.449219 370.75 114.203125 371.773438 C 113.90625 373 113.109375 374.488281 112 375.039062 C 110.605469 375.734375 106.707031 375.9375 104.101562 375.9375 " fill-opacity="1" fill-rule="nonzero"/><path fill="#000000" d="M 105.554688 373.542969 C 103.289062 373.542969 101.761719 373.128906 101.660156 373.101562 C 101.316406 373.007812 101.113281 372.652344 101.210938 372.308594 C 101.304688 371.964844 101.660156 371.761719 102.003906 371.859375 C 102.042969 371.871094 106.050781 372.9375 110.652344 371.472656 C 110.992188 371.363281 111.355469 371.554688 111.464844 371.894531 C 111.574219 372.234375 111.386719 372.597656 111.046875 372.703125 C 109.015625 373.347656 107.109375 373.542969 105.554688 373.542969 " fill-opacity="1" fill-rule="nonzero"/><path fill="#000000" d="M 103.96875 368.101562 C 103.628906 368.101562 103.34375 367.832031 103.324219 367.488281 C 103.308594 367.132812 103.582031 366.828125 103.9375 366.8125 L 108.566406 366.578125 C 108.925781 366.5625 109.226562 366.835938 109.242188 367.191406 C 109.261719 367.546875 108.988281 367.847656 108.632812 367.867188 L 104.003906 368.101562 C 103.992188 368.101562 103.980469 368.101562 103.96875 368.101562 " fill-opacity="1" fill-rule="nonzero"/><path fill="#ffffff" d="M 69.378906 347.53125 L 68.523438 360.335938 L 63.757812 360.410156 L 63.125 347.84375 L 69.378906 347.53125 " fill-opacity="1" fill-rule="nonzero"/><path fill="#000000" d="M 63.800781 348.457031 L 64.371094 359.753906 L 67.917969 359.695312 L 68.6875 348.210938 Z M 63.757812 361.054688 C 63.414062 361.054688 63.132812 360.785156 63.113281 360.441406 L 62.480469 347.878906 C 62.472656 347.707031 62.53125 347.539062 62.644531 347.414062 C 62.761719 347.285156 62.921875 347.210938 63.09375 347.199219 L 69.347656 346.886719 C 69.527344 346.882812 69.710938 346.945312 69.839844 347.078125 C 69.96875 347.210938 70.035156 347.390625 70.023438 347.574219 L 69.167969 360.378906 C 69.144531 360.714844 68.867188 360.976562 68.53125 360.980469 L 63.769531 361.054688 C 63.765625 361.054688 63.761719 361.054688 63.757812 361.054688 " fill-opacity="1" fill-rule="nonzero"/><path fill="#ffffff" d="M 69.925781 357.226562 C 69.925781 357.226562 70.394531 362.863281 70.320312 365.144531 C 70.269531 366.78125 68.289062 371.804688 67.164062 374.535156 C 66.703125 375.65625 65.671875 376.554688 64.617188 376.851562 C 62.628906 377.414062 61.65625 377.4375 59.789062 377.230469 C 57.277344 376.949219 56.386719 374.707031 57.011719 372.484375 C 57.589844 370.4375 58.605469 368.164062 60.332031 365.339844 C 61.582031 363.296875 62.523438 357.378906 62.523438 357.378906 L 66.398438 357.1875 L 67.65625 360.378906 L 69.925781 357.226562 " fill-opacity="1" fill-rule="nonzero"/><path fill="#000000" d="M 63.070312 358 C 62.808594 359.515625 61.976562 363.894531 60.882812 365.679688 C 59.261719 368.328125 58.230469 370.546875 57.636719 372.664062 C 57.332031 373.742188 57.441406 374.78125 57.933594 375.515625 C 58.347656 376.132812 58.996094 376.492188 59.863281 376.589844 C 61.671875 376.792969 62.542969 376.769531 64.441406 376.234375 C 65.339844 375.976562 66.191406 375.195312 66.566406 374.289062 C 68.507812 369.578125 69.640625 366.238281 69.675781 365.125 C 69.722656 363.695312 69.546875 360.878906 69.414062 359.039062 L 68.179688 360.753906 C 68.039062 360.945312 67.8125 361.046875 67.574219 361.019531 C 67.339844 360.988281 67.140625 360.832031 67.054688 360.613281 L 65.964844 357.855469 Z M 61.558594 377.996094 C 61 377.996094 60.417969 377.949219 59.71875 377.875 C 58.476562 377.734375 57.492188 377.167969 56.863281 376.238281 C 56.15625 375.1875 55.984375 373.757812 56.390625 372.3125 C 57.019531 370.082031 58.097656 367.757812 59.78125 365.003906 C 60.953125 363.089844 61.875 357.335938 61.882812 357.28125 C 61.933594 356.976562 62.183594 356.75 62.488281 356.738281 L 66.363281 356.539062 C 66.648438 356.527344 66.894531 356.691406 66.996094 356.949219 L 67.820312 359.039062 L 69.402344 356.851562 C 69.558594 356.632812 69.835938 356.53125 70.097656 356.605469 C 70.355469 356.675781 70.546875 356.90625 70.566406 357.175781 C 70.585938 357.40625 71.042969 362.871094 70.96875 365.167969 C 70.914062 366.804688 69.195312 371.300781 67.761719 374.777344 C 67.234375 376.054688 66.070312 377.113281 64.792969 377.476562 C 63.464844 377.847656 62.550781 377.996094 61.558594 377.996094 " fill-opacity="1" fill-rule="nonzero"/><path fill="#000000" d="M 68.144531 367.800781 C 68.144531 367.800781 68.144531 367.800781 68.144531 367.804688 C 68.144531 367.800781 68.144531 367.800781 68.144531 367.800781 Z M 68.140625 367.804688 Z M 60.824219 375.679688 C 60.214844 375.679688 59.53125 375.625 58.957031 375.429688 C 58.617188 375.316406 58.433594 374.949219 58.546875 374.613281 C 58.660156 374.273438 59.027344 374.089844 59.363281 374.203125 C 60.21875 374.492188 61.558594 374.386719 62.074219 374.292969 C 62.957031 374.136719 63.753906 373.671875 64.320312 372.984375 C 64.808594 372.398438 65.171875 371.847656 65.371094 371.386719 C 65.796875 370.402344 66.226562 369.289062 66.539062 368.46875 C 67.058594 367.125 67.109375 366.996094 67.277344 366.84375 C 67.542969 366.605469 67.949219 366.628906 68.1875 366.890625 C 68.394531 367.121094 68.40625 367.457031 68.234375 367.699219 C 68.160156 367.847656 67.949219 368.402344 67.746094 368.933594 C 67.425781 369.761719 66.992188 370.894531 66.554688 371.898438 C 66.304688 372.476562 65.886719 373.121094 65.316406 373.808594 C 64.554688 374.726562 63.484375 375.351562 62.304688 375.566406 C 62.03125 375.613281 61.46875 375.679688 60.824219 375.679688 " fill-opacity="1" fill-rule="nonzero"/><path fill="#000000" d="M 60.203125 370.464844 C 59.863281 370.464844 59.578125 370.199219 59.558594 369.855469 C 59.539062 369.496094 59.816406 369.195312 60.171875 369.175781 L 64.414062 368.964844 C 64.765625 368.949219 65.074219 369.21875 65.089844 369.574219 C 65.109375 369.929688 64.835938 370.234375 64.476562 370.253906 L 60.238281 370.464844 C 60.226562 370.464844 60.214844 370.464844 60.203125 370.464844 " fill-opacity="1" fill-rule="nonzero"/><path fill="#000000" d="M 109.804688 245.277344 C 109.804688 245.277344 111.257812 284.148438 110.90625 309.523438 C 110.601562 331.339844 108.898438 348.8125 108.429688 353.28125 C 108.359375 353.957031 107.851562 354.511719 107.183594 354.636719 C 105.867188 354.878906 103.585938 355.179688 101.359375 354.871094 C 100.742188 354.789062 100.230469 354.351562 100.066406 353.75 C 98.886719 349.453125 94.046875 331.460938 93.695312 324.515625 C 93.316406 316.984375 94.570312 315.027344 94.414062 308.882812 C 94.296875 304.28125 91.933594 288.019531 90.753906 280.132812 C 90.597656 279.097656 89.144531 278.996094 88.851562 280.003906 C 86.714844 287.3125 82.171875 303.113281 77.988281 319.300781 C 77.773438 320.132812 76.859375 327.160156 76.648438 327.980469 C 74.0625 338.089844 71.558594 346.226562 70.726562 350.957031 C 70.59375 351.722656 70.003906 352.332031 69.246094 352.496094 C 67.78125 352.808594 65.308594 353.152344 63.070312 352.566406 C 62.265625 352.355469 61.699219 351.632812 61.664062 350.800781 C 61.449219 345.648438 60.671875 326.492188 60.945312 323.253906 C 61.535156 316.3125 66.570312 309.25 67.167969 301.878906 C 67.765625 294.503906 67.398438 276.09375 69.503906 264.933594 C 71.609375 253.773438 76.203125 241.121094 76.203125 241.121094 L 109.804688 245.277344 " fill-opacity="1" fill-rule="nonzero"/><path fill="#000000" d="M 89.351562 171.121094 C 92.019531 169.359375 96.472656 170.308594 98.1875 174.738281 C 99.589844 178.355469 96.457031 181.148438 95.664062 183.816406 C 93.09375 192.449219 101.402344 210.867188 95.757812 220.273438 C 91.253906 227.777344 78.730469 233.308594 67.933594 228.628906 C 57.660156 224.183594 50.679688 213.472656 54.847656 204.707031 C 58.589844 196.828125 65.667969 200.550781 69.964844 192.785156 C 74.199219 185.128906 70.3125 181.523438 73.410156 177.691406 C 77.644531 172.445312 81.78125 176.121094 89.351562 171.121094 " fill-opacity="1" fill-rule="nonzero"/><path fill="#ffffff" d="M 74.980469 261.753906 C 74.738281 261.753906 74.503906 261.617188 74.394531 261.382812 C 74.242188 261.0625 74.382812 260.675781 74.703125 260.523438 C 81.214844 257.460938 82.847656 250.859375 82.867188 250.792969 C 82.949219 250.445312 83.292969 250.230469 83.640625 250.316406 C 83.988281 250.398438 84.203125 250.742188 84.121094 251.089844 C 84.050781 251.386719 82.320312 258.367188 75.253906 261.691406 C 75.164062 261.734375 75.070312 261.753906 74.980469 261.753906 " fill-opacity="1" fill-rule="nonzero"/><path fill="#ffffff" d="M 135.902344 163.628906 L 134.203125 169.074219 C 133.644531 170.761719 133.925781 172.613281 134.957031 174.058594 L 136.863281 176.792969 C 137.179688 177.246094 137.265625 177.792969 137.277344 178.34375 C 137.300781 179.582031 137.113281 181.464844 137.113281 181.464844 L 141.652344 181.539062 C 141.652344 181.539062 141.15625 179.148438 140.925781 178.324219 C 140.632812 177.273438 140.625 176.125 141.082031 175.132812 C 142.539062 171.980469 142.113281 168.816406 142.113281 168.816406 L 139.003906 169.644531 C 139.003906 169.644531 138.042969 168.007812 138.226562 165.152344 C 138.269531 164.453125 138.195312 163.917969 138.054688 163.515625 C 137.691406 162.46875 136.175781 162.558594 135.902344 163.628906 " fill-opacity="1" fill-rule="nonzero"/><path fill="#000000" d="M 135.902344 163.628906 L 135.90625 163.628906 Z M 137.816406 180.832031 L 140.851562 180.882812 C 140.6875 180.113281 140.441406 178.996094 140.304688 178.496094 C 139.941406 177.203125 140.011719 175.910156 140.496094 174.863281 C 141.453125 172.796875 141.550781 170.714844 141.523438 169.640625 L 139.171875 170.269531 C 138.890625 170.34375 138.59375 170.222656 138.449219 169.972656 C 138.40625 169.898438 137.386719 168.128906 137.582031 165.109375 C 137.617188 164.550781 137.570312 164.085938 137.445312 163.726562 C 137.34375 163.4375 137.089844 163.417969 136.988281 163.421875 C 136.902344 163.425781 136.613281 163.464844 136.527344 163.792969 C 136.527344 163.800781 136.523438 163.8125 136.519531 163.820312 L 134.820312 169.265625 C 134.324219 170.765625 134.574219 172.410156 135.484375 173.683594 L 137.394531 176.421875 C 137.847656 177.074219 137.914062 177.824219 137.921875 178.332031 C 137.9375 179.125 137.871094 180.15625 137.816406 180.832031 Z M 141.652344 182.1875 C 141.652344 182.1875 141.644531 182.1875 141.644531 182.1875 L 137.105469 182.113281 C 136.921875 182.109375 136.753906 182.027344 136.632812 181.894531 C 136.511719 181.761719 136.453125 181.582031 136.472656 181.402344 C 136.472656 181.382812 136.652344 179.539062 136.628906 178.359375 C 136.621094 177.820312 136.527344 177.4375 136.335938 177.160156 L 134.429688 174.429688 C 133.285156 172.828125 132.96875 170.746094 133.589844 168.871094 L 135.28125 163.453125 C 135.484375 162.695312 136.144531 162.167969 136.933594 162.132812 C 137.746094 162.09375 138.40625 162.558594 138.664062 163.300781 C 138.847656 163.828125 138.914062 164.460938 138.871094 165.191406 C 138.753906 166.980469 139.121094 168.253906 139.367188 168.878906 L 141.949219 168.191406 C 142.125 168.144531 142.316406 168.175781 142.472656 168.28125 C 142.625 168.382812 142.730469 168.546875 142.753906 168.730469 C 142.773438 168.867188 143.1875 172.121094 141.667969 175.402344 C 141.3125 176.175781 141.269531 177.152344 141.546875 178.152344 C 141.78125 178.984375 142.265625 181.308594 142.285156 181.410156 C 142.324219 181.601562 142.277344 181.800781 142.152344 181.953125 C 142.027344 182.101562 141.847656 182.1875 141.652344 182.1875 " fill-opacity="1" fill-rule="nonzero"/><path fill="#bd316b" d="M 105.667969 198.023438 C 109.632812 198.460938 121.578125 203.742188 128.542969 196.589844 C 135.507812 189.4375 135.851562 179.933594 135.851562 179.933594 L 142.667969 179.34375 C 142.667969 179.34375 147.355469 190.492188 142.488281 203.488281 C 137.523438 216.75 113.589844 221.414062 113.589844 221.414062 L 105.667969 198.023438 " fill-opacity="1" fill-rule="nonzero"/><path fill="#bd316b" d="M 114.085938 200.894531 C 106.011719 196.03125 91.550781 196.441406 84.359375 199.726562 C 71.609375 205.5625 64.296875 251.921875 68.375 261.914062 C 72.097656 271.042969 103.800781 272.980469 112.601562 265.171875 C 116.351562 261.847656 115.105469 242 114.445312 234.070312 C 114.246094 231.660156 114.144531 229.242188 114.140625 226.824219 L 114.085938 200.894531 " fill-opacity="1" fill-rule="nonzero"/><path fill="#ffffff" d="M 86.484375 186.382812 C 86.761719 186.398438 86.984375 186.164062 86.953125 185.886719 C 86.8125 184.5625 86.386719 182.082031 87.652344 180.96875 C 89.273438 179.542969 91.972656 177.375 93.019531 178.699219 C 93.9375 179.863281 94.867188 182.226562 97.082031 183.101562 C 97.292969 183.1875 97.3125 183.492188 97.21875 183.699219 L 96.753906 184.878906 C 96.648438 185.109375 96.742188 185.652344 96.839844 185.890625 C 97.148438 186.621094 97.859375 188.152344 97.722656 188.476562 C 97.453125 189.101562 95.03125 190.21875 95.03125 190.21875 L 96.632812 197.699219 C 96.695312 197.980469 96.882812 198.449219 97.164062 198.382812 L 100.117188 198.601562 C 100.117188 198.601562 99.933594 202.65625 93.652344 203.773438 C 85.441406 205.238281 84.359375 199.726562 84.359375 199.726562 C 84.359375 199.726562 92.386719 199.601562 88.890625 190.847656 C 88.816406 190.65625 88.640625 190.519531 88.4375 190.488281 C 87.65625 190.371094 85.496094 189.945312 85.085938 188.554688 C 84.652344 187.078125 85.53125 186.34375 86.484375 186.382812 " fill-opacity="1" fill-rule="nonzero"/><path fill="#000000" d="M 86.511719 185.738281 Z M 85.234375 200.289062 C 85.828125 201.589844 87.757812 204.167969 93.539062 203.136719 C 97.773438 202.386719 98.992188 200.253906 99.335938 199.191406 L 97.1875 199.03125 C 96.996094 199.050781 96.804688 199.003906 96.640625 198.898438 C 96.214844 198.632812 96.050781 198.066406 96.003906 197.832031 L 94.402344 190.355469 C 94.339844 190.058594 94.488281 189.761719 94.761719 189.632812 C 95.773438 189.164062 96.792969 188.5625 97.078125 188.269531 C 97 187.886719 96.597656 186.953125 96.414062 186.535156 C 96.351562 186.386719 96.292969 186.253906 96.246094 186.136719 C 96.125 185.851562 95.945312 185.097656 96.167969 184.609375 L 96.570312 183.585938 C 94.882812 182.800781 93.90625 181.253906 93.1875 180.101562 C 92.949219 179.722656 92.722656 179.363281 92.515625 179.101562 C 92.433594 179 92.339844 178.949219 92.199219 178.9375 C 91.671875 178.882812 90.542969 179.289062 88.082031 181.453125 C 87.179688 182.246094 87.414062 184.246094 87.554688 185.441406 L 87.59375 185.816406 C 87.628906 186.132812 87.523438 186.449219 87.304688 186.683594 C 87.089844 186.917969 86.78125 187.042969 86.457031 187.03125 C 86.171875 187.015625 85.917969 187.113281 85.773438 187.300781 C 85.59375 187.527344 85.570312 187.910156 85.707031 188.371094 C 85.910156 189.058594 86.964844 189.613281 88.535156 189.847656 C 88.964844 189.914062 89.332031 190.207031 89.492188 190.609375 C 90.703125 193.644531 90.730469 196.066406 89.566406 197.808594 C 88.410156 199.550781 86.386719 200.109375 85.234375 200.289062 Z M 91.0625 204.664062 C 84.75 204.667969 83.738281 199.90625 83.726562 199.851562 C 83.691406 199.664062 83.738281 199.472656 83.859375 199.324219 C 83.980469 199.171875 84.160156 199.085938 84.351562 199.082031 C 84.378906 199.082031 87.226562 199.003906 88.496094 197.085938 C 89.398438 195.722656 89.335938 193.71875 88.304688 191.121094 C 87.0625 190.929688 84.945312 190.363281 84.46875 188.738281 C 84.210938 187.863281 84.3125 187.070312 84.753906 186.503906 C 85.117188 186.042969 85.667969 185.769531 86.289062 185.738281 L 86.269531 185.589844 C 86.101562 184.144531 85.816406 181.722656 87.226562 180.484375 C 89.578125 178.417969 91.152344 177.550781 92.316406 177.648438 C 92.808594 177.695312 93.226562 177.921875 93.527344 178.300781 C 93.78125 178.621094 94.023438 179.003906 94.28125 179.414062 C 95.019531 180.589844 95.855469 181.921875 97.316406 182.503906 C 97.554688 182.597656 97.742188 182.78125 97.839844 183.027344 C 97.957031 183.316406 97.941406 183.667969 97.804688 183.96875 L 97.355469 185.113281 C 97.339844 185.226562 97.382812 185.515625 97.4375 185.640625 C 97.484375 185.75 97.539062 185.882812 97.601562 186.023438 C 98.304688 187.660156 98.507812 188.277344 98.316406 188.726562 C 98.042969 189.363281 96.757812 190.097656 95.769531 190.582031 L 97.265625 197.5625 C 97.28125 197.628906 97.300781 197.695312 97.324219 197.746094 L 100.167969 197.957031 C 100.515625 197.984375 100.777344 198.28125 100.761719 198.628906 C 100.753906 198.816406 100.476562 203.214844 93.765625 204.410156 C 92.769531 204.585938 91.871094 204.664062 91.0625 204.664062 " fill-opacity="1" fill-rule="nonzero"/><path fill="#ffffff" d="M 118.628906 247.570312 C 118.628906 247.570312 123.4375 245.863281 126.769531 246.800781 C 126.769531 246.800781 127.269531 248.882812 128.710938 249.8125 C 130.148438 250.738281 133.671875 251.171875 134.34375 253.171875 C 135.019531 255.175781 127.96875 257.101562 125.453125 256.085938 C 122.9375 255.070312 120.664062 252.542969 118.277344 252.660156 C 115.890625 252.78125 118.628906 247.570312 118.628906 247.570312 " fill-opacity="1" fill-rule="nonzero"/><path fill="#000000" d="M 118.441406 252.011719 C 120.058594 252.011719 121.5625 253 123.019531 253.957031 C 123.894531 254.53125 124.796875 255.125 125.695312 255.488281 C 127.402344 256.175781 132.042969 255.222656 133.453125 253.894531 C 133.582031 253.773438 133.789062 253.546875 133.734375 253.378906 C 133.378906 252.320312 131.785156 251.746094 130.382812 251.238281 C 129.613281 250.957031 128.890625 250.695312 128.359375 250.355469 C 127.109375 249.550781 126.488281 248.046875 126.257812 247.339844 C 123.589844 246.753906 120.027344 247.792969 119.082031 248.097656 C 118.324219 249.613281 117.714844 251.503906 118.011719 251.96875 C 118.046875 252.023438 118.1875 252.019531 118.246094 252.015625 C 118.3125 252.011719 118.378906 252.011719 118.441406 252.011719 Z M 127.328125 257.011719 C 126.503906 257.011719 125.765625 256.910156 125.210938 256.683594 C 124.195312 256.273438 123.238281 255.648438 122.3125 255.039062 C 120.90625 254.113281 119.582031 253.242188 118.308594 253.308594 C 117.492188 253.355469 117.089844 252.921875 116.925781 252.664062 C 116.058594 251.308594 117.570312 248.191406 118.058594 247.269531 C 118.132812 247.125 118.257812 247.015625 118.414062 246.960938 C 118.617188 246.890625 123.453125 245.195312 126.945312 246.179688 C 127.171875 246.242188 127.34375 246.421875 127.398438 246.652344 C 127.402344 246.667969 127.859375 248.496094 129.058594 249.269531 C 129.464844 249.53125 130.125 249.769531 130.820312 250.023438 C 132.5 250.628906 134.402344 251.320312 134.957031 252.96875 C 135.082031 253.332031 135.164062 254.058594 134.339844 254.835938 C 132.988281 256.109375 129.777344 257.011719 127.328125 257.011719 " fill-opacity="1" fill-rule="nonzero"/><path fill="#bd316b" d="M 85.667969 221.085938 L 91.273438 234.03125 C 92.429688 236.707031 94.6875 238.75 97.464844 239.644531 L 118.964844 246.539062 L 118.460938 254.007812 C 118.460938 254.007812 90.214844 251.359375 85.332031 247.753906 C 80.757812 244.386719 75.011719 228.828125 75.011719 228.828125 L 85.667969 221.085938 " fill-opacity="1" fill-rule="nonzero"/><path fill="#000000" d="M 118.964844 247.1875 C 118.898438 247.1875 118.832031 247.175781 118.765625 247.15625 L 97.265625 240.257812 C 94.3125 239.308594 91.910156 237.132812 90.679688 234.285156 L 85.074219 221.34375 C 84.933594 221.015625 85.082031 220.636719 85.410156 220.492188 C 85.738281 220.351562 86.117188 220.503906 86.257812 220.828125 L 91.863281 233.773438 C 92.949219 236.277344 95.0625 238.195312 97.660156 239.027344 L 119.160156 245.925781 C 119.5 246.035156 119.6875 246.398438 119.578125 246.738281 C 119.492188 247.011719 119.238281 247.1875 118.964844 247.1875 " fill-opacity="1" fill-rule="nonzero"/><path fill="#000000" d="M 111.859375 253.941406 C 111.832031 253.941406 111.808594 253.941406 111.78125 253.9375 C 101.378906 252.710938 88.28125 250.734375 84.949219 248.277344 C 83.460938 247.179688 81.734375 244.804688 79.816406 241.21875 C 79.648438 240.902344 79.769531 240.511719 80.082031 240.339844 C 80.394531 240.175781 80.789062 240.292969 80.957031 240.605469 C 82.785156 244.023438 84.382812 246.253906 85.714844 247.234375 C 88.101562 248.996094 97.65625 250.972656 111.933594 252.65625 C 112.289062 252.695312 112.542969 253.015625 112.5 253.371094 C 112.460938 253.699219 112.179688 253.941406 111.859375 253.941406 " fill-opacity="1" fill-rule="nonzero"/><path fill="#ffffff" d="M 173.28125 218.96875 C 172.453125 215.503906 162.703125 214.363281 161.621094 215.988281 C 159.109375 219.769531 154.800781 229.25 152.496094 234.46875 C 151.464844 236.800781 149.695312 238.730469 147.460938 239.960938 L 134.453125 247.109375 C 133.761719 246.933594 127.394531 245.308594 126.757812 245.441406 C 126.085938 245.582031 125.292969 246.835938 123.625 247.78125 C 121.957031 248.722656 120.699219 249.285156 121.09375 250.015625 C 121.445312 250.664062 124.574219 250.410156 126.773438 249.445312 C 127.214844 249.25 127.738281 249.363281 128.066406 249.722656 C 128.851562 250.585938 132.304688 252.125 135.402344 252.109375 L 156.257812 248.6875 C 158.429688 248.328125 160.339844 247.054688 161.496094 245.179688 C 165.480469 238.738281 174.390625 223.609375 173.28125 218.96875 " fill-opacity="1" fill-rule="nonzero"/><path fill="#000000" d="M 127.222656 248.703125 C 127.714844 248.703125 128.195312 248.90625 128.542969 249.289062 C 129.148438 249.957031 132.34375 251.460938 135.351562 251.460938 L 156.152344 248.046875 C 158.140625 247.722656 159.890625 246.554688 160.949219 244.839844 C 169.007812 231.796875 173.382812 222.183594 172.652344 219.121094 C 172.351562 217.855469 170.203125 216.695312 167.183594 216.15625 C 164.308594 215.644531 162.382812 216.007812 162.160156 216.347656 C 159.683594 220.078125 155.414062 229.464844 153.085938 234.730469 C 152.003906 237.175781 150.117188 239.234375 147.773438 240.523438 L 134.765625 247.675781 C 134.621094 247.753906 134.453125 247.777344 134.292969 247.738281 C 131.085938 246.914062 127.40625 246.058594 126.851562 246.082031 C 126.746094 246.105469 126.375 246.445312 126.078125 246.714844 C 125.574219 247.175781 124.886719 247.8125 123.941406 248.34375 C 123.738281 248.457031 123.539062 248.566406 123.347656 248.675781 C 122.773438 248.992188 122.015625 249.410156 121.75 249.675781 C 122.441406 249.832031 124.628906 249.679688 126.511719 248.851562 C 126.742188 248.75 126.984375 248.703125 127.222656 248.703125 Z M 135.363281 252.753906 C 132.21875 252.753906 128.542969 251.210938 127.589844 250.160156 C 127.445312 250.003906 127.21875 249.953125 127.035156 250.035156 C 125.136719 250.871094 121.222656 251.613281 120.527344 250.324219 C 119.875 249.117188 121.195312 248.390625 122.722656 247.542969 C 122.910156 247.441406 123.105469 247.332031 123.308594 247.214844 C 124.121094 246.757812 124.722656 246.207031 125.207031 245.765625 C 125.726562 245.289062 126.136719 244.914062 126.625 244.8125 C 127.148438 244.699219 129.753906 245.242188 134.367188 246.421875 L 147.148438 239.390625 C 149.25 238.238281 150.9375 236.398438 151.90625 234.207031 C 154.246094 228.90625 158.554688 219.441406 161.085938 215.632812 C 162.164062 214.007812 166.875 214.792969 167.410156 214.886719 C 168.773438 215.128906 173.265625 216.128906 173.910156 218.820312 C 175.035156 223.527344 166.960938 237.570312 162.046875 245.519531 C 160.792969 247.550781 158.71875 248.9375 156.363281 249.324219 L 135.507812 252.746094 C 135.460938 252.753906 135.410156 252.753906 135.363281 252.753906 " fill-opacity="1" fill-rule="nonzero"/><path fill="#ffffff" d="M 214.675781 352.332031 L 214.230469 360.53125 L 208.75 361.453125 L 208.261719 351.785156 L 214.675781 352.332031 " fill-opacity="1" fill-rule="nonzero"/><path fill="#000000" d="M 208.945312 352.492188 L 209.359375 360.695312 L 213.613281 359.976562 L 213.996094 352.921875 Z M 208.75 362.097656 C 208.601562 362.097656 208.460938 362.050781 208.34375 361.957031 C 208.199219 361.839844 208.113281 361.667969 208.105469 361.484375 L 207.617188 351.816406 C 207.609375 351.632812 207.679688 351.449219 207.8125 351.320312 C 207.949219 351.191406 208.132812 351.125 208.316406 351.140625 L 214.726562 351.6875 C 215.078125 351.71875 215.339844 352.019531 215.320312 352.367188 L 214.875 360.5625 C 214.855469 360.863281 214.636719 361.117188 214.335938 361.164062 L 208.855469 362.089844 C 208.820312 362.097656 208.785156 362.097656 208.75 362.097656 " fill-opacity="1" fill-rule="nonzero"/><path fill="#bd316b" d="M 208.597656 375.691406 C 210.910156 375.898438 214.691406 375.992188 219.082031 375.15625 C 220.523438 374.886719 221.414062 373.429688 220.992188 372.027344 C 219.820312 368.117188 217.761719 360.695312 214.707031 357.359375 L 214.085938 359.28125 L 213.007812 357.554688 C 212.863281 357.316406 212.609375 357.167969 212.332031 357.144531 L 210.15625 356.980469 C 209.699219 356.945312 209.292969 357.265625 209.222656 357.714844 L 208.960938 359.371094 L 208.097656 357.261719 L 206.367188 373.039062 C 206.261719 374.382812 207.25 375.570312 208.597656 375.691406 " fill-opacity="1" fill-rule="nonzero"/><path fill="#000000" d="M 208.652344 375.046875 C 210.996094 375.257812 214.683594 375.339844 218.964844 374.523438 C 219.472656 374.425781 219.917969 374.117188 220.1875 373.675781 C 220.457031 373.230469 220.523438 372.710938 220.375 372.210938 L 220.121094 371.367188 C 219.050781 367.769531 217.328125 361.96875 214.957031 358.691406 L 214.699219 359.480469 C 214.625 359.71875 214.414062 359.890625 214.164062 359.921875 C 213.910156 359.953125 213.671875 359.835938 213.539062 359.625 L 212.460938 357.894531 C 212.421875 357.835938 212.355469 357.792969 212.285156 357.789062 L 210.105469 357.625 C 209.980469 357.621094 209.878906 357.699219 209.859375 357.816406 L 209.597656 359.472656 C 209.554688 359.757812 209.324219 359.980469 209.035156 360.011719 C 208.820312 360.035156 208.605469 359.949219 208.46875 359.792969 L 207.011719 373.109375 C 206.933594 374.082031 207.667969 374.960938 208.652344 375.046875 Z M 211.871094 376.480469 C 210.585938 376.480469 209.460938 376.417969 208.539062 376.335938 C 206.851562 376.183594 205.585938 374.679688 205.726562 372.984375 L 207.457031 357.191406 C 207.488281 356.894531 207.714844 356.664062 208.007812 356.621094 C 208.296875 356.578125 208.582031 356.742188 208.695312 357.015625 L 208.746094 357.140625 C 209.023438 356.621094 209.582031 356.296875 210.203125 356.335938 L 212.382812 356.5 C 212.863281 356.535156 213.300781 356.804688 213.554688 357.210938 L 213.898438 357.761719 L 214.09375 357.160156 C 214.164062 356.941406 214.34375 356.777344 214.570312 356.726562 C 214.792969 356.679688 215.027344 356.753906 215.183594 356.921875 C 218.132812 360.140625 220.152344 366.9375 221.359375 371 L 221.609375 371.839844 C 221.863281 372.679688 221.746094 373.597656 221.289062 374.34375 C 220.832031 375.101562 220.074219 375.625 219.203125 375.792969 C 216.464844 376.3125 213.957031 376.480469 211.871094 376.480469 " fill-opacity="1" fill-rule="nonzero"/><path fill="#000000" d="M 213.582031 373.78125 C 210.476562 373.78125 208.136719 373.25 207.984375 373.214844 C 207.636719 373.132812 207.421875 372.789062 207.503906 372.4375 C 207.582031 372.089844 207.933594 371.875 208.277344 371.957031 C 208.332031 371.96875 213.996094 373.246094 219.246094 371.765625 C 219.589844 371.671875 219.945312 371.871094 220.042969 372.210938 C 220.140625 372.554688 219.9375 372.914062 219.59375 373.007812 C 217.523438 373.59375 215.417969 373.78125 213.582031 373.78125 " fill-opacity="1" fill-rule="nonzero"/><path fill="#000000" d="M 210.703125 367.707031 C 210.351562 367.707031 210.0625 367.425781 210.054688 367.074219 C 210.050781 366.71875 210.335938 366.421875 210.691406 366.417969 L 215.867188 366.328125 C 215.871094 366.328125 215.875 366.328125 215.878906 366.328125 C 216.230469 366.328125 216.519531 366.609375 216.523438 366.960938 C 216.53125 367.316406 216.246094 367.613281 215.890625 367.621094 L 210.714844 367.707031 C 210.710938 367.707031 210.707031 367.707031 210.703125 367.707031 " fill-opacity="1" fill-rule="nonzero"/><path fill="#ffffff" d="M 188.632812 349.292969 L 188.40625 361.234375 L 181.773438 361.566406 L 180.863281 349.683594 L 188.632812 349.292969 " fill-opacity="1" fill-rule="nonzero"/><path fill="#000000" d="M 181.558594 350.296875 L 182.367188 360.890625 L 187.773438 360.621094 L 187.976562 349.972656 Z M 181.773438 362.210938 C 181.4375 362.210938 181.15625 361.957031 181.128906 361.617188 L 180.21875 349.734375 C 180.207031 349.558594 180.265625 349.390625 180.378906 349.257812 C 180.496094 349.125 180.660156 349.046875 180.832031 349.039062 L 188.601562 348.648438 C 188.777344 348.640625 188.953125 348.703125 189.082031 348.828125 C 189.210938 348.953125 189.28125 349.125 189.28125 349.304688 L 189.050781 361.246094 C 189.046875 361.585938 188.777344 361.863281 188.441406 361.878906 L 181.804688 362.210938 C 181.792969 362.210938 181.785156 362.210938 181.773438 362.210938 " fill-opacity="1" fill-rule="nonzero"/><path fill="#bd316b" d="M 190.480469 367.863281 C 190.554688 368.988281 189.832031 370.015625 188.75 370.324219 C 184.980469 371.40625 176.488281 373.8125 174.058594 374.300781 C 170.898438 374.9375 166.941406 374.160156 165.167969 372.382812 C 163.394531 370.609375 168.613281 365.890625 171.117188 364.144531 C 174.832031 361.550781 178.28125 356.617188 179.816406 356.328125 C 181.351562 356.035156 184.464844 360.375 184.464844 360.375 L 189.078125 358.15625 C 189.078125 358.15625 190.105469 362.15625 190.480469 367.863281 " fill-opacity="1" fill-rule="nonzero"/><path fill="#000000" d="M 179.992188 356.957031 C 179.972656 356.957031 179.953125 356.960938 179.9375 356.960938 C 179.371094 357.070312 177.972656 358.539062 176.738281 359.832031 C 175.167969 361.480469 173.390625 363.34375 171.484375 364.675781 C 169.117188 366.328125 165.609375 369.664062 165.457031 371.378906 C 165.429688 371.6875 165.53125 371.835938 165.625 371.929688 C 167.1875 373.492188 170.910156 374.277344 173.929688 373.671875 C 176.355469 373.183594 184.976562 370.734375 188.570312 369.707031 C 189.355469 369.480469 189.886719 368.722656 189.835938 367.90625 C 189.5625 363.761719 188.941406 360.503906 188.632812 359.089844 L 184.742188 360.957031 C 184.460938 361.09375 184.121094 361.007812 183.9375 360.753906 C 182.453125 358.683594 180.652344 356.957031 179.992188 356.957031 Z M 171.78125 375.164062 C 168.980469 375.164062 166.15625 374.285156 164.710938 372.839844 C 164.304688 372.433594 164.117188 371.886719 164.171875 371.265625 C 164.40625 368.601562 169.113281 364.753906 170.746094 363.613281 C 172.546875 362.359375 174.277344 360.542969 175.804688 358.941406 C 177.667969 356.984375 178.765625 355.871094 179.695312 355.695312 C 181.300781 355.386719 183.621094 358.175781 184.664062 359.5625 L 188.800781 357.574219 C 188.972656 357.492188 189.179688 357.488281 189.351562 357.574219 C 189.527344 357.652344 189.660156 357.808594 189.707031 357.996094 C 189.75 358.164062 190.75 362.121094 191.125 367.820312 C 191.214844 369.242188 190.292969 370.554688 188.925781 370.945312 C 185.320312 371.980469 176.65625 374.441406 174.183594 374.9375 C 173.410156 375.089844 172.597656 375.164062 171.78125 375.164062 " fill-opacity="1" fill-rule="nonzero"/><path fill="#000000" d="M 171.480469 372.976562 C 169.359375 372.976562 167.492188 372.566406 166.195312 371.507812 C 165.917969 371.28125 165.875 370.875 166.101562 370.601562 C 166.328125 370.324219 166.734375 370.28125 167.011719 370.507812 C 171.167969 373.898438 183.898438 369.101562 188.453125 366.964844 C 188.777344 366.816406 189.160156 366.953125 189.3125 367.277344 C 189.460938 367.601562 189.324219 367.984375 189 368.136719 C 188.460938 368.390625 178.570312 372.976562 171.480469 372.976562 " fill-opacity="1" fill-rule="nonzero"/><path fill="#000000" d="M 179.34375 365.386719 C 179.199219 365.386719 179.054688 365.339844 178.9375 365.242188 L 175.410156 362.371094 C 175.132812 362.144531 175.089844 361.738281 175.316406 361.460938 C 175.542969 361.183594 175.949219 361.144531 176.226562 361.367188 L 179.753906 364.242188 C 180.027344 364.464844 180.070312 364.871094 179.84375 365.148438 C 179.71875 365.304688 179.53125 365.386719 179.34375 365.386719 " fill-opacity="1" fill-rule="nonzero"/><path fill="#bd316b" d="M 212.425781 270.324219 C 212.425781 270.324219 216.355469 307.421875 218.078125 320.207031 C 219.804688 332.992188 217.253906 353.8125 217.253906 353.8125 L 206.988281 353.792969 C 206.988281 353.792969 205.019531 328.730469 203.90625 321.800781 C 203.90625 321.800781 199.105469 312.570312 197.398438 304.207031 C 195.691406 295.847656 190.652344 282.757812 190.652344 282.757812 C 190.652344 282.757812 190.457031 349.367188 190.378906 354.605469 C 190.378906 354.605469 182.367188 355.367188 179.394531 353.699219 C 179.394531 353.699219 173.074219 329.734375 173.140625 316.519531 C 173.210938 303.300781 170.753906 270.597656 170.753906 270.597656 L 212.425781 270.324219 " fill-opacity="1" fill-rule="nonzero"/><path fill="#ffffff" d="M 205.792969 322.347656 C 205.449219 322.347656 205.164062 322.078125 205.144531 321.734375 C 205.128906 321.378906 205.402344 321.074219 205.757812 321.058594 L 208.890625 320.902344 C 209.242188 320.894531 209.546875 321.15625 209.566406 321.511719 C 209.582031 321.867188 209.3125 322.171875 208.953125 322.191406 L 205.824219 322.347656 C 205.8125 322.347656 205.800781 322.347656 205.792969 322.347656 " fill-opacity="1" fill-rule="nonzero"/><path fill="#ffffff" d="M 184.46875 342.792969 C 184.132812 342.792969 183.847656 342.535156 183.824219 342.191406 C 183.421875 336.316406 176.039062 325.523438 175.964844 325.414062 C 175.761719 325.121094 175.835938 324.71875 176.132812 324.515625 C 176.425781 324.316406 176.828125 324.390625 177.03125 324.683594 C 177.339844 325.136719 184.683594 335.878906 185.113281 342.105469 C 185.136719 342.460938 184.871094 342.765625 184.515625 342.792969 C 184.5 342.792969 184.484375 342.792969 184.46875 342.792969 " fill-opacity="1" fill-rule="nonzero"/><path fill="#000000" d="M 222.222656 227.417969 C 222.222656 227.417969 217.667969 205.410156 205.253906 200.566406 C 192.839844 195.71875 173.453125 198.476562 169.0625 201.429688 C 164.671875 204.382812 158.128906 218.195312 158.128906 218.195312 L 166.410156 230.484375 C 166.410156 230.484375 167.246094 269.488281 169.652344 279.742188 C 169.652344 279.742188 181.324219 280.511719 186.148438 278.324219 C 190.96875 276.136719 207.019531 272.605469 214.933594 275.773438 L 211.023438 226.210938 L 222.222656 227.417969 " fill-opacity="1" fill-rule="nonzero"/><path fill="#000000" d="M 203.753906 266.722656 C 203.726562 266.722656 203.699219 266.722656 203.671875 266.71875 C 184.519531 264.324219 178.28125 251.34375 178.21875 251.214844 C 178.070312 250.890625 178.207031 250.507812 178.53125 250.359375 C 178.855469 250.207031 179.238281 250.34375 179.390625 250.667969 C 179.449219 250.792969 185.421875 263.132812 203.832031 265.441406 C 204.1875 265.484375 204.4375 265.804688 204.390625 266.160156 C 204.351562 266.488281 204.074219 266.722656 203.753906 266.722656 " fill-opacity="1" fill-rule="nonzero"/><path fill="#ffd2e5" d="M 175.605469 246.675781 L 195.542969 245.121094 L 186.234375 215.382812 C 186.039062 214.753906 185.417969 214.359375 184.765625 214.445312 L 164.382812 217.199219 C 163.953125 217.257812 163.691406 217.707031 163.859375 218.109375 L 175.605469 246.675781 " fill-opacity="1" fill-rule="nonzero"/><path fill="#ffffff" d="M 220.144531 227.605469 L 207.917969 222.863281 C 207.917969 222.863281 210.625 243.035156 185.964844 234.902344 C 185.964844 234.902344 186.726562 232.253906 186.445312 229.21875 C 186.167969 226.1875 184.496094 229.21875 184.363281 231.703125 C 184.234375 234.1875 178.503906 233.472656 175.042969 232.667969 C 171.582031 231.867188 167.132812 232.730469 175.246094 236.6875 C 183.359375 240.640625 184.988281 238.613281 184.988281 238.613281 C 184.988281 238.613281 195.78125 252.207031 208.167969 248.578125 C 223.40625 244.117188 220.144531 227.605469 220.144531 227.605469 " fill-opacity="1" fill-rule="nonzero"/><path fill="#000000" d="M 185.015625 237.917969 C 185.210938 237.917969 185.371094 238.054688 185.496094 238.210938 C 185.597656 238.34375 196.167969 251.421875 207.988281 247.960938 C 221.457031 244.015625 219.949219 230.480469 219.570312 228.074219 L 208.640625 223.835938 C 208.738281 226.128906 208.503906 231.574219 204.515625 234.886719 C 200.617188 238.121094 194.304688 238.335938 185.761719 235.515625 C 185.433594 235.40625 185.25 235.058594 185.34375 234.726562 C 185.351562 234.699219 186.066406 232.148438 185.800781 229.277344 C 185.789062 229.152344 185.777344 229.042969 185.761719 228.949219 C 185.457031 229.511719 185.070312 230.585938 185.011719 231.738281 C 184.976562 232.355469 184.691406 232.886719 184.179688 233.269531 C 182.183594 234.773438 177.023438 233.789062 174.898438 233.296875 C 173.109375 232.882812 171.628906 233.050781 171.324219 233.285156 C 171.394531 233.480469 171.902344 234.335938 175.527344 236.105469 C 182.808594 239.65625 184.5 238.191406 184.515625 238.175781 C 184.625 237.996094 184.773438 237.929688 184.988281 237.917969 C 184.996094 237.917969 185.003906 237.917969 185.015625 237.917969 Z M 203.824219 249.851562 C 194.332031 249.851562 186.652344 241.566406 184.863281 239.472656 C 183.773438 239.972656 181.09375 240.257812 174.960938 237.269531 C 171.167969 235.414062 169.664062 234.058594 170.089844 232.859375 C 170.605469 231.398438 173.652344 231.683594 175.1875 232.039062 C 178.417969 232.789062 182.207031 233.140625 183.402344 232.238281 C 183.609375 232.082031 183.707031 231.90625 183.71875 231.667969 C 183.800781 230.117188 184.59375 227.328125 185.882812 227.300781 C 185.890625 227.300781 185.898438 227.300781 185.90625 227.300781 C 186.917969 227.300781 187.046875 228.699219 187.089844 229.160156 C 187.296875 231.441406 186.949219 233.492188 186.734375 234.472656 C 194.539062 236.949219 200.238281 236.757812 203.6875 233.890625 C 208.1875 230.160156 207.289062 223.019531 207.277344 222.949219 C 207.25 222.722656 207.339844 222.496094 207.519531 222.355469 C 207.699219 222.214844 207.941406 222.179688 208.152344 222.261719 L 220.378906 227.003906 C 220.585938 227.082031 220.734375 227.261719 220.777344 227.480469 C 220.8125 227.652344 223.976562 244.621094 208.351562 249.199219 C 206.808594 249.652344 205.292969 249.851562 203.824219 249.851562 " fill-opacity="1" fill-rule="nonzero"/><path fill="#000000" d="M 186.324219 191.382812 C 187.402344 192.277344 189.480469 193.332031 191.023438 192.457031 C 192.167969 191.804688 192.75 190.238281 192.617188 188.476562 C 193.164062 188.496094 193.878906 188.421875 194.363281 187.945312 C 195.113281 187.214844 194.902344 185.941406 194.832031 185.109375 C 194.492188 181.246094 196.710938 180.539062 196.027344 177.9375 C 195.492188 175.894531 193.808594 174.75 193.496094 174.535156 C 191.90625 173.449219 190.886719 173.878906 188.28125 173.332031 C 183.890625 172.417969 183.660156 170.558594 180.808594 170.691406 C 180.640625 170.699219 176.761719 170.9375 175.578125 173.6875 C 174.617188 175.925781 176.003906 178.511719 177.367188 179.839844 C 179.132812 181.558594 180.292969 180.605469 182.050781 182.035156 C 185.136719 184.542969 183.113281 188.730469 186.324219 191.382812 " fill-opacity="1" fill-rule="nonzero"/><path fill="#ffffff" d="M 177.332031 184.914062 L 177.496094 184.757812 C 178.316406 183.976562 179.164062 183.074219 179.335938 181.953125 C 180.066406 177.195312 184.296875 175.269531 184.710938 179.585938 C 184.816406 180.671875 188.800781 180.414062 188.386719 181.585938 C 187.304688 184.636719 187.234375 183.832031 189.03125 184.84375 C 189.230469 184.84375 189.425781 184.875 189.613281 184.953125 C 190.527344 185.324219 190.90625 186.519531 190.457031 187.625 C 190.1875 188.292969 189.671875 188.773438 189.105469 188.964844 L 189.34375 193.683594 C 189.433594 195.453125 190.582031 196.992188 192.253906 197.582031 L 193.878906 198.152344 C 193.878906 198.152344 186.695312 203.375 178.882812 198.433594 L 179.867188 197.929688 C 181.601562 197.042969 182.675781 195.25 182.640625 193.304688 L 182.601562 192.382812 C 182.097656 192.453125 181.605469 192.441406 181.144531 192.332031 C 179.003906 191.824219 178.179688 189.429688 178.386719 186.390625 L 177.503906 185.972656 C 177.09375 185.777344 177.003906 185.230469 177.332031 184.914062 " fill-opacity="1" fill-rule="nonzero"/><path fill="#000000" d="M 180.234375 198.464844 C 185.441406 201.1875 190.242188 199.398438 192.359375 198.300781 L 192.039062 198.1875 C 190.113281 197.511719 188.800781 195.757812 188.699219 193.71875 L 188.460938 189 C 188.445312 188.710938 188.625 188.445312 188.898438 188.351562 C 189.308594 188.214844 189.671875 187.851562 189.859375 187.382812 C 190.167969 186.621094 189.945312 185.785156 189.375 185.550781 C 189.273438 185.511719 189.152344 185.488281 189.035156 185.492188 C 188.914062 185.488281 188.8125 185.460938 188.714844 185.410156 C 188.414062 185.238281 188.167969 185.125 187.96875 185.03125 C 186.648438 184.40625 186.859375 183.835938 187.375 182.460938 C 187.472656 182.199219 187.59375 181.886719 187.726562 181.511719 C 187.464844 181.378906 186.863281 181.242188 186.476562 181.15625 C 185.339844 180.898438 184.164062 180.632812 184.070312 179.644531 C 184.019531 179.105469 183.804688 177.851562 182.96875 177.828125 C 182.960938 177.828125 182.953125 177.828125 182.941406 177.828125 C 181.984375 177.828125 180.394531 179.3125 179.976562 182.054688 C 179.769531 183.386719 178.820312 184.390625 177.941406 185.226562 L 177.777344 185.382812 L 178.664062 185.804688 C 178.902344 185.921875 179.046875 186.167969 179.03125 186.433594 C 178.933594 187.835938 178.964844 191.152344 181.292969 191.703125 C 181.660156 191.792969 182.070312 191.804688 182.511719 191.742188 C 182.691406 191.714844 182.875 191.769531 183.015625 191.882812 C 183.15625 192.003906 183.238281 192.171875 183.246094 192.351562 L 183.285156 193.277344 C 183.324219 195.441406 182.132812 197.460938 180.234375 198.464844 Z M 185.960938 201.1875 C 183.699219 201.1875 181.144531 200.628906 178.539062 198.976562 C 178.34375 198.851562 178.226562 198.632812 178.238281 198.398438 C 178.25 198.167969 178.382812 197.960938 178.589844 197.855469 L 179.574219 197.355469 C 181.078125 196.585938 182.027344 195.003906 181.992188 193.316406 L 181.984375 193.070312 C 181.648438 193.054688 181.308594 193.035156 180.996094 192.960938 C 178.773438 192.433594 177.59375 190.195312 177.71875 186.789062 L 177.226562 186.554688 C 176.84375 186.375 176.570312 186.011719 176.503906 185.59375 C 176.433594 185.171875 176.578125 184.742188 176.886719 184.449219 L 177.050781 184.292969 C 177.773438 183.601562 178.554688 182.789062 178.699219 181.859375 C 179.21875 178.464844 181.308594 176.507812 183.003906 176.535156 C 183.484375 176.550781 185.066406 176.800781 185.347656 179.457031 C 185.554688 179.621094 186.335938 179.800781 186.765625 179.898438 C 187.746094 180.121094 188.597656 180.3125 188.933594 180.921875 C 189.082031 181.191406 189.101562 181.496094 188.996094 181.800781 C 188.835938 182.246094 188.699219 182.613281 188.585938 182.910156 C 188.460938 183.246094 188.339844 183.566406 188.289062 183.75 C 188.355469 183.785156 188.445312 183.824219 188.519531 183.859375 C 188.695312 183.945312 188.929688 184.054688 189.210938 184.203125 C 189.4375 184.222656 189.65625 184.273438 189.859375 184.355469 C 191.101562 184.859375 191.636719 186.4375 191.058594 187.867188 C 190.789062 188.519531 190.335938 189.046875 189.773438 189.367188 L 189.988281 193.652344 C 190.066406 195.164062 191.039062 196.46875 192.46875 196.96875 L 194.09375 197.542969 C 194.320312 197.621094 194.484375 197.820312 194.519531 198.058594 C 194.554688 198.292969 194.457031 198.53125 194.261719 198.671875 C 194.210938 198.710938 190.722656 201.1875 185.960938 201.1875 " fill-opacity="1" fill-rule="nonzero"/><path fill="#000000" d="M 182.601562 193.027344 C 182.300781 193.027344 182.03125 192.816406 181.96875 192.511719 C 181.898438 192.160156 182.121094 191.820312 182.472656 191.746094 C 185.042969 191.222656 186.121094 189.160156 186.132812 189.140625 C 186.292969 188.820312 186.679688 188.695312 186.996094 188.859375 C 187.316406 189.019531 187.445312 189.40625 187.28125 189.726562 C 187.226562 189.835938 185.90625 192.359375 182.730469 193.011719 C 182.6875 193.023438 182.644531 193.027344 182.601562 193.027344 " fill-opacity="1" fill-rule="nonzero"/><path fill="#ffffff" d="M 376.253906 331.257812 C 376.253906 331.257812 372.328125 313.222656 381.128906 298.769531 C 381.425781 298.289062 383.394531 299.386719 383.71875 298.910156 C 384.128906 298.304688 382.90625 296.128906 383.371094 295.539062 C 385.09375 293.347656 387.167969 291.292969 389.664062 289.453125 C 389.664062 289.453125 391.695312 294.988281 391.296875 302.753906 C 391.265625 303.339844 388.625 304.347656 388.5625 304.957031 C 388.507812 305.53125 391.039062 305.710938 390.949219 306.304688 C 389.839844 314 386.105469 323.179688 376.253906 331.257812 " fill-opacity="1" fill-rule="nonzero"/><path fill="#bd316b" d="M 373.9375 307.300781 C 373.679688 306.664062 370.742188 308.015625 370.46875 307.402344 C 370.203125 306.800781 372.402344 303.453125 372.121094 302.878906 C 366.628906 291.554688 359.105469 285.144531 359.105469 285.144531 C 356.894531 289.789062 355.609375 294.441406 355.027344 299 C 354.933594 299.726562 357.953125 301.714844 357.890625 302.4375 C 357.828125 303.230469 354.800781 303.5 354.777344 304.289062 C 354.433594 315.898438 357.117188 324.164062 361.394531 332.359375 C 366.757812 331.933594 372.886719 332.789062 377.585938 331.382812 C 378.367188 321.816406 376.722656 314.1875 373.9375 307.300781 " fill-opacity="1" fill-rule="nonzero"/><path fill="#ffd2e5" d="M 370.101562 329.789062 C 369.835938 329.789062 369.585938 329.625 369.492188 329.359375 C 368.195312 325.722656 366.984375 322 365.894531 318.296875 C 365.789062 317.957031 365.988281 317.597656 366.328125 317.496094 C 366.671875 317.394531 367.027344 317.589844 367.132812 317.933594 C 368.21875 321.609375 369.417969 325.308594 370.707031 328.925781 C 370.828125 329.261719 370.652344 329.632812 370.320312 329.75 C 370.246094 329.777344 370.171875 329.789062 370.101562 329.789062 " fill-opacity="1" fill-rule="nonzero"/><path fill="#ffd2e5" d="M 365.023438 313.472656 C 364.742188 313.472656 364.480469 313.28125 364.402344 312.992188 C 362.726562 306.707031 361.332031 300.269531 360.253906 293.855469 L 359.757812 290.929688 C 359.699219 290.578125 359.9375 290.246094 360.289062 290.1875 C 360.636719 290.132812 360.972656 290.363281 361.03125 290.71875 L 361.527344 293.644531 C 362.597656 300.015625 363.984375 306.414062 365.648438 312.660156 C 365.742188 313 365.535156 313.355469 365.191406 313.449219 C 365.136719 313.464844 365.082031 313.472656 365.023438 313.472656 " fill-opacity="1" fill-rule="nonzero"/><path fill="#bd316b" d="M 375.464844 332.085938 C 375.464844 332.085938 377.222656 312.816406 398.226562 311.109375 C 398.226562 311.109375 395.070312 327.53125 375.464844 332.085938 " fill-opacity="1" fill-rule="nonzero"/><path fill="#ffd2e5" d="M 380.394531 328.515625 C 380.265625 328.515625 380.128906 328.476562 380.011719 328.390625 C 379.726562 328.179688 379.664062 327.773438 379.875 327.484375 C 383.84375 322.09375 393.113281 314.835938 393.503906 314.53125 C 393.789062 314.3125 394.195312 314.363281 394.410156 314.640625 C 394.632812 314.925781 394.582031 315.328125 394.300781 315.546875 C 394.207031 315.625 384.777344 323.003906 380.917969 328.253906 C 380.789062 328.421875 380.589844 328.515625 380.394531 328.515625 " fill-opacity="1" fill-rule="nonzero"/></svg>