<svg xmlns="http://www.w3.org/2000/svg" xmlns:xlink="http://www.w3.org/1999/xlink" width="240" zoomAndPan="magnify" viewBox="0 0 180 60" height="80" preserveAspectRatio="xMidYMid meet" version="1.0"><defs><g/><clipPath id="79ff5b44ec"><path d="M 2.253906 2.84375 L 73.503906 2.84375 L 73.503906 56.84375 L 2.253906 56.84375 Z M 2.253906 2.84375 " clip-rule="nonzero"/></clipPath><clipPath id="85b48f2026"><path d="M 28 28 L 73.503906 28 L 73.503906 56.84375 L 28 56.84375 Z M 28 28 " clip-rule="nonzero"/></clipPath><clipPath id="df601994c4"><path d="M 50 39 L 66 39 L 66 56.84375 L 50 56.84375 Z M 50 39 " clip-rule="nonzero"/></clipPath></defs><g clip-path="url(#79ff5b44ec)"><path fill="#ed2a7b" d="M 22.597656 39.675781 L 33.773438 20.5 L 38.816406 29.148438 C 41.90625 28.011719 44.78125 27.082031 47.453125 26.316406 L 33.773438 2.84375 L 2.3125 56.839844 L 12.597656 56.839844 C 12.597656 56.839844 48.023438 27.296875 73.308594 26.628906 C 73.308594 26.628906 56.964844 22.316406 22.597656 39.675781 " fill-opacity="1" fill-rule="nonzero"/></g><g clip-path="url(#85b48f2026)"><path fill="#9e1e62" d="M 38.769531 56.839844 C 48.035156 45.613281 60.828125 32.671875 73.433594 28.265625 C 73.433594 28.265625 56.246094 29.15625 28.519531 56.839844 L 38.769531 56.839844 " fill-opacity="1" fill-rule="nonzero"/></g><path fill="#545454" d="M 48.585938 45.914062 L 50.371094 48.972656 L 55.230469 39.667969 C 52.949219 41.644531 50.722656 43.75 48.585938 45.914062 " fill-opacity="1" fill-rule="nonzero"/><g clip-path="url(#df601994c4)"><path fill="#ed2a7b" d="M 65.238281 56.839844 L 55.230469 39.667969 L 50.371094 48.972656 L 54.953125 56.839844 L 65.238281 56.839844 " fill-opacity="1" fill-rule="nonzero"/></g><g fill="#000b26" fill-opacity="1"><g transform="translate(75.742159, 20.022408)"><g><path d="M 5.71875 0 L 4.125 0 L 3.828125 -0.8125 L 1.78125 -0.8125 L 1.484375 0 L -0.0625 0 L 2.09375 -5.046875 L 3.640625 -5.046875 Z M 2.828125 -3.546875 L 2.203125 -1.90625 L 3.421875 -1.90625 Z M 2.828125 -3.546875 "/></g></g></g><g fill="#000b26" fill-opacity="1"><g transform="translate(81.401389, 20.022408)"><g><path d="M 5.71875 0 L 4.125 0 L 3.828125 -0.8125 L 1.78125 -0.8125 L 1.484375 0 L -0.0625 0 L 2.09375 -5.046875 L 3.640625 -5.046875 Z M 2.828125 -3.546875 L 2.203125 -1.90625 L 3.421875 -1.90625 Z M 2.828125 -3.546875 "/></g></g></g><g fill="#000b26" fill-opacity="1"><g transform="translate(87.060618, 20.022408)"><g><path d="M 2.640625 -5.046875 C 3.171875 -5.046875 3.640625 -4.941406 4.046875 -4.734375 C 4.460938 -4.523438 4.785156 -4.226562 5.015625 -3.84375 C 5.242188 -3.46875 5.359375 -3.03125 5.359375 -2.53125 C 5.359375 -2.03125 5.238281 -1.585938 5 -1.203125 C 4.769531 -0.816406 4.445312 -0.519531 4.03125 -0.3125 C 3.613281 -0.101562 3.128906 0 2.578125 0 L 0.421875 0 L 0.421875 -5.046875 Z M 2.671875 -1.171875 C 3.015625 -1.171875 3.289062 -1.289062 3.5 -1.53125 C 3.71875 -1.78125 3.828125 -2.109375 3.828125 -2.515625 C 3.828125 -2.921875 3.710938 -3.25 3.484375 -3.5 C 3.253906 -3.75 2.960938 -3.875 2.609375 -3.875 L 1.921875 -3.875 L 1.921875 -1.171875 Z M 2.671875 -1.171875 "/></g></g></g><g fill="#000b26" fill-opacity="1"><g transform="translate(92.547042, 20.022408)"><g><path d="M 0.421875 0 L 0.421875 -5.046875 L 1.921875 -5.046875 L 1.921875 -3.046875 L 3.71875 -3.046875 L 3.71875 -5.046875 L 5.21875 -5.046875 L 5.21875 0 L 3.71875 0 L 3.71875 -1.875 L 1.921875 -1.875 L 1.921875 0 Z M 0.421875 0 "/></g></g></g><g fill="#000b26" fill-opacity="1"><g transform="translate(98.184675, 20.022408)"><g><path d="M 3.609375 -5.046875 L 5.109375 -5.046875 L 3.296875 -1.59375 L 3.296875 0 L 1.796875 0 L 1.796875 -1.5625 L -0.0625 -5.046875 L 1.4375 -5.046875 L 2.546875 -2.984375 Z M 3.609375 -5.046875 "/></g></g></g><g fill="#000b26" fill-opacity="1"><g transform="translate(103.239099, 20.022408)"><g><path d="M 5.71875 0 L 4.125 0 L 3.828125 -0.8125 L 1.78125 -0.8125 L 1.484375 0 L -0.0625 0 L 2.09375 -5.046875 L 3.640625 -5.046875 Z M 2.828125 -3.546875 L 2.203125 -1.90625 L 3.421875 -1.90625 Z M 2.828125 -3.546875 "/></g></g></g><g fill="#000b26" fill-opacity="1"><g transform="translate(108.898329, 20.022408)"><g/></g></g><g fill="#000b26" fill-opacity="1"><g transform="translate(110.842337, 20.022408)"><g><path d="M 0.421875 0 L 0.421875 -5.046875 L 4.34375 -5.046875 L 4.34375 -3.890625 L 1.921875 -3.890625 L 1.921875 -2.890625 L 4.171875 -2.890625 L 4.171875 -1.734375 L 1.921875 -1.734375 L 1.921875 0 Z M 0.421875 0 "/></g></g></g><g fill="#000b26" fill-opacity="1"><g transform="translate(115.299161, 20.022408)"><g><path d="M 0.421875 0 L 0.421875 -5.046875 L 1.921875 -5.046875 L 1.921875 0 Z M 0.421875 0 "/></g></g></g><g fill="#000b26" fill-opacity="1"><g transform="translate(117.646377, 20.022408)"><g><path d="M 3.84375 -2.234375 L 3.84375 -5.046875 L 5.21875 -5.046875 L 5.21875 0 L 3.9375 0 L 1.796875 -2.8125 L 1.796875 0 L 0.421875 0 L 0.421875 -5.046875 L 1.703125 -5.046875 Z M 3.84375 -2.234375 "/></g></g></g><g fill="#000b26" fill-opacity="1"><g transform="translate(123.284009, 20.022408)"><g><path d="M 4.0625 -3.421875 C 3.789062 -3.578125 3.492188 -3.707031 3.171875 -3.8125 C 2.847656 -3.925781 2.582031 -3.984375 2.375 -3.984375 C 2.25 -3.984375 2.144531 -3.957031 2.0625 -3.90625 C 1.988281 -3.863281 1.953125 -3.789062 1.953125 -3.6875 C 1.953125 -3.5625 2.023438 -3.457031 2.171875 -3.375 C 2.316406 -3.300781 2.546875 -3.222656 2.859375 -3.140625 C 3.210938 -3.035156 3.503906 -2.929688 3.734375 -2.828125 C 3.960938 -2.722656 4.160156 -2.566406 4.328125 -2.359375 C 4.503906 -2.148438 4.59375 -1.875 4.59375 -1.53125 C 4.59375 -1.175781 4.5 -0.878906 4.3125 -0.640625 C 4.132812 -0.398438 3.882812 -0.21875 3.5625 -0.09375 C 3.25 0.03125 2.898438 0.09375 2.515625 0.09375 C 2.078125 0.09375 1.640625 0.0195312 1.203125 -0.125 C 0.773438 -0.28125 0.40625 -0.484375 0.09375 -0.734375 L 0.640625 -1.875 C 0.898438 -1.65625 1.210938 -1.46875 1.578125 -1.3125 C 1.941406 -1.164062 2.257812 -1.09375 2.53125 -1.09375 C 2.6875 -1.09375 2.8125 -1.125 2.90625 -1.1875 C 3 -1.25 3.046875 -1.335938 3.046875 -1.453125 C 3.046875 -1.585938 2.96875 -1.691406 2.8125 -1.765625 C 2.664062 -1.835938 2.4375 -1.914062 2.125 -2 C 1.78125 -2.09375 1.492188 -2.1875 1.265625 -2.28125 C 1.035156 -2.382812 0.832031 -2.535156 0.65625 -2.734375 C 0.488281 -2.941406 0.40625 -3.21875 0.40625 -3.5625 C 0.40625 -3.882812 0.488281 -4.164062 0.65625 -4.40625 C 0.832031 -4.65625 1.078125 -4.84375 1.390625 -4.96875 C 1.710938 -5.101562 2.082031 -5.171875 2.5 -5.171875 C 2.875 -5.171875 3.25 -5.113281 3.625 -5 C 4 -4.894531 4.328125 -4.753906 4.609375 -4.578125 Z M 4.0625 -3.421875 "/></g></g></g><g fill="#000b26" fill-opacity="1"><g transform="translate(128.000037, 20.022408)"><g><path d="M 0.421875 0 L 0.421875 -5.046875 L 4.546875 -5.046875 L 4.546875 -3.890625 L 1.921875 -3.890625 L 1.921875 -3.109375 L 4.3125 -3.109375 L 4.3125 -1.953125 L 1.921875 -1.953125 L 1.921875 -1.15625 L 4.625 -1.15625 L 4.625 0 Z M 0.421875 0 "/></g></g></g><g fill="#000b26" fill-opacity="1"><g transform="translate(132.917663, 20.022408)"><g><path d="M 5.078125 0 L 3.390625 0 L 2.71875 -1.359375 L 1.921875 -1.359375 L 1.921875 0 L 0.421875 0 L 0.421875 -5.046875 L 2.78125 -5.046875 C 3.457031 -5.046875 3.976562 -4.890625 4.34375 -4.578125 C 4.71875 -4.265625 4.90625 -3.820312 4.90625 -3.25 C 4.90625 -2.882812 4.832031 -2.566406 4.6875 -2.296875 C 4.539062 -2.023438 4.332031 -1.8125 4.0625 -1.65625 Z M 1.921875 -3.890625 L 1.921875 -2.515625 L 2.78125 -2.515625 C 3.007812 -2.515625 3.179688 -2.570312 3.296875 -2.6875 C 3.421875 -2.8125 3.484375 -2.988281 3.484375 -3.21875 C 3.484375 -3.4375 3.421875 -3.601562 3.296875 -3.71875 C 3.179688 -3.832031 3.007812 -3.890625 2.78125 -3.890625 Z M 1.921875 -3.890625 "/></g></g></g><g fill="#000b26" fill-opacity="1"><g transform="translate(138.137688, 20.022408)"><g><path d="M 1.90625 0 L -0.015625 -5.046875 L 1.578125 -5.046875 L 2.734375 -1.5625 L 3.875 -5.046875 L 5.421875 -5.046875 L 3.46875 0 Z M 1.90625 0 "/></g></g></g><g fill="#000b26" fill-opacity="1"><g transform="translate(143.523313, 20.022408)"><g><path d="M 0.421875 0 L 0.421875 -5.046875 L 4.546875 -5.046875 L 4.546875 -3.890625 L 1.921875 -3.890625 L 1.921875 -3.109375 L 4.3125 -3.109375 L 4.3125 -1.953125 L 1.921875 -1.953125 L 1.921875 -1.15625 L 4.625 -1.15625 L 4.625 0 Z M 0.421875 0 "/></g></g></g><g fill="#000b26" fill-opacity="1"><g transform="translate(148.440939, 20.022408)"><g/></g></g><g fill="#000b26" fill-opacity="1"><g transform="translate(150.384948, 20.022408)"><g><path d="M 0.421875 0 L 0.421875 -5.046875 L 1.921875 -5.046875 L 1.921875 0 Z M 0.421875 0 "/></g></g></g><g fill="#000b26" fill-opacity="1"><g transform="translate(152.732163, 20.022408)"><g><path d="M 3.84375 -2.234375 L 3.84375 -5.046875 L 5.21875 -5.046875 L 5.21875 0 L 3.9375 0 L 1.796875 -2.8125 L 1.796875 0 L 0.421875 0 L 0.421875 -5.046875 L 1.703125 -5.046875 Z M 3.84375 -2.234375 "/></g></g></g><g fill="#000b26" fill-opacity="1"><g transform="translate(158.369795, 20.022408)"><g><path d="M 2.640625 -5.046875 C 3.171875 -5.046875 3.640625 -4.941406 4.046875 -4.734375 C 4.460938 -4.523438 4.785156 -4.226562 5.015625 -3.84375 C 5.242188 -3.46875 5.359375 -3.03125 5.359375 -2.53125 C 5.359375 -2.03125 5.238281 -1.585938 5 -1.203125 C 4.769531 -0.816406 4.445312 -0.519531 4.03125 -0.3125 C 3.613281 -0.101562 3.128906 0 2.578125 0 L 0.421875 0 L 0.421875 -5.046875 Z M 2.671875 -1.171875 C 3.015625 -1.171875 3.289062 -1.289062 3.5 -1.53125 C 3.71875 -1.78125 3.828125 -2.109375 3.828125 -2.515625 C 3.828125 -2.921875 3.710938 -3.25 3.484375 -3.5 C 3.253906 -3.75 2.960938 -3.875 2.609375 -3.875 L 1.921875 -3.875 L 1.921875 -1.171875 Z M 2.671875 -1.171875 "/></g></g></g><g fill="#000b26" fill-opacity="1"><g transform="translate(163.85622, 20.022408)"><g><path d="M 0.421875 0 L 0.421875 -5.046875 L 1.921875 -5.046875 L 1.921875 0 Z M 0.421875 0 "/></g></g></g><g fill="#000b26" fill-opacity="1"><g transform="translate(166.203435, 20.022408)"><g><path d="M 5.71875 0 L 4.125 0 L 3.828125 -0.8125 L 1.78125 -0.8125 L 1.484375 0 L -0.0625 0 L 2.09375 -5.046875 L 3.640625 -5.046875 Z M 2.828125 -3.546875 L 2.203125 -1.90625 L 3.421875 -1.90625 Z M 2.828125 -3.546875 "/></g></g></g><g fill="#ed2a7b" fill-opacity="1"><g transform="translate(81.808239, 41.627324)"><g><path d="M 4.296875 -0.90625 L 5.125 -3.84375 L 6.015625 -3.84375 L 4.71875 0 L 3.8125 0 L 3.015625 -2.78125 L 2.1875 0 L 1.296875 0 L 0 -3.84375 L 0.9375 -3.84375 L 1.765625 -0.90625 L 2.59375 -3.84375 L 3.453125 -3.84375 Z M 4.296875 -0.90625 "/></g></g></g><g fill="#ed2a7b" fill-opacity="1"><g transform="translate(88.100277, 41.627324)"><g><path d="M 0.421875 0 L 0.421875 -3.84375 L 3.359375 -3.84375 L 3.359375 -3.125 L 1.296875 -3.125 L 1.296875 -2.296875 L 3.140625 -2.296875 L 3.140625 -1.578125 L 1.296875 -1.578125 L 1.296875 -0.71875 L 3.421875 -0.71875 L 3.421875 0 Z M 0.421875 0 "/></g></g></g><g fill="#ed2a7b" fill-opacity="1"><g transform="translate(92.049297, 41.627324)"><g/></g></g><g fill="#ed2a7b" fill-opacity="1"><g transform="translate(93.809305, 41.627324)"><g><path d="M 0.421875 0 L 0.421875 -3.84375 L 1.390625 -3.84375 L 2.59375 -1.484375 L 3.78125 -3.84375 L 4.734375 -3.84375 L 4.734375 0 L 3.953125 0 L 3.953125 -2.59375 L 2.859375 -0.390625 L 2.296875 -0.390625 L 1.203125 -2.59375 L 1.203125 0 Z M 0.421875 0 "/></g></g></g><g fill="#ed2a7b" fill-opacity="1"><g transform="translate(99.254333, 41.627324)"><g><path d="M 4.203125 0 L 3.265625 0 L 2.96875 -0.75 L 1.1875 -0.75 L 0.875 0 L -0.015625 0 L 1.65625 -3.84375 L 2.546875 -3.84375 Z M 2.078125 -2.9375 L 1.46875 -1.453125 L 2.6875 -1.453125 Z M 2.078125 -2.9375 "/></g></g></g><g fill="#ed2a7b" fill-opacity="1"><g transform="translate(103.703856, 41.627324)"><g><path d="M 2.453125 -2.25 L 4 0 L 2.953125 0 L 1.84375 -1.578125 L 1.296875 -0.96875 L 1.296875 0 L 0.421875 0 L 0.421875 -3.84375 L 1.296875 -3.84375 L 1.296875 -2.0625 L 2.890625 -3.84375 L 3.90625 -3.84375 Z M 2.453125 -2.25 "/></g></g></g><g fill="#ed2a7b" fill-opacity="1"><g transform="translate(108.032376, 41.627324)"><g><path d="M 0.421875 0 L 0.421875 -3.84375 L 3.359375 -3.84375 L 3.359375 -3.125 L 1.296875 -3.125 L 1.296875 -2.296875 L 3.140625 -2.296875 L 3.140625 -1.578125 L 1.296875 -1.578125 L 1.296875 -0.71875 L 3.421875 -0.71875 L 3.421875 0 Z M 0.421875 0 "/></g></g></g><g fill="#ed2a7b" fill-opacity="1"><g transform="translate(111.981395, 41.627324)"><g/></g></g><g fill="#ed2a7b" fill-opacity="1"><g transform="translate(113.741402, 41.627324)"><g><path d="M 0.421875 0 L 0.421875 -3.84375 L 1.296875 -3.84375 L 1.296875 -0.765625 L 2.9375 -0.765625 L 2.9375 0 Z M 0.421875 0 "/></g></g></g><g fill="#ed2a7b" fill-opacity="1"><g transform="translate(117.052422, 41.627324)"><g><path d="M 2.21875 -3.90625 C 2.601562 -3.90625 2.953125 -3.816406 3.265625 -3.640625 C 3.578125 -3.472656 3.820312 -3.238281 4 -2.9375 C 4.1875 -2.632812 4.28125 -2.300781 4.28125 -1.9375 C 4.28125 -1.5625 4.1875 -1.222656 4 -0.921875 C 3.820312 -0.617188 3.578125 -0.378906 3.265625 -0.203125 C 2.953125 -0.0234375 2.601562 0.0625 2.21875 0.0625 C 1.832031 0.0625 1.476562 -0.0234375 1.15625 -0.203125 C 0.84375 -0.378906 0.597656 -0.617188 0.421875 -0.921875 C 0.242188 -1.222656 0.15625 -1.5625 0.15625 -1.9375 C 0.15625 -2.300781 0.242188 -2.632812 0.421875 -2.9375 C 0.597656 -3.238281 0.84375 -3.472656 1.15625 -3.640625 C 1.476562 -3.816406 1.832031 -3.90625 2.21875 -3.90625 Z M 2.234375 -3.15625 C 2.015625 -3.15625 1.8125 -3.097656 1.625 -2.984375 C 1.445312 -2.878906 1.304688 -2.734375 1.203125 -2.546875 C 1.097656 -2.359375 1.046875 -2.15625 1.046875 -1.9375 C 1.046875 -1.707031 1.097656 -1.5 1.203125 -1.3125 C 1.304688 -1.125 1.445312 -0.972656 1.625 -0.859375 C 1.8125 -0.753906 2.015625 -0.703125 2.234375 -0.703125 C 2.441406 -0.703125 2.632812 -0.753906 2.8125 -0.859375 C 2.988281 -0.960938 3.128906 -1.109375 3.234375 -1.296875 C 3.335938 -1.492188 3.390625 -1.707031 3.390625 -1.9375 C 3.390625 -2.15625 3.335938 -2.359375 3.234375 -2.546875 C 3.128906 -2.734375 2.988281 -2.878906 2.8125 -2.984375 C 2.632812 -3.097656 2.441406 -3.15625 2.234375 -3.15625 Z M 2.234375 -3.15625 "/></g></g></g><g fill="#ed2a7b" fill-opacity="1"><g transform="translate(121.76045, 41.627324)"><g><path d="M 4.203125 0 L 3.265625 0 L 2.96875 -0.75 L 1.1875 -0.75 L 0.875 0 L -0.015625 0 L 1.65625 -3.84375 L 2.546875 -3.84375 Z M 2.078125 -2.9375 L 1.46875 -1.453125 L 2.6875 -1.453125 Z M 2.078125 -2.9375 "/></g></g></g><g fill="#ed2a7b" fill-opacity="1"><g transform="translate(126.209973, 41.627324)"><g><path d="M 3.078125 -1.359375 L 3.078125 -3.84375 L 3.90625 -3.84375 L 3.90625 0 L 3.125 0 L 1.25 -2.46875 L 1.25 0 L 0.421875 0 L 0.421875 -3.84375 L 1.21875 -3.84375 Z M 3.078125 -1.359375 "/></g></g></g><g fill="#ed2a7b" fill-opacity="1"><g transform="translate(130.818999, 41.627324)"><g><path d="M 2.953125 -2.78125 C 2.753906 -2.894531 2.546875 -2.988281 2.328125 -3.0625 C 2.109375 -3.132812 1.921875 -3.171875 1.765625 -3.171875 C 1.609375 -3.171875 1.484375 -3.144531 1.390625 -3.09375 C 1.304688 -3.039062 1.265625 -2.957031 1.265625 -2.84375 C 1.265625 -2.707031 1.328125 -2.601562 1.453125 -2.53125 C 1.585938 -2.46875 1.785156 -2.394531 2.046875 -2.3125 C 2.304688 -2.238281 2.519531 -2.160156 2.6875 -2.078125 C 2.863281 -2.003906 3.007812 -1.890625 3.125 -1.734375 C 3.25 -1.578125 3.3125 -1.375 3.3125 -1.125 C 3.3125 -0.882812 3.242188 -0.671875 3.109375 -0.484375 C 2.984375 -0.304688 2.804688 -0.171875 2.578125 -0.078125 C 2.359375 0.00390625 2.101562 0.046875 1.8125 0.046875 C 1.5 0.046875 1.191406 -0.00390625 0.890625 -0.109375 C 0.585938 -0.222656 0.328125 -0.375 0.109375 -0.5625 L 0.453125 -1.28125 C 0.648438 -1.101562 0.875 -0.957031 1.125 -0.84375 C 1.375 -0.738281 1.609375 -0.6875 1.828125 -0.6875 C 2.003906 -0.6875 2.140625 -0.71875 2.234375 -0.78125 C 2.335938 -0.851562 2.390625 -0.953125 2.390625 -1.078125 C 2.390625 -1.171875 2.351562 -1.25 2.28125 -1.3125 C 2.21875 -1.382812 2.132812 -1.441406 2.03125 -1.484375 C 1.925781 -1.523438 1.78125 -1.566406 1.59375 -1.609375 C 1.332031 -1.691406 1.117188 -1.769531 0.953125 -1.84375 C 0.785156 -1.914062 0.640625 -2.023438 0.515625 -2.171875 C 0.398438 -2.316406 0.34375 -2.515625 0.34375 -2.765625 C 0.34375 -3.003906 0.40625 -3.207031 0.53125 -3.375 C 0.65625 -3.550781 0.828125 -3.6875 1.046875 -3.78125 C 1.273438 -3.875 1.535156 -3.921875 1.828125 -3.921875 C 2.097656 -3.921875 2.359375 -3.878906 2.609375 -3.796875 C 2.867188 -3.722656 3.097656 -3.625 3.296875 -3.5 Z M 2.953125 -2.78125 "/></g></g></g><g fill="#ed2a7b" fill-opacity="1"><g transform="translate(134.597521, 41.627324)"><g/></g></g><g fill="#ed2a7b" fill-opacity="1"><g transform="translate(136.357528, 41.627324)"><g><path d="M 2.0625 -3.84375 C 2.550781 -3.84375 2.925781 -3.726562 3.1875 -3.5 C 3.457031 -3.269531 3.59375 -2.941406 3.59375 -2.515625 C 3.59375 -2.066406 3.457031 -1.71875 3.1875 -1.46875 C 2.914062 -1.21875 2.539062 -1.09375 2.0625 -1.09375 L 1.296875 -1.09375 L 1.296875 0 L 0.421875 0 L 0.421875 -3.84375 Z M 2.015625 -1.828125 C 2.253906 -1.828125 2.4375 -1.878906 2.5625 -1.984375 C 2.695312 -2.097656 2.765625 -2.265625 2.765625 -2.484375 C 2.765625 -2.703125 2.695312 -2.863281 2.5625 -2.96875 C 2.4375 -3.070312 2.253906 -3.125 2.015625 -3.125 L 1.296875 -3.125 L 1.296875 -1.828125 Z M 2.015625 -1.828125 "/></g></g></g><g fill="#ed2a7b" fill-opacity="1"><g transform="translate(140.361552, 41.627324)"><g><path d="M 2.21875 -3.90625 C 2.601562 -3.90625 2.953125 -3.816406 3.265625 -3.640625 C 3.578125 -3.472656 3.820312 -3.238281 4 -2.9375 C 4.1875 -2.632812 4.28125 -2.300781 4.28125 -1.9375 C 4.28125 -1.5625 4.1875 -1.222656 4 -0.921875 C 3.820312 -0.617188 3.578125 -0.378906 3.265625 -0.203125 C 2.953125 -0.0234375 2.601562 0.0625 2.21875 0.0625 C 1.832031 0.0625 1.476562 -0.0234375 1.15625 -0.203125 C 0.84375 -0.378906 0.597656 -0.617188 0.421875 -0.921875 C 0.242188 -1.222656 0.15625 -1.5625 0.15625 -1.9375 C 0.15625 -2.300781 0.242188 -2.632812 0.421875 -2.9375 C 0.597656 -3.238281 0.84375 -3.472656 1.15625 -3.640625 C 1.476562 -3.816406 1.832031 -3.90625 2.21875 -3.90625 Z M 2.234375 -3.15625 C 2.015625 -3.15625 1.8125 -3.097656 1.625 -2.984375 C 1.445312 -2.878906 1.304688 -2.734375 1.203125 -2.546875 C 1.097656 -2.359375 1.046875 -2.15625 1.046875 -1.9375 C 1.046875 -1.707031 1.097656 -1.5 1.203125 -1.3125 C 1.304688 -1.125 1.445312 -0.972656 1.625 -0.859375 C 1.8125 -0.753906 2.015625 -0.703125 2.234375 -0.703125 C 2.441406 -0.703125 2.632812 -0.753906 2.8125 -0.859375 C 2.988281 -0.960938 3.128906 -1.109375 3.234375 -1.296875 C 3.335938 -1.492188 3.390625 -1.707031 3.390625 -1.9375 C 3.390625 -2.15625 3.335938 -2.359375 3.234375 -2.546875 C 3.128906 -2.734375 2.988281 -2.878906 2.8125 -2.984375 C 2.632812 -3.097656 2.441406 -3.15625 2.234375 -3.15625 Z M 2.234375 -3.15625 "/></g></g></g><g fill="#ed2a7b" fill-opacity="1"><g transform="translate(145.069583, 41.627324)"><g><path d="M 2.953125 -2.78125 C 2.753906 -2.894531 2.546875 -2.988281 2.328125 -3.0625 C 2.109375 -3.132812 1.921875 -3.171875 1.765625 -3.171875 C 1.609375 -3.171875 1.484375 -3.144531 1.390625 -3.09375 C 1.304688 -3.039062 1.265625 -2.957031 1.265625 -2.84375 C 1.265625 -2.707031 1.328125 -2.601562 1.453125 -2.53125 C 1.585938 -2.46875 1.785156 -2.394531 2.046875 -2.3125 C 2.304688 -2.238281 2.519531 -2.160156 2.6875 -2.078125 C 2.863281 -2.003906 3.007812 -1.890625 3.125 -1.734375 C 3.25 -1.578125 3.3125 -1.375 3.3125 -1.125 C 3.3125 -0.882812 3.242188 -0.671875 3.109375 -0.484375 C 2.984375 -0.304688 2.804688 -0.171875 2.578125 -0.078125 C 2.359375 0.00390625 2.101562 0.046875 1.8125 0.046875 C 1.5 0.046875 1.191406 -0.00390625 0.890625 -0.109375 C 0.585938 -0.222656 0.328125 -0.375 0.109375 -0.5625 L 0.453125 -1.28125 C 0.648438 -1.101562 0.875 -0.957031 1.125 -0.84375 C 1.375 -0.738281 1.609375 -0.6875 1.828125 -0.6875 C 2.003906 -0.6875 2.140625 -0.71875 2.234375 -0.78125 C 2.335938 -0.851562 2.390625 -0.953125 2.390625 -1.078125 C 2.390625 -1.171875 2.351562 -1.25 2.28125 -1.3125 C 2.21875 -1.382812 2.132812 -1.441406 2.03125 -1.484375 C 1.925781 -1.523438 1.78125 -1.566406 1.59375 -1.609375 C 1.332031 -1.691406 1.117188 -1.769531 0.953125 -1.84375 C 0.785156 -1.914062 0.640625 -2.023438 0.515625 -2.171875 C 0.398438 -2.316406 0.34375 -2.515625 0.34375 -2.765625 C 0.34375 -3.003906 0.40625 -3.207031 0.53125 -3.375 C 0.65625 -3.550781 0.828125 -3.6875 1.046875 -3.78125 C 1.273438 -3.875 1.535156 -3.921875 1.828125 -3.921875 C 2.097656 -3.921875 2.359375 -3.878906 2.609375 -3.796875 C 2.867188 -3.722656 3.097656 -3.625 3.296875 -3.5 Z M 2.953125 -2.78125 "/></g></g></g><g fill="#ed2a7b" fill-opacity="1"><g transform="translate(148.848108, 41.627324)"><g><path d="M 2.953125 -2.78125 C 2.753906 -2.894531 2.546875 -2.988281 2.328125 -3.0625 C 2.109375 -3.132812 1.921875 -3.171875 1.765625 -3.171875 C 1.609375 -3.171875 1.484375 -3.144531 1.390625 -3.09375 C 1.304688 -3.039062 1.265625 -2.957031 1.265625 -2.84375 C 1.265625 -2.707031 1.328125 -2.601562 1.453125 -2.53125 C 1.585938 -2.46875 1.785156 -2.394531 2.046875 -2.3125 C 2.304688 -2.238281 2.519531 -2.160156 2.6875 -2.078125 C 2.863281 -2.003906 3.007812 -1.890625 3.125 -1.734375 C 3.25 -1.578125 3.3125 -1.375 3.3125 -1.125 C 3.3125 -0.882812 3.242188 -0.671875 3.109375 -0.484375 C 2.984375 -0.304688 2.804688 -0.171875 2.578125 -0.078125 C 2.359375 0.00390625 2.101562 0.046875 1.8125 0.046875 C 1.5 0.046875 1.191406 -0.00390625 0.890625 -0.109375 C 0.585938 -0.222656 0.328125 -0.375 0.109375 -0.5625 L 0.453125 -1.28125 C 0.648438 -1.101562 0.875 -0.957031 1.125 -0.84375 C 1.375 -0.738281 1.609375 -0.6875 1.828125 -0.6875 C 2.003906 -0.6875 2.140625 -0.71875 2.234375 -0.78125 C 2.335938 -0.851562 2.390625 -0.953125 2.390625 -1.078125 C 2.390625 -1.171875 2.351562 -1.25 2.28125 -1.3125 C 2.21875 -1.382812 2.132812 -1.441406 2.03125 -1.484375 C 1.925781 -1.523438 1.78125 -1.566406 1.59375 -1.609375 C 1.332031 -1.691406 1.117188 -1.769531 0.953125 -1.84375 C 0.785156 -1.914062 0.640625 -2.023438 0.515625 -2.171875 C 0.398438 -2.316406 0.34375 -2.515625 0.34375 -2.765625 C 0.34375 -3.003906 0.40625 -3.207031 0.53125 -3.375 C 0.65625 -3.550781 0.828125 -3.6875 1.046875 -3.78125 C 1.273438 -3.875 1.535156 -3.921875 1.828125 -3.921875 C 2.097656 -3.921875 2.359375 -3.878906 2.609375 -3.796875 C 2.867188 -3.722656 3.097656 -3.625 3.296875 -3.5 Z M 2.953125 -2.78125 "/></g></g></g><g fill="#ed2a7b" fill-opacity="1"><g transform="translate(152.626634, 41.627324)"><g><path d="M 0.421875 0 L 0.421875 -3.84375 L 1.296875 -3.84375 L 1.296875 0 Z M 0.421875 0 "/></g></g></g><g fill="#ed2a7b" fill-opacity="1"><g transform="translate(154.623147, 41.627324)"><g><path d="M 2.1875 -3.84375 C 2.613281 -3.84375 2.945312 -3.753906 3.1875 -3.578125 C 3.4375 -3.410156 3.5625 -3.179688 3.5625 -2.890625 C 3.5625 -2.679688 3.503906 -2.5 3.390625 -2.34375 C 3.273438 -2.195312 3.113281 -2.097656 2.90625 -2.046875 C 3.15625 -1.992188 3.347656 -1.878906 3.484375 -1.703125 C 3.628906 -1.535156 3.703125 -1.320312 3.703125 -1.0625 C 3.703125 -0.738281 3.570312 -0.476562 3.3125 -0.28125 C 3.050781 -0.09375 2.695312 0 2.25 0 L 0.421875 0 L 0.421875 -3.84375 Z M 2.15625 -2.296875 C 2.3125 -2.296875 2.4375 -2.332031 2.53125 -2.40625 C 2.625 -2.488281 2.671875 -2.597656 2.671875 -2.734375 C 2.671875 -2.859375 2.625 -2.957031 2.53125 -3.03125 C 2.4375 -3.101562 2.3125 -3.140625 2.15625 -3.140625 L 1.296875 -3.140625 L 1.296875 -2.296875 Z M 2.15625 -0.703125 C 2.351562 -0.703125 2.507812 -0.742188 2.625 -0.828125 C 2.75 -0.910156 2.8125 -1.023438 2.8125 -1.171875 C 2.8125 -1.316406 2.75 -1.425781 2.625 -1.5 C 2.507812 -1.582031 2.351562 -1.625 2.15625 -1.625 L 1.296875 -1.625 L 1.296875 -0.703125 Z M 2.15625 -0.703125 "/></g></g></g><g fill="#ed2a7b" fill-opacity="1"><g transform="translate(158.814176, 41.627324)"><g><path d="M 0.421875 0 L 0.421875 -3.84375 L 1.296875 -3.84375 L 1.296875 -0.765625 L 2.9375 -0.765625 L 2.9375 0 Z M 0.421875 0 "/></g></g></g><g fill="#ed2a7b" fill-opacity="1"><g transform="translate(162.1252, 41.627324)"><g><path d="M 0.421875 0 L 0.421875 -3.84375 L 3.359375 -3.84375 L 3.359375 -3.125 L 1.296875 -3.125 L 1.296875 -2.296875 L 3.140625 -2.296875 L 3.140625 -1.578125 L 1.296875 -1.578125 L 1.296875 -0.71875 L 3.421875 -0.71875 L 3.421875 0 Z M 0.421875 0 "/></g></g></g></svg>