<svg xmlns="http://www.w3.org/2000/svg" xmlns:xlink="http://www.w3.org/1999/xlink" width="240" zoomAndPan="magnify" viewBox="0 0 180 60" height="80" preserveAspectRatio="xMidYMid meet" version="1.0"><defs><g/><clipPath id="e861fa57cb"><path d="M 2.253906 2.84375 L 73.503906 2.84375 L 73.503906 56.84375 L 2.253906 56.84375 Z M 2.253906 2.84375 " clip-rule="nonzero"/></clipPath><clipPath id="280fe05d0b"><path d="M 28 28 L 73.503906 28 L 73.503906 56.84375 L 28 56.84375 Z M 28 28 " clip-rule="nonzero"/></clipPath><clipPath id="f876fed6d8"><path d="M 50 39 L 66 39 L 66 56.84375 L 50 56.84375 Z M 50 39 " clip-rule="nonzero"/></clipPath></defs><g clip-path="url(#e861fa57cb)"><path fill="#ed2a7b" d="M 22.597656 39.675781 L 33.773438 20.5 L 38.816406 29.148438 C 41.90625 28.011719 44.78125 27.082031 47.453125 26.316406 L 33.773438 2.84375 L 2.3125 56.839844 L 12.597656 56.839844 C 12.597656 56.839844 48.023438 27.296875 73.308594 26.628906 C 73.308594 26.628906 56.964844 22.316406 22.597656 39.675781 " fill-opacity="1" fill-rule="nonzero"/></g><g clip-path="url(#280fe05d0b)"><path fill="#9e1e62" d="M 38.769531 56.839844 C 48.035156 45.613281 60.828125 32.671875 73.433594 28.265625 C 73.433594 28.265625 56.246094 29.15625 28.519531 56.839844 L 38.769531 56.839844 " fill-opacity="1" fill-rule="nonzero"/></g><path fill="#545454" d="M 48.585938 45.914062 L 50.371094 48.972656 L 55.230469 39.667969 C 52.949219 41.644531 50.722656 43.75 48.585938 45.914062 " fill-opacity="1" fill-rule="nonzero"/><g clip-path="url(#f876fed6d8)"><path fill="#ed2a7b" d="M 65.238281 56.839844 L 55.230469 39.667969 L 50.371094 48.972656 L 54.953125 56.839844 L 65.238281 56.839844 " fill-opacity="1" fill-rule="nonzero"/></g><g fill="#000b26" fill-opacity="1"><g transform="translate(79.854712, 20.830192)"><g><path d="M 5.609375 0 L 4.046875 0 L 3.75 -0.796875 L 1.75 -0.796875 L 1.453125 0 L -0.0625 0 L 2.0625 -4.953125 L 3.5625 -4.953125 Z M 2.765625 -3.484375 L 2.15625 -1.859375 L 3.359375 -1.859375 Z M 2.765625 -3.484375 "/></g></g></g><g fill="#000b26" fill-opacity="1"><g transform="translate(85.402976, 20.830192)"><g><path d="M 5.609375 0 L 4.046875 0 L 3.75 -0.796875 L 1.75 -0.796875 L 1.453125 0 L -0.0625 0 L 2.0625 -4.953125 L 3.5625 -4.953125 Z M 2.765625 -3.484375 L 2.15625 -1.859375 L 3.359375 -1.859375 Z M 2.765625 -3.484375 "/></g></g></g><g fill="#000b26" fill-opacity="1"><g transform="translate(90.951241, 20.830192)"><g><path d="M 2.578125 -4.953125 C 3.109375 -4.953125 3.570312 -4.847656 3.96875 -4.640625 C 4.375 -4.441406 4.6875 -4.15625 4.90625 -3.78125 C 5.132812 -3.40625 5.25 -2.972656 5.25 -2.484375 C 5.25 -1.992188 5.132812 -1.554688 4.90625 -1.171875 C 4.675781 -0.796875 4.359375 -0.503906 3.953125 -0.296875 C 3.546875 -0.0976562 3.070312 0 2.53125 0 L 0.421875 0 L 0.421875 -4.953125 Z M 2.625 -1.15625 C 2.957031 -1.15625 3.226562 -1.273438 3.4375 -1.515625 C 3.644531 -1.753906 3.75 -2.070312 3.75 -2.46875 C 3.75 -2.863281 3.640625 -3.179688 3.421875 -3.421875 C 3.203125 -3.671875 2.914062 -3.796875 2.5625 -3.796875 L 1.890625 -3.796875 L 1.890625 -1.15625 Z M 2.625 -1.15625 "/></g></g></g><g fill="#000b26" fill-opacity="1"><g transform="translate(96.330089, 20.830192)"><g><path d="M 0.421875 0 L 0.421875 -4.953125 L 1.890625 -4.953125 L 1.890625 -2.984375 L 3.640625 -2.984375 L 3.640625 -4.953125 L 5.109375 -4.953125 L 5.109375 0 L 3.640625 0 L 3.640625 -1.84375 L 1.890625 -1.84375 L 1.890625 0 Z M 0.421875 0 "/></g></g></g><g fill="#000b26" fill-opacity="1"><g transform="translate(101.85718, 20.830192)"><g><path d="M 3.546875 -4.953125 L 5 -4.953125 L 3.234375 -1.5625 L 3.234375 0 L 1.765625 0 L 1.765625 -1.546875 L -0.0625 -4.953125 L 1.40625 -4.953125 L 2.5 -2.9375 Z M 3.546875 -4.953125 "/></g></g></g><g fill="#000b26" fill-opacity="1"><g transform="translate(106.812498, 20.830192)"><g><path d="M 5.609375 0 L 4.046875 0 L 3.75 -0.796875 L 1.75 -0.796875 L 1.453125 0 L -0.0625 0 L 2.0625 -4.953125 L 3.5625 -4.953125 Z M 2.765625 -3.484375 L 2.15625 -1.859375 L 3.359375 -1.859375 Z M 2.765625 -3.484375 "/></g></g></g><g fill="#000b26" fill-opacity="1"><g transform="translate(112.360763, 20.830192)"><g/></g></g><g fill="#000b26" fill-opacity="1"><g transform="translate(114.266654, 20.830192)"><g><path d="M 0.421875 0 L 0.421875 -4.953125 L 4.265625 -4.953125 L 4.265625 -3.828125 L 1.890625 -3.828125 L 1.890625 -2.828125 L 4.09375 -2.828125 L 4.09375 -1.703125 L 1.890625 -1.703125 L 1.890625 0 Z M 0.421875 0 "/></g></g></g><g fill="#000b26" fill-opacity="1"><g transform="translate(118.63609, 20.830192)"><g><path d="M 0.421875 0 L 0.421875 -4.953125 L 1.890625 -4.953125 L 1.890625 0 Z M 0.421875 0 "/></g></g></g><g fill="#000b26" fill-opacity="1"><g transform="translate(120.937282, 20.830192)"><g><path d="M 3.765625 -2.1875 L 3.765625 -4.953125 L 5.109375 -4.953125 L 5.109375 0 L 3.859375 0 L 1.765625 -2.75 L 1.765625 0 L 0.421875 0 L 0.421875 -4.953125 L 1.671875 -4.953125 Z M 3.765625 -2.1875 "/></g></g></g><g fill="#000b26" fill-opacity="1"><g transform="translate(126.464373, 20.830192)"><g><path d="M 3.96875 -3.359375 C 3.707031 -3.515625 3.421875 -3.644531 3.109375 -3.75 C 2.796875 -3.851562 2.535156 -3.90625 2.328125 -3.90625 C 2.203125 -3.90625 2.101562 -3.878906 2.03125 -3.828125 C 1.957031 -3.785156 1.921875 -3.71875 1.921875 -3.625 C 1.921875 -3.488281 1.988281 -3.382812 2.125 -3.3125 C 2.269531 -3.238281 2.492188 -3.160156 2.796875 -3.078125 C 3.148438 -2.984375 3.4375 -2.882812 3.65625 -2.78125 C 3.882812 -2.675781 4.082031 -2.519531 4.25 -2.3125 C 4.414062 -2.101562 4.5 -1.832031 4.5 -1.5 C 4.5 -1.15625 4.410156 -0.863281 4.234375 -0.625 C 4.054688 -0.382812 3.8125 -0.207031 3.5 -0.09375 C 3.1875 0.0195312 2.84375 0.078125 2.46875 0.078125 C 2.039062 0.078125 1.613281 0.0078125 1.1875 -0.125 C 0.757812 -0.269531 0.390625 -0.46875 0.078125 -0.71875 L 0.640625 -1.84375 C 0.890625 -1.625 1.191406 -1.4375 1.546875 -1.28125 C 1.910156 -1.132812 2.222656 -1.0625 2.484375 -1.0625 C 2.640625 -1.0625 2.757812 -1.09375 2.84375 -1.15625 C 2.9375 -1.21875 2.984375 -1.304688 2.984375 -1.421875 C 2.984375 -1.554688 2.910156 -1.660156 2.765625 -1.734375 C 2.617188 -1.804688 2.394531 -1.882812 2.09375 -1.96875 C 1.75 -2.050781 1.460938 -2.140625 1.234375 -2.234375 C 1.003906 -2.335938 0.804688 -2.488281 0.640625 -2.6875 C 0.484375 -2.894531 0.40625 -3.160156 0.40625 -3.484375 C 0.40625 -3.804688 0.488281 -4.085938 0.65625 -4.328125 C 0.820312 -4.566406 1.0625 -4.75 1.375 -4.875 C 1.6875 -5 2.046875 -5.0625 2.453125 -5.0625 C 2.828125 -5.0625 3.195312 -5.007812 3.5625 -4.90625 C 3.925781 -4.800781 4.242188 -4.660156 4.515625 -4.484375 Z M 3.96875 -3.359375 "/></g></g></g><g fill="#000b26" fill-opacity="1"><g transform="translate(131.08793, 20.830192)"><g><path d="M 0.421875 0 L 0.421875 -4.953125 L 4.46875 -4.953125 L 4.46875 -3.828125 L 1.890625 -3.828125 L 1.890625 -3.046875 L 4.21875 -3.046875 L 4.21875 -1.90625 L 1.890625 -1.90625 L 1.890625 -1.125 L 4.53125 -1.125 L 4.53125 0 Z M 0.421875 0 "/></g></g></g><g fill="#000b26" fill-opacity="1"><g transform="translate(135.909132, 20.830192)"><g><path d="M 4.984375 0 L 3.3125 0 L 2.65625 -1.328125 L 1.890625 -1.328125 L 1.890625 0 L 0.421875 0 L 0.421875 -4.953125 L 2.71875 -4.953125 C 3.382812 -4.953125 3.898438 -4.796875 4.265625 -4.484375 C 4.628906 -4.179688 4.8125 -3.75 4.8125 -3.1875 C 4.8125 -2.820312 4.738281 -2.503906 4.59375 -2.234375 C 4.457031 -1.972656 4.253906 -1.769531 3.984375 -1.625 Z M 1.890625 -3.828125 L 1.890625 -2.46875 L 2.71875 -2.46875 C 2.945312 -2.46875 3.117188 -2.523438 3.234375 -2.640625 C 3.359375 -2.753906 3.421875 -2.925781 3.421875 -3.15625 C 3.421875 -3.363281 3.359375 -3.523438 3.234375 -3.640625 C 3.117188 -3.765625 2.945312 -3.828125 2.71875 -3.828125 Z M 1.890625 -3.828125 "/></g></g></g><g fill="#000b26" fill-opacity="1"><g transform="translate(141.026804, 20.830192)"><g><path d="M 1.875 0 L -0.015625 -4.953125 L 1.546875 -4.953125 L 2.671875 -1.53125 L 3.8125 -4.953125 L 5.3125 -4.953125 L 3.390625 0 Z M 1.875 0 "/></g></g></g><g fill="#000b26" fill-opacity="1"><g transform="translate(146.306829, 20.830192)"><g><path d="M 0.421875 0 L 0.421875 -4.953125 L 4.46875 -4.953125 L 4.46875 -3.828125 L 1.890625 -3.828125 L 1.890625 -3.046875 L 4.21875 -3.046875 L 4.21875 -1.90625 L 1.890625 -1.90625 L 1.890625 -1.125 L 4.53125 -1.125 L 4.53125 0 Z M 0.421875 0 "/></g></g></g><g fill="#000b26" fill-opacity="1"><g transform="translate(151.128032, 20.830192)"><g/></g></g><g fill="#000b26" fill-opacity="1"><g transform="translate(153.033923, 20.830192)"><g><path d="M 0.421875 0 L 0.421875 -4.953125 L 1.890625 -4.953125 L 1.890625 0 Z M 0.421875 0 "/></g></g></g><g fill="#000b26" fill-opacity="1"><g transform="translate(155.335114, 20.830192)"><g><path d="M 3.765625 -2.1875 L 3.765625 -4.953125 L 5.109375 -4.953125 L 5.109375 0 L 3.859375 0 L 1.765625 -2.75 L 1.765625 0 L 0.421875 0 L 0.421875 -4.953125 L 1.671875 -4.953125 Z M 3.765625 -2.1875 "/></g></g></g><g fill="#000b26" fill-opacity="1"><g transform="translate(160.862205, 20.830192)"><g><path d="M 2.578125 -4.953125 C 3.109375 -4.953125 3.570312 -4.847656 3.96875 -4.640625 C 4.375 -4.441406 4.6875 -4.15625 4.90625 -3.78125 C 5.132812 -3.40625 5.25 -2.972656 5.25 -2.484375 C 5.25 -1.992188 5.132812 -1.554688 4.90625 -1.171875 C 4.675781 -0.796875 4.359375 -0.503906 3.953125 -0.296875 C 3.546875 -0.0976562 3.070312 0 2.53125 0 L 0.421875 0 L 0.421875 -4.953125 Z M 2.625 -1.15625 C 2.957031 -1.15625 3.226562 -1.273438 3.4375 -1.515625 C 3.644531 -1.753906 3.75 -2.070312 3.75 -2.46875 C 3.75 -2.863281 3.640625 -3.179688 3.421875 -3.421875 C 3.203125 -3.671875 2.914062 -3.796875 2.5625 -3.796875 L 1.890625 -3.796875 L 1.890625 -1.15625 Z M 2.625 -1.15625 "/></g></g></g><g fill="#000b26" fill-opacity="1"><g transform="translate(166.241053, 20.830192)"><g><path d="M 0.421875 0 L 0.421875 -4.953125 L 1.890625 -4.953125 L 1.890625 0 Z M 0.421875 0 "/></g></g></g><g fill="#000b26" fill-opacity="1"><g transform="translate(168.542245, 20.830192)"><g><path d="M 5.609375 0 L 4.046875 0 L 3.75 -0.796875 L 1.75 -0.796875 L 1.453125 0 L -0.0625 0 L 2.0625 -4.953125 L 3.5625 -4.953125 Z M 2.765625 -3.484375 L 2.15625 -1.859375 L 3.359375 -1.859375 Z M 2.765625 -3.484375 "/></g></g></g><g fill="#ed2a7b" fill-opacity="1"><g transform="translate(88.754746, 40.83944)"><g><path d="M 4.78125 -1.015625 L 5.703125 -4.28125 L 6.703125 -4.28125 L 5.25 0 L 4.25 0 L 3.34375 -3.09375 L 2.4375 0 L 1.453125 0 L 0 -4.28125 L 1.046875 -4.28125 L 1.96875 -1.015625 L 2.890625 -4.28125 L 3.84375 -4.28125 Z M 4.78125 -1.015625 "/></g></g></g><g fill="#ed2a7b" fill-opacity="1"><g transform="translate(95.753395, 40.83944)"><g><path d="M 0.46875 0 L 0.46875 -4.28125 L 3.734375 -4.28125 L 3.734375 -3.484375 L 1.4375 -3.484375 L 1.4375 -2.546875 L 3.5 -2.546875 L 3.5 -1.75 L 1.4375 -1.75 L 1.4375 -0.796875 L 3.796875 -0.796875 L 3.796875 0 Z M 0.46875 0 "/></g></g></g><g fill="#ed2a7b" fill-opacity="1"><g transform="translate(100.145899, 40.83944)"><g/></g></g><g fill="#ed2a7b" fill-opacity="1"><g transform="translate(102.10356, 40.83944)"><g><path d="M 0.46875 0 L 0.46875 -4.28125 L 1.546875 -4.28125 L 2.890625 -1.65625 L 4.203125 -4.28125 L 5.28125 -4.28125 L 5.28125 0 L 4.40625 0 L 4.40625 -2.890625 L 3.1875 -0.4375 L 2.5625 -0.4375 L 1.34375 -2.890625 L 1.34375 0 Z M 0.46875 0 "/></g></g></g><g fill="#ed2a7b" fill-opacity="1"><g transform="translate(108.160079, 40.83944)"><g><path d="M 4.671875 0 L 3.640625 0 L 3.296875 -0.828125 L 1.3125 -0.828125 L 0.984375 0 L -0.015625 0 L 1.84375 -4.28125 L 2.84375 -4.28125 Z M 2.3125 -3.28125 L 1.640625 -1.609375 L 2.984375 -1.609375 Z M 2.3125 -3.28125 "/></g></g></g><g fill="#ed2a7b" fill-opacity="1"><g transform="translate(113.109295, 40.83944)"><g><path d="M 2.71875 -2.5 L 4.453125 0 L 3.296875 0 L 2.046875 -1.765625 L 1.4375 -1.078125 L 1.4375 0 L 0.46875 0 L 0.46875 -4.28125 L 1.4375 -4.28125 L 1.4375 -2.296875 L 3.21875 -4.28125 L 4.34375 -4.28125 Z M 2.71875 -2.5 "/></g></g></g><g fill="#ed2a7b" fill-opacity="1"><g transform="translate(117.923918, 40.83944)"><g><path d="M 0.46875 0 L 0.46875 -4.28125 L 3.734375 -4.28125 L 3.734375 -3.484375 L 1.4375 -3.484375 L 1.4375 -2.546875 L 3.5 -2.546875 L 3.5 -1.75 L 1.4375 -1.75 L 1.4375 -0.796875 L 3.796875 -0.796875 L 3.796875 0 Z M 0.46875 0 "/></g></g></g><g fill="#ed2a7b" fill-opacity="1"><g transform="translate(122.316422, 40.83944)"><g/></g></g><g fill="#ed2a7b" fill-opacity="1"><g transform="translate(124.274082, 40.83944)"><g><path d="M 0.46875 0 L 0.46875 -4.28125 L 1.4375 -4.28125 L 1.4375 0 Z M 0.46875 0 "/></g></g></g><g fill="#ed2a7b" fill-opacity="1"><g transform="translate(126.494804, 40.83944)"><g><path d="M 0.046875 -3.46875 L 0.046875 -4.28125 L 3.625 -4.28125 L 3.625 -3.46875 L 2.328125 -3.46875 L 2.328125 0 L 1.359375 0 L 1.359375 -3.46875 Z M 0.046875 -3.46875 "/></g></g></g><g fill="#ed2a7b" fill-opacity="1"><g transform="translate(130.477424, 40.83944)"><g/></g></g><g fill="#ed2a7b" fill-opacity="1"><g transform="translate(132.435084, 40.83944)"><g><path d="M 2.296875 -4.28125 C 2.835938 -4.28125 3.253906 -4.148438 3.546875 -3.890625 C 3.847656 -3.640625 4 -3.273438 4 -2.796875 C 4 -2.296875 3.847656 -1.90625 3.546875 -1.625 C 3.253906 -1.351562 2.835938 -1.21875 2.296875 -1.21875 L 1.4375 -1.21875 L 1.4375 0 L 0.46875 0 L 0.46875 -4.28125 Z M 2.234375 -2.03125 C 2.515625 -2.03125 2.726562 -2.09375 2.875 -2.21875 C 3.019531 -2.34375 3.09375 -2.523438 3.09375 -2.765625 C 3.09375 -3.003906 3.019531 -3.179688 2.875 -3.296875 C 2.726562 -3.421875 2.515625 -3.484375 2.234375 -3.484375 L 1.4375 -3.484375 L 1.4375 -2.03125 Z M 2.234375 -2.03125 "/></g></g></g><g fill="#ed2a7b" fill-opacity="1"><g transform="translate(136.888769, 40.83944)"><g><path d="M 2.46875 -4.359375 C 2.894531 -4.359375 3.285156 -4.257812 3.640625 -4.0625 C 3.992188 -3.875 4.269531 -3.609375 4.46875 -3.265625 C 4.664062 -2.929688 4.765625 -2.5625 4.765625 -2.15625 C 4.765625 -1.738281 4.664062 -1.359375 4.46875 -1.015625 C 4.269531 -0.679688 3.992188 -0.414062 3.640625 -0.21875 C 3.285156 -0.03125 2.894531 0.0625 2.46875 0.0625 C 2.039062 0.0625 1.648438 -0.03125 1.296875 -0.21875 C 0.941406 -0.414062 0.664062 -0.679688 0.46875 -1.015625 C 0.269531 -1.359375 0.171875 -1.738281 0.171875 -2.15625 C 0.171875 -2.5625 0.269531 -2.929688 0.46875 -3.265625 C 0.664062 -3.609375 0.9375 -3.875 1.28125 -4.0625 C 1.632812 -4.257812 2.03125 -4.359375 2.46875 -4.359375 Z M 2.484375 -3.515625 C 2.242188 -3.515625 2.019531 -3.453125 1.8125 -3.328125 C 1.613281 -3.203125 1.453125 -3.035156 1.328125 -2.828125 C 1.210938 -2.628906 1.15625 -2.40625 1.15625 -2.15625 C 1.15625 -1.894531 1.210938 -1.660156 1.328125 -1.453125 C 1.453125 -1.242188 1.613281 -1.078125 1.8125 -0.953125 C 2.019531 -0.835938 2.242188 -0.78125 2.484375 -0.78125 C 2.710938 -0.78125 2.925781 -0.835938 3.125 -0.953125 C 3.332031 -1.078125 3.492188 -1.242188 3.609375 -1.453125 C 3.722656 -1.660156 3.78125 -1.894531 3.78125 -2.15625 C 3.78125 -2.40625 3.722656 -2.628906 3.609375 -2.828125 C 3.492188 -3.035156 3.332031 -3.203125 3.125 -3.328125 C 2.925781 -3.453125 2.710938 -3.515625 2.484375 -3.515625 Z M 2.484375 -3.515625 "/></g></g></g><g fill="#ed2a7b" fill-opacity="1"><g transform="translate(142.12552, 40.83944)"><g><path d="M 3.296875 -3.09375 C 3.078125 -3.226562 2.84375 -3.332031 2.59375 -3.40625 C 2.34375 -3.488281 2.128906 -3.53125 1.953125 -3.53125 C 1.785156 -3.53125 1.65625 -3.5 1.5625 -3.4375 C 1.46875 -3.375 1.421875 -3.285156 1.421875 -3.171875 C 1.421875 -3.023438 1.488281 -2.910156 1.625 -2.828125 C 1.769531 -2.742188 1.988281 -2.660156 2.28125 -2.578125 C 2.570312 -2.492188 2.8125 -2.40625 3 -2.3125 C 3.195312 -2.226562 3.359375 -2.097656 3.484375 -1.921875 C 3.617188 -1.753906 3.6875 -1.53125 3.6875 -1.25 C 3.6875 -0.976562 3.613281 -0.742188 3.46875 -0.546875 C 3.332031 -0.347656 3.132812 -0.195312 2.875 -0.09375 C 2.625 0.0078125 2.335938 0.0625 2.015625 0.0625 C 1.671875 0.0625 1.328125 0 0.984375 -0.125 C 0.648438 -0.25 0.363281 -0.414062 0.125 -0.625 L 0.515625 -1.421875 C 0.722656 -1.222656 0.96875 -1.0625 1.25 -0.9375 C 1.53125 -0.820312 1.789062 -0.765625 2.03125 -0.765625 C 2.226562 -0.765625 2.382812 -0.800781 2.5 -0.875 C 2.613281 -0.957031 2.671875 -1.066406 2.671875 -1.203125 C 2.671875 -1.304688 2.628906 -1.394531 2.546875 -1.46875 C 2.472656 -1.539062 2.378906 -1.597656 2.265625 -1.640625 C 2.148438 -1.691406 1.988281 -1.742188 1.78125 -1.796875 C 1.488281 -1.878906 1.25 -1.960938 1.0625 -2.046875 C 0.875 -2.128906 0.710938 -2.253906 0.578125 -2.421875 C 0.441406 -2.585938 0.375 -2.8125 0.375 -3.09375 C 0.375 -3.34375 0.441406 -3.566406 0.578125 -3.765625 C 0.722656 -3.960938 0.921875 -4.109375 1.171875 -4.203125 C 1.421875 -4.304688 1.710938 -4.359375 2.046875 -4.359375 C 2.335938 -4.359375 2.625 -4.316406 2.90625 -4.234375 C 3.195312 -4.148438 3.453125 -4.035156 3.671875 -3.890625 Z M 3.296875 -3.09375 "/></g></g></g><g fill="#ed2a7b" fill-opacity="1"><g transform="translate(146.32838, 40.83944)"><g><path d="M 3.296875 -3.09375 C 3.078125 -3.226562 2.84375 -3.332031 2.59375 -3.40625 C 2.34375 -3.488281 2.128906 -3.53125 1.953125 -3.53125 C 1.785156 -3.53125 1.65625 -3.5 1.5625 -3.4375 C 1.46875 -3.375 1.421875 -3.285156 1.421875 -3.171875 C 1.421875 -3.023438 1.488281 -2.910156 1.625 -2.828125 C 1.769531 -2.742188 1.988281 -2.660156 2.28125 -2.578125 C 2.570312 -2.492188 2.8125 -2.40625 3 -2.3125 C 3.195312 -2.226562 3.359375 -2.097656 3.484375 -1.921875 C 3.617188 -1.753906 3.6875 -1.53125 3.6875 -1.25 C 3.6875 -0.976562 3.613281 -0.742188 3.46875 -0.546875 C 3.332031 -0.347656 3.132812 -0.195312 2.875 -0.09375 C 2.625 0.0078125 2.335938 0.0625 2.015625 0.0625 C 1.671875 0.0625 1.328125 0 0.984375 -0.125 C 0.648438 -0.25 0.363281 -0.414062 0.125 -0.625 L 0.515625 -1.421875 C 0.722656 -1.222656 0.96875 -1.0625 1.25 -0.9375 C 1.53125 -0.820312 1.789062 -0.765625 2.03125 -0.765625 C 2.226562 -0.765625 2.382812 -0.800781 2.5 -0.875 C 2.613281 -0.957031 2.671875 -1.066406 2.671875 -1.203125 C 2.671875 -1.304688 2.628906 -1.394531 2.546875 -1.46875 C 2.472656 -1.539062 2.378906 -1.597656 2.265625 -1.640625 C 2.148438 -1.691406 1.988281 -1.742188 1.78125 -1.796875 C 1.488281 -1.878906 1.25 -1.960938 1.0625 -2.046875 C 0.875 -2.128906 0.710938 -2.253906 0.578125 -2.421875 C 0.441406 -2.585938 0.375 -2.8125 0.375 -3.09375 C 0.375 -3.34375 0.441406 -3.566406 0.578125 -3.765625 C 0.722656 -3.960938 0.921875 -4.109375 1.171875 -4.203125 C 1.421875 -4.304688 1.710938 -4.359375 2.046875 -4.359375 C 2.335938 -4.359375 2.625 -4.316406 2.90625 -4.234375 C 3.195312 -4.148438 3.453125 -4.035156 3.671875 -3.890625 Z M 3.296875 -3.09375 "/></g></g></g><g fill="#ed2a7b" fill-opacity="1"><g transform="translate(150.531239, 40.83944)"><g><path d="M 0.46875 0 L 0.46875 -4.28125 L 1.4375 -4.28125 L 1.4375 0 Z M 0.46875 0 "/></g></g></g><g fill="#ed2a7b" fill-opacity="1"><g transform="translate(152.751961, 40.83944)"><g><path d="M 2.4375 -4.28125 C 2.914062 -4.28125 3.289062 -4.1875 3.5625 -4 C 3.832031 -3.8125 3.96875 -3.550781 3.96875 -3.21875 C 3.96875 -2.988281 3.898438 -2.785156 3.765625 -2.609375 C 3.640625 -2.441406 3.460938 -2.328125 3.234375 -2.265625 C 3.515625 -2.210938 3.734375 -2.085938 3.890625 -1.890625 C 4.046875 -1.703125 4.125 -1.46875 4.125 -1.1875 C 4.125 -0.820312 3.976562 -0.53125 3.6875 -0.3125 C 3.40625 -0.101562 3.015625 0 2.515625 0 L 0.46875 0 L 0.46875 -4.28125 Z M 2.390625 -2.5625 C 2.578125 -2.5625 2.722656 -2.601562 2.828125 -2.6875 C 2.929688 -2.769531 2.984375 -2.882812 2.984375 -3.03125 C 2.984375 -3.1875 2.929688 -3.300781 2.828125 -3.375 C 2.722656 -3.457031 2.578125 -3.5 2.390625 -3.5 L 1.4375 -3.5 L 1.4375 -2.5625 Z M 2.390625 -0.796875 C 2.617188 -0.796875 2.796875 -0.835938 2.921875 -0.921875 C 3.054688 -1.015625 3.125 -1.144531 3.125 -1.3125 C 3.125 -1.46875 3.054688 -1.585938 2.921875 -1.671875 C 2.796875 -1.765625 2.617188 -1.8125 2.390625 -1.8125 L 1.4375 -1.8125 L 1.4375 -0.796875 Z M 2.390625 -0.796875 "/></g></g></g><g fill="#ed2a7b" fill-opacity="1"><g transform="translate(157.413649, 40.83944)"><g><path d="M 0.46875 0 L 0.46875 -4.28125 L 1.4375 -4.28125 L 1.4375 -0.84375 L 3.28125 -0.84375 L 3.28125 0 Z M 0.46875 0 "/></g></g></g><g fill="#ed2a7b" fill-opacity="1"><g transform="translate(161.096509, 40.83944)"><g><path d="M 0.46875 0 L 0.46875 -4.28125 L 3.734375 -4.28125 L 3.734375 -3.484375 L 1.4375 -3.484375 L 1.4375 -2.546875 L 3.5 -2.546875 L 3.5 -1.75 L 1.4375 -1.75 L 1.4375 -0.796875 L 3.796875 -0.796875 L 3.796875 0 Z M 0.46875 0 "/></g></g></g></svg>